G75*
%MOIN*%
%OFA0B0*%
%FSLAX24Y24*%
%IPPOS*%
%LPD*%
%AMOC8*
5,1,8,0,0,1.08239X$1,22.5*
%
%ADD10C,0.0080*%
%ADD11C,0.0030*%
%ADD12C,0.0050*%
%ADD13C,0.0100*%
%ADD14C,0.0060*%
%ADD15C,0.0120*%
%ADD16R,0.0340X0.0240*%
%ADD17R,0.0736X0.0200*%
%ADD18R,0.0335X0.0250*%
%ADD19R,0.0240X0.0340*%
D10*
X002979Y000787D02*
X002979Y020387D01*
X016629Y020387D01*
X016629Y000787D01*
X002979Y000787D01*
X003279Y006237D02*
X003279Y006637D01*
X003279Y006837D01*
X003279Y006637D02*
X003279Y008237D01*
X007279Y008237D01*
X007279Y006237D01*
X003279Y006237D01*
X004329Y013037D02*
X004079Y013287D01*
X004079Y013787D01*
X004329Y014037D01*
X004079Y014287D01*
X004079Y014787D01*
X004329Y015037D01*
X004079Y015287D01*
X004079Y015787D01*
X004329Y016037D01*
X004079Y016287D01*
X004079Y016787D01*
X004329Y017037D01*
X004079Y017287D01*
X004079Y017787D01*
X004329Y018037D01*
X004829Y018037D01*
X005079Y017787D01*
X005079Y017287D01*
X004829Y017037D01*
X005079Y016787D01*
X005079Y016287D01*
X004829Y016037D01*
X005079Y015787D01*
X005079Y015287D01*
X004829Y015037D01*
X005079Y014787D01*
X005079Y014287D01*
X004829Y014037D01*
X005079Y013787D01*
X005079Y013287D01*
X004829Y013037D01*
X004329Y013037D01*
D11*
X003927Y013451D02*
X003927Y013644D01*
X003878Y013693D01*
X003733Y013693D01*
X003733Y013402D01*
X003878Y013402D01*
X003927Y013451D01*
X003632Y013402D02*
X003632Y013693D01*
X003439Y013693D02*
X003439Y013402D01*
X003338Y013451D02*
X003338Y013548D01*
X003241Y013548D01*
X003338Y013644D02*
X003289Y013693D01*
X003192Y013693D01*
X003144Y013644D01*
X003144Y013451D01*
X003192Y013402D01*
X003289Y013402D01*
X003338Y013451D01*
X003439Y013693D02*
X003632Y013402D01*
X003696Y012623D02*
X003696Y012332D01*
X003599Y012332D02*
X003793Y012332D01*
X003599Y012526D02*
X003696Y012623D01*
X003498Y012574D02*
X003498Y012381D01*
X003450Y012332D01*
X003353Y012332D01*
X003305Y012381D01*
X003305Y012574D01*
X003353Y012623D01*
X003450Y012623D01*
X003498Y012574D01*
X003401Y012429D02*
X003498Y012332D01*
X003439Y014402D02*
X003584Y014402D01*
X003632Y014451D01*
X003632Y014644D01*
X003584Y014693D01*
X003439Y014693D01*
X003439Y014402D01*
X003338Y014402D02*
X003338Y014596D01*
X003241Y014693D01*
X003144Y014596D01*
X003144Y014402D01*
X003144Y014548D02*
X003338Y014548D01*
X003733Y014644D02*
X003782Y014693D01*
X003878Y014693D01*
X003927Y014644D01*
X003927Y014596D01*
X003878Y014548D01*
X003927Y014499D01*
X003927Y014451D01*
X003878Y014402D01*
X003782Y014402D01*
X003733Y014451D01*
X003830Y014548D02*
X003878Y014548D01*
X003927Y015402D02*
X003733Y015402D01*
X003927Y015596D01*
X003927Y015644D01*
X003878Y015693D01*
X003782Y015693D01*
X003733Y015644D01*
X003632Y015644D02*
X003584Y015693D01*
X003439Y015693D01*
X003439Y015402D01*
X003584Y015402D01*
X003632Y015451D01*
X003632Y015644D01*
X003338Y015596D02*
X003338Y015402D01*
X003338Y015548D02*
X003144Y015548D01*
X003144Y015596D02*
X003241Y015693D01*
X003338Y015596D01*
X003144Y015596D02*
X003144Y015402D01*
X003144Y016402D02*
X003144Y016596D01*
X003241Y016693D01*
X003338Y016596D01*
X003338Y016402D01*
X003439Y016402D02*
X003439Y016693D01*
X003584Y016693D01*
X003632Y016644D01*
X003632Y016451D01*
X003584Y016402D01*
X003439Y016402D01*
X003338Y016548D02*
X003144Y016548D01*
X003733Y016596D02*
X003830Y016693D01*
X003830Y016402D01*
X003733Y016402D02*
X003927Y016402D01*
X003878Y017402D02*
X003782Y017402D01*
X003733Y017451D01*
X003733Y017644D01*
X003782Y017693D01*
X003878Y017693D01*
X003927Y017644D01*
X003927Y017451D02*
X003878Y017402D01*
X003632Y017451D02*
X003584Y017402D01*
X003487Y017402D01*
X003439Y017451D01*
X003439Y017644D01*
X003487Y017693D01*
X003584Y017693D01*
X003632Y017644D01*
X003338Y017693D02*
X003338Y017499D01*
X003241Y017402D01*
X003144Y017499D01*
X003144Y017693D01*
X005405Y018031D02*
X005453Y017982D01*
X005550Y017982D01*
X005598Y018031D01*
X005699Y018128D02*
X005893Y018128D01*
X005844Y018273D02*
X005699Y018128D01*
X005598Y018224D02*
X005550Y018273D01*
X005453Y018273D01*
X005405Y018224D01*
X005405Y018031D01*
X005844Y017982D02*
X005844Y018273D01*
X007244Y017293D02*
X007244Y017099D01*
X007341Y017002D01*
X007438Y017099D01*
X007438Y017293D01*
X007539Y017244D02*
X007539Y017051D01*
X007587Y017002D01*
X007684Y017002D01*
X007732Y017051D01*
X007833Y017051D02*
X007882Y017002D01*
X007978Y017002D01*
X008027Y017051D01*
X008027Y017244D02*
X007978Y017293D01*
X007882Y017293D01*
X007833Y017244D01*
X007833Y017051D01*
X007732Y017244D02*
X007684Y017293D01*
X007587Y017293D01*
X007539Y017244D01*
X008423Y017244D02*
X008471Y017293D01*
X008568Y017293D01*
X008616Y017244D01*
X008616Y017196D01*
X008568Y017148D01*
X008616Y017099D01*
X008616Y017051D01*
X008568Y017002D01*
X008471Y017002D01*
X008423Y017051D01*
X008519Y017148D02*
X008568Y017148D01*
X008717Y017051D02*
X008717Y017002D01*
X008766Y017002D01*
X008766Y017051D01*
X008717Y017051D01*
X008865Y017051D02*
X008913Y017002D01*
X009010Y017002D01*
X009058Y017051D01*
X009058Y017099D01*
X009010Y017148D01*
X008961Y017148D01*
X009010Y017148D02*
X009058Y017196D01*
X009058Y017244D01*
X009010Y017293D01*
X008913Y017293D01*
X008865Y017244D01*
X009454Y017293D02*
X009454Y017099D01*
X009551Y017002D01*
X009647Y017099D01*
X009647Y017293D01*
X010043Y017293D02*
X010043Y017002D01*
X010237Y017002D02*
X010237Y017293D01*
X010140Y017196D01*
X010043Y017293D01*
X010338Y017196D02*
X010338Y017002D01*
X010338Y017148D02*
X010531Y017148D01*
X010531Y017196D02*
X010531Y017002D01*
X010633Y017002D02*
X010826Y017293D01*
X010633Y017293D02*
X010826Y017002D01*
X010531Y017196D02*
X010435Y017293D01*
X010338Y017196D01*
X008443Y019932D02*
X008249Y019932D01*
X008443Y020126D01*
X008443Y020174D01*
X008394Y020223D01*
X008298Y020223D01*
X008249Y020174D01*
X008148Y020174D02*
X008100Y020223D01*
X007955Y020223D01*
X007955Y019932D01*
X008100Y019932D01*
X008148Y019981D01*
X008148Y020174D01*
X007854Y020223D02*
X007660Y020223D01*
X007660Y019932D01*
X007854Y019932D01*
X007757Y020078D02*
X007660Y020078D01*
X007559Y019932D02*
X007365Y019932D01*
X007365Y020223D01*
X005766Y014491D02*
X005717Y014491D01*
X005669Y014442D01*
X005669Y014345D01*
X005621Y014297D01*
X005572Y014297D01*
X005524Y014345D01*
X005524Y014442D01*
X005572Y014491D01*
X005621Y014491D01*
X005669Y014442D01*
X005669Y014345D02*
X005717Y014297D01*
X005766Y014297D01*
X005814Y014345D01*
X005814Y014442D01*
X005766Y014491D01*
X005814Y014196D02*
X005717Y014099D01*
X005717Y014148D02*
X005717Y014002D01*
X005814Y014002D02*
X005524Y014002D01*
X005524Y014148D01*
X005572Y014196D01*
X005669Y014196D01*
X005717Y014148D01*
X007292Y010993D02*
X007244Y010944D01*
X007244Y010896D01*
X007292Y010848D01*
X007389Y010848D01*
X007438Y010799D01*
X007438Y010751D01*
X007389Y010702D01*
X007292Y010702D01*
X007244Y010751D01*
X007292Y010993D02*
X007389Y010993D01*
X007438Y010944D01*
X007539Y010993D02*
X007539Y010702D01*
X007732Y010702D01*
X007833Y010702D02*
X007833Y010993D01*
X008027Y010993D01*
X008128Y010993D02*
X008128Y010702D01*
X008321Y010702D01*
X008423Y010702D02*
X008423Y010993D01*
X008568Y010993D01*
X008616Y010944D01*
X008616Y010848D01*
X008568Y010799D01*
X008423Y010799D01*
X008321Y010993D02*
X008128Y010993D01*
X008128Y010848D02*
X008225Y010848D01*
X008027Y010702D02*
X007833Y010702D01*
X007833Y010848D02*
X007930Y010848D01*
X007978Y010193D02*
X007833Y010193D01*
X007833Y009902D01*
X007978Y009902D01*
X008027Y009951D01*
X008027Y010144D01*
X007978Y010193D01*
X007732Y010193D02*
X007732Y009902D01*
X007539Y010193D01*
X007539Y009902D01*
X007438Y009951D02*
X007438Y010048D01*
X007341Y010048D01*
X007438Y010144D02*
X007389Y010193D01*
X007292Y010193D01*
X007244Y010144D01*
X007244Y009951D01*
X007292Y009902D01*
X007389Y009902D01*
X007438Y009951D01*
X008717Y010654D02*
X008911Y010654D01*
X009012Y010702D02*
X009012Y010993D01*
X009157Y010993D01*
X009205Y010944D01*
X009205Y010848D01*
X009157Y010799D01*
X009012Y010799D01*
X009109Y010799D02*
X009205Y010702D01*
X009307Y010751D02*
X009307Y010944D01*
X009355Y010993D01*
X009452Y010993D01*
X009500Y010944D01*
X009500Y010751D01*
X009452Y010702D01*
X009355Y010702D01*
X009307Y010751D01*
X009403Y010799D02*
X009500Y010702D01*
X009222Y008091D02*
X009416Y007897D01*
X009464Y007897D01*
X009464Y007796D02*
X009367Y007699D01*
X009367Y007748D02*
X009367Y007602D01*
X009464Y007602D02*
X009174Y007602D01*
X009174Y007748D01*
X009222Y007796D01*
X009319Y007796D01*
X009367Y007748D01*
X009174Y007897D02*
X009174Y008091D01*
X009222Y008091D01*
X010124Y008091D02*
X010124Y007897D01*
X010269Y007897D01*
X010221Y007994D01*
X010221Y008042D01*
X010269Y008091D01*
X010366Y008091D01*
X010414Y008042D01*
X010414Y007945D01*
X010366Y007897D01*
X010414Y007796D02*
X010317Y007699D01*
X010317Y007748D02*
X010317Y007602D01*
X010414Y007602D02*
X010124Y007602D01*
X010124Y007748D01*
X010172Y007796D01*
X010269Y007796D01*
X010317Y007748D01*
X011124Y007748D02*
X011124Y007602D01*
X011414Y007602D01*
X011317Y007602D02*
X011317Y007748D01*
X011269Y007796D01*
X011172Y007796D01*
X011124Y007748D01*
X011172Y007897D02*
X011124Y007945D01*
X011124Y008042D01*
X011172Y008091D01*
X011221Y008091D01*
X011269Y008042D01*
X011317Y008091D01*
X011366Y008091D01*
X011414Y008042D01*
X011414Y007945D01*
X011366Y007897D01*
X011414Y007796D02*
X011317Y007699D01*
X011269Y007994D02*
X011269Y008042D01*
X012942Y011502D02*
X013039Y011502D01*
X013088Y011551D01*
X013088Y011744D01*
X013039Y011793D01*
X012942Y011793D01*
X012894Y011744D01*
X012894Y011551D01*
X012942Y011502D01*
X013189Y011502D02*
X013189Y011793D01*
X013382Y011502D01*
X013382Y011793D01*
X013677Y011793D02*
X013483Y011502D01*
X013778Y011551D02*
X013826Y011502D01*
X013923Y011502D01*
X013971Y011551D01*
X013971Y011599D01*
X013923Y011648D01*
X013826Y011648D01*
X013778Y011696D01*
X013778Y011744D01*
X013826Y011793D01*
X013923Y011793D01*
X013971Y011744D01*
X014073Y011793D02*
X014073Y011502D01*
X014266Y011502D01*
X014367Y011502D02*
X014367Y011793D01*
X014561Y011793D01*
X014662Y011793D02*
X014662Y011502D01*
X014855Y011502D01*
X014957Y011502D02*
X014957Y011793D01*
X015102Y011793D01*
X015150Y011744D01*
X015150Y011648D01*
X015102Y011599D01*
X014957Y011599D01*
X014759Y011648D02*
X014662Y011648D01*
X014662Y011793D02*
X014855Y011793D01*
X014561Y011502D02*
X014367Y011502D01*
X014367Y011648D02*
X014464Y011648D01*
X014389Y012302D02*
X014389Y012593D01*
X014534Y012593D01*
X014582Y012544D01*
X014582Y012448D01*
X014534Y012399D01*
X014389Y012399D01*
X014485Y012399D02*
X014582Y012302D01*
X014683Y012302D02*
X014683Y012593D01*
X014877Y012593D01*
X014978Y012593D02*
X014978Y012302D01*
X014877Y012302D02*
X014683Y012302D01*
X014683Y012448D02*
X014780Y012448D01*
X014978Y012448D02*
X015075Y012448D01*
X015171Y012593D02*
X014978Y012593D01*
X014288Y012593D02*
X014288Y012399D01*
X014191Y012302D01*
X014094Y012399D01*
X014094Y012593D01*
X014294Y014652D02*
X014294Y014846D01*
X014391Y014943D01*
X014488Y014846D01*
X014488Y014652D01*
X014589Y014652D02*
X014734Y014652D01*
X014782Y014701D01*
X014782Y014894D01*
X014734Y014943D01*
X014589Y014943D01*
X014589Y014652D01*
X014488Y014798D02*
X014294Y014798D01*
X014294Y015452D02*
X014294Y015646D01*
X014391Y015743D01*
X014488Y015646D01*
X014488Y015452D01*
X014589Y015452D02*
X014734Y015452D01*
X014782Y015501D01*
X014782Y015694D01*
X014734Y015743D01*
X014589Y015743D01*
X014589Y015452D01*
X014488Y015598D02*
X014294Y015598D01*
X014294Y016252D02*
X014294Y016446D01*
X014391Y016543D01*
X014488Y016446D01*
X014488Y016252D01*
X014589Y016252D02*
X014734Y016252D01*
X014782Y016301D01*
X014782Y016494D01*
X014734Y016543D01*
X014589Y016543D01*
X014589Y016252D01*
X014488Y016398D02*
X014294Y016398D01*
X014883Y016446D02*
X014980Y016543D01*
X014980Y016252D01*
X014883Y016252D02*
X015077Y016252D01*
X015028Y015743D02*
X014932Y015743D01*
X014883Y015694D01*
X015028Y015743D02*
X015077Y015694D01*
X015077Y015646D01*
X014883Y015452D01*
X015077Y015452D01*
X015028Y014943D02*
X014932Y014943D01*
X014883Y014894D01*
X014980Y014798D02*
X015028Y014798D01*
X015077Y014749D01*
X015077Y014701D01*
X015028Y014652D01*
X014932Y014652D01*
X014883Y014701D01*
X015028Y014798D02*
X015077Y014846D01*
X015077Y014894D01*
X015028Y014943D01*
X016224Y015023D02*
X016224Y014829D01*
X016514Y014829D01*
X016514Y015023D01*
X016514Y015124D02*
X016224Y015124D01*
X016224Y015269D01*
X016272Y015318D01*
X016369Y015318D01*
X016417Y015269D01*
X016417Y015124D01*
X016417Y015221D02*
X016514Y015318D01*
X016369Y014926D02*
X016369Y014829D01*
X016224Y014728D02*
X016224Y014535D01*
X016224Y014631D02*
X016514Y014631D01*
X016514Y014337D02*
X016224Y014337D01*
X016224Y014240D02*
X016224Y014434D01*
X016224Y014140D02*
X016224Y014044D01*
X016224Y014092D02*
X016514Y014092D01*
X016514Y014044D02*
X016514Y014140D01*
X016514Y013942D02*
X016224Y013942D01*
X016321Y013846D01*
X016224Y013749D01*
X016514Y013749D01*
X016466Y013648D02*
X016514Y013599D01*
X016514Y013503D01*
X016466Y013454D01*
X016369Y013503D02*
X016369Y013599D01*
X016417Y013648D01*
X016466Y013648D01*
X016369Y013503D02*
X016321Y013454D01*
X016272Y013454D01*
X016224Y013503D01*
X016224Y013599D01*
X016272Y013648D01*
X016224Y013353D02*
X016514Y013353D01*
X016224Y013160D01*
X016514Y013160D01*
X016514Y013059D02*
X016321Y013059D01*
X016224Y012962D01*
X016321Y012865D01*
X016514Y012865D01*
X016514Y012764D02*
X016417Y012667D01*
X016417Y012715D02*
X016417Y012570D01*
X016514Y012570D02*
X016224Y012570D01*
X016224Y012715D01*
X016272Y012764D01*
X016369Y012764D01*
X016417Y012715D01*
X016369Y012865D02*
X016369Y013059D01*
X016224Y012469D02*
X016224Y012276D01*
X016224Y012372D02*
X016514Y012372D01*
X016514Y011880D02*
X016514Y011686D01*
X016224Y011686D01*
X016224Y011880D01*
X016369Y011783D02*
X016369Y011686D01*
X016514Y011585D02*
X016514Y011392D01*
X016224Y011392D01*
X016224Y011585D01*
X016369Y011489D02*
X016369Y011392D01*
X016417Y011291D02*
X016466Y011291D01*
X016514Y011242D01*
X016514Y011097D01*
X016224Y011097D01*
X016224Y011242D01*
X016272Y011291D01*
X016321Y011291D01*
X016369Y011242D01*
X016369Y011097D01*
X016369Y011242D02*
X016417Y011291D01*
X016514Y010996D02*
X016224Y010802D01*
X016224Y010996D02*
X016514Y010802D01*
X014982Y009043D02*
X014885Y008994D01*
X014789Y008898D01*
X014934Y008898D01*
X014982Y008849D01*
X014982Y008801D01*
X014934Y008752D01*
X014837Y008752D01*
X014789Y008801D01*
X014789Y008898D01*
X014688Y008898D02*
X014639Y008849D01*
X014494Y008849D01*
X014494Y008752D02*
X014494Y009043D01*
X014639Y009043D01*
X014688Y008994D01*
X014688Y008898D01*
X014591Y008849D02*
X014688Y008752D01*
X014639Y007993D02*
X014688Y007944D01*
X014688Y007848D01*
X014639Y007799D01*
X014494Y007799D01*
X014494Y007702D02*
X014494Y007993D01*
X014639Y007993D01*
X014789Y007896D02*
X014885Y007993D01*
X014885Y007702D01*
X014789Y007702D02*
X014982Y007702D01*
X014688Y007702D02*
X014591Y007799D01*
X014639Y006943D02*
X014688Y006894D01*
X014688Y006798D01*
X014639Y006749D01*
X014494Y006749D01*
X014494Y006652D02*
X014494Y006943D01*
X014639Y006943D01*
X014591Y006749D02*
X014688Y006652D01*
X014789Y006798D02*
X014982Y006798D01*
X014934Y006943D02*
X014789Y006798D01*
X014934Y006652D02*
X014934Y006943D01*
X014934Y005893D02*
X014837Y005893D01*
X014789Y005844D01*
X014688Y005844D02*
X014688Y005748D01*
X014639Y005699D01*
X014494Y005699D01*
X014494Y005602D02*
X014494Y005893D01*
X014639Y005893D01*
X014688Y005844D01*
X014591Y005699D02*
X014688Y005602D01*
X014789Y005602D02*
X014982Y005796D01*
X014982Y005844D01*
X014934Y005893D01*
X014982Y005602D02*
X014789Y005602D01*
X014585Y003893D02*
X014585Y003602D01*
X014489Y003602D02*
X014682Y003602D01*
X014489Y003796D02*
X014585Y003893D01*
X014388Y003602D02*
X014194Y003602D01*
X014194Y003893D01*
X013434Y002593D02*
X013337Y002593D01*
X013289Y002544D01*
X013188Y002544D02*
X013139Y002593D01*
X013042Y002593D01*
X012994Y002544D01*
X012994Y002351D01*
X013042Y002302D01*
X013139Y002302D01*
X013188Y002351D01*
X013289Y002302D02*
X013482Y002496D01*
X013482Y002544D01*
X013434Y002593D01*
X013482Y002302D02*
X013289Y002302D01*
X014444Y002251D02*
X014492Y002202D01*
X014589Y002202D01*
X014638Y002251D01*
X014638Y002348D01*
X014541Y002348D01*
X014638Y002444D02*
X014589Y002493D01*
X014492Y002493D01*
X014444Y002444D01*
X014444Y002251D01*
X014739Y002202D02*
X014739Y002493D01*
X014932Y002202D01*
X014932Y002493D01*
X015033Y002493D02*
X015033Y002202D01*
X015178Y002202D01*
X015227Y002251D01*
X015227Y002444D01*
X015178Y002493D01*
X015033Y002493D01*
X015394Y002493D02*
X015394Y002299D01*
X015491Y002202D01*
X015588Y002299D01*
X015588Y002493D01*
X015689Y002493D02*
X015689Y002202D01*
X015834Y002202D01*
X015882Y002251D01*
X015882Y002299D01*
X015834Y002348D01*
X015689Y002348D01*
X015689Y002493D02*
X015834Y002493D01*
X015882Y002444D01*
X015882Y002396D01*
X015834Y002348D01*
X015983Y002348D02*
X016177Y002348D01*
X016177Y002396D02*
X016177Y002202D01*
X016177Y002396D02*
X016080Y002493D01*
X015983Y002396D01*
X015983Y002202D01*
X016278Y002493D02*
X016471Y002493D01*
X016375Y002493D02*
X016375Y002202D01*
X010182Y002302D02*
X009989Y002302D01*
X010085Y002302D02*
X010085Y002593D01*
X009989Y002496D01*
X009888Y002544D02*
X009839Y002593D01*
X009742Y002593D01*
X009694Y002544D01*
X009694Y002351D01*
X009742Y002302D01*
X009839Y002302D01*
X009888Y002351D01*
X008184Y004102D02*
X008087Y004102D01*
X008039Y004151D01*
X007938Y004151D02*
X007889Y004102D01*
X007792Y004102D01*
X007744Y004151D01*
X007744Y004344D01*
X007792Y004393D01*
X007889Y004393D01*
X007938Y004344D01*
X008039Y004344D02*
X008087Y004393D01*
X008184Y004393D01*
X008232Y004344D01*
X008232Y004296D01*
X008184Y004248D01*
X008232Y004199D01*
X008232Y004151D01*
X008184Y004102D01*
X008184Y004248D02*
X008135Y004248D01*
X007080Y003793D02*
X006983Y003793D01*
X007032Y003793D02*
X007032Y003502D01*
X007080Y003502D02*
X006983Y003502D01*
X006882Y003551D02*
X006834Y003502D01*
X006689Y003502D01*
X006689Y003793D01*
X006834Y003793D01*
X006882Y003744D01*
X006882Y003696D01*
X006834Y003648D01*
X006689Y003648D01*
X006834Y003648D02*
X006882Y003599D01*
X006882Y003551D01*
X006588Y003502D02*
X006394Y003502D01*
X006394Y003793D01*
X006177Y003793D02*
X005983Y003793D01*
X006080Y003793D02*
X006080Y003502D01*
X005882Y003551D02*
X005882Y003793D01*
X005689Y003793D02*
X005689Y003551D01*
X005737Y003502D01*
X005834Y003502D01*
X005882Y003551D01*
X005588Y003551D02*
X005588Y003744D01*
X005539Y003793D01*
X005442Y003793D01*
X005394Y003744D01*
X005394Y003551D01*
X005442Y003502D01*
X005539Y003502D01*
X005588Y003551D01*
X005573Y003143D02*
X005573Y002998D01*
X005669Y003046D01*
X005718Y003046D01*
X005766Y002998D01*
X005766Y002901D01*
X005718Y002852D01*
X005621Y002852D01*
X005573Y002901D01*
X005471Y003094D02*
X005278Y002901D01*
X005278Y002852D01*
X005177Y002852D02*
X004983Y003143D01*
X004882Y003046D02*
X004882Y002852D01*
X004983Y002852D02*
X005177Y003143D01*
X005278Y003143D02*
X005471Y003143D01*
X005471Y003094D01*
X005573Y003143D02*
X005766Y003143D01*
X005867Y003143D02*
X006061Y003143D01*
X006061Y003094D01*
X005867Y002901D01*
X005867Y002852D01*
X005832Y002493D02*
X005639Y002493D01*
X005639Y002202D01*
X005832Y002202D01*
X005933Y002202D02*
X005933Y002493D01*
X006127Y002493D01*
X006030Y002348D02*
X005933Y002348D01*
X005735Y002348D02*
X005639Y002348D01*
X005538Y002348D02*
X005489Y002299D01*
X005344Y002299D01*
X005344Y002202D02*
X005344Y002493D01*
X005489Y002493D01*
X005538Y002444D01*
X005538Y002348D01*
X005441Y002299D02*
X005538Y002202D01*
X005032Y002251D02*
X004984Y002202D01*
X004839Y002202D01*
X004839Y002493D01*
X004984Y002493D01*
X005032Y002444D01*
X005032Y002396D01*
X004984Y002348D01*
X004839Y002348D01*
X004984Y002348D02*
X005032Y002299D01*
X005032Y002251D01*
X004738Y002493D02*
X004544Y002493D01*
X004544Y002202D01*
X004544Y002348D02*
X004641Y002348D01*
X004371Y002202D02*
X004371Y002493D01*
X004178Y002493D02*
X004178Y002202D01*
X004077Y002251D02*
X004077Y002444D01*
X004028Y002493D01*
X003883Y002493D01*
X003883Y002202D01*
X004028Y002202D01*
X004077Y002251D01*
X004178Y002493D02*
X004371Y002202D01*
X003782Y002202D02*
X003782Y002493D01*
X003782Y002348D02*
X003589Y002348D01*
X003488Y002299D02*
X003488Y002251D01*
X003439Y002202D01*
X003342Y002202D01*
X003294Y002251D01*
X003342Y002348D02*
X003439Y002348D01*
X003488Y002299D01*
X003589Y002202D02*
X003589Y002493D01*
X003488Y002444D02*
X003439Y002493D01*
X003342Y002493D01*
X003294Y002444D01*
X003294Y002396D01*
X003342Y002348D01*
X003494Y003502D02*
X003688Y003502D01*
X003789Y003502D02*
X003982Y003793D01*
X003789Y003793D02*
X003982Y003502D01*
X004344Y003551D02*
X004392Y003502D01*
X004489Y003502D01*
X004538Y003551D01*
X004538Y003648D01*
X004441Y003648D01*
X004538Y003744D02*
X004489Y003793D01*
X004392Y003793D01*
X004344Y003744D01*
X004344Y003551D01*
X004639Y003502D02*
X004639Y003793D01*
X004832Y003502D01*
X004832Y003793D01*
X004933Y003793D02*
X004933Y003502D01*
X005078Y003502D01*
X005127Y003551D01*
X005127Y003744D01*
X005078Y003793D01*
X004933Y003793D01*
X004785Y003143D02*
X004689Y003046D01*
X004689Y002852D01*
X004588Y002852D02*
X004588Y003143D01*
X004491Y003046D01*
X004394Y003143D01*
X004394Y002852D01*
X004689Y002998D02*
X004882Y002998D01*
X004882Y003046D02*
X004785Y003143D01*
X003494Y003502D02*
X003494Y003793D01*
X003394Y006302D02*
X003394Y006593D01*
X003539Y006593D01*
X003588Y006544D01*
X003588Y006448D01*
X003539Y006399D01*
X003394Y006399D01*
X003689Y006448D02*
X003834Y006448D01*
X003882Y006399D01*
X003882Y006351D01*
X003834Y006302D01*
X003689Y006302D01*
X003689Y006593D01*
X003834Y006593D01*
X003882Y006544D01*
X003882Y006496D01*
X003834Y006448D01*
X003983Y006448D02*
X003983Y006593D01*
X004177Y006593D01*
X004128Y006496D02*
X004177Y006448D01*
X004177Y006351D01*
X004128Y006302D01*
X004032Y006302D01*
X003983Y006351D01*
X003983Y006448D02*
X004080Y006496D01*
X004128Y006496D01*
X004394Y006593D02*
X004394Y006302D01*
X004394Y006399D02*
X004539Y006399D01*
X004588Y006448D01*
X004588Y006544D01*
X004539Y006593D01*
X004394Y006593D01*
X004689Y006593D02*
X004834Y006593D01*
X004882Y006544D01*
X004882Y006496D01*
X004834Y006448D01*
X004689Y006448D01*
X004689Y006593D02*
X004689Y006302D01*
X004834Y006302D01*
X004882Y006351D01*
X004882Y006399D01*
X004834Y006448D01*
X004983Y006544D02*
X005032Y006593D01*
X005128Y006593D01*
X005177Y006544D01*
X005177Y006496D01*
X005128Y006448D01*
X005177Y006399D01*
X005177Y006351D01*
X005128Y006302D01*
X005032Y006302D01*
X004983Y006351D01*
X005080Y006448D02*
X005128Y006448D01*
X005394Y006399D02*
X005539Y006399D01*
X005588Y006448D01*
X005588Y006544D01*
X005539Y006593D01*
X005394Y006593D01*
X005394Y006302D01*
X005689Y006302D02*
X005834Y006302D01*
X005882Y006351D01*
X005882Y006399D01*
X005834Y006448D01*
X005689Y006448D01*
X005689Y006593D02*
X005689Y006302D01*
X005834Y006448D02*
X005882Y006496D01*
X005882Y006544D01*
X005834Y006593D01*
X005689Y006593D01*
X005983Y006448D02*
X006177Y006448D01*
X006128Y006593D02*
X006128Y006302D01*
X005983Y006448D02*
X006128Y006593D01*
X006344Y006544D02*
X006344Y006351D01*
X006392Y006302D01*
X006489Y006302D01*
X006538Y006351D01*
X006538Y006448D01*
X006441Y006448D01*
X006538Y006544D02*
X006489Y006593D01*
X006392Y006593D01*
X006344Y006544D01*
X006639Y006593D02*
X006639Y006302D01*
X006832Y006302D02*
X006832Y006593D01*
X006933Y006593D02*
X007078Y006593D01*
X007127Y006544D01*
X007127Y006351D01*
X007078Y006302D01*
X006933Y006302D01*
X006933Y006593D01*
X006639Y006593D02*
X006832Y006302D01*
X006353Y007102D02*
X006257Y007102D01*
X006208Y007151D01*
X006208Y007248D02*
X006305Y007296D01*
X006353Y007296D01*
X006402Y007248D01*
X006402Y007151D01*
X006353Y007102D01*
X006208Y007248D02*
X006208Y007393D01*
X006402Y007393D01*
X006107Y007344D02*
X006107Y007296D01*
X006059Y007248D01*
X005962Y007248D01*
X005914Y007296D01*
X005914Y007344D01*
X005962Y007393D01*
X006059Y007393D01*
X006107Y007344D01*
X006059Y007248D02*
X006107Y007199D01*
X006107Y007151D01*
X006059Y007102D01*
X005962Y007102D01*
X005914Y007151D01*
X005914Y007199D01*
X005962Y007248D01*
X005813Y007344D02*
X005813Y007393D01*
X005813Y007344D02*
X005716Y007248D01*
X005716Y007102D01*
X005716Y007248D02*
X005619Y007344D01*
X005619Y007393D01*
X005518Y007393D02*
X005518Y007102D01*
X005324Y007393D01*
X005324Y007102D01*
X005225Y007102D02*
X005128Y007102D01*
X005176Y007102D02*
X005176Y007393D01*
X005128Y007393D02*
X005225Y007393D01*
X005027Y007393D02*
X004833Y007393D01*
X004930Y007393D02*
X004930Y007102D01*
X004732Y007393D02*
X004539Y007393D01*
X004635Y007393D02*
X004635Y007102D01*
X004438Y007102D02*
X004438Y007296D01*
X004341Y007393D01*
X004244Y007296D01*
X004244Y007102D01*
X004244Y007248D02*
X004438Y007248D01*
X004394Y007852D02*
X004394Y008143D01*
X004539Y008143D01*
X004588Y008094D01*
X004588Y007998D01*
X004539Y007949D01*
X004394Y007949D01*
X004689Y007998D02*
X004834Y007998D01*
X004882Y007949D01*
X004882Y007901D01*
X004834Y007852D01*
X004689Y007852D01*
X004689Y008143D01*
X004834Y008143D01*
X004882Y008094D01*
X004882Y008046D01*
X004834Y007998D01*
X004983Y008094D02*
X005032Y008143D01*
X005128Y008143D01*
X005177Y008094D01*
X005177Y008046D01*
X004983Y007852D01*
X005177Y007852D01*
X005394Y007852D02*
X005394Y008143D01*
X005539Y008143D01*
X005588Y008094D01*
X005588Y007998D01*
X005539Y007949D01*
X005394Y007949D01*
X005689Y007998D02*
X005834Y007998D01*
X005882Y007949D01*
X005882Y007901D01*
X005834Y007852D01*
X005689Y007852D01*
X005689Y008143D01*
X005834Y008143D01*
X005882Y008094D01*
X005882Y008046D01*
X005834Y007998D01*
X005983Y008046D02*
X006080Y008143D01*
X006080Y007852D01*
X005983Y007852D02*
X006177Y007852D01*
X006394Y007852D02*
X006394Y008143D01*
X006539Y008143D01*
X006588Y008094D01*
X006588Y007998D01*
X006539Y007949D01*
X006394Y007949D01*
X006689Y007998D02*
X006834Y007998D01*
X006882Y007949D01*
X006882Y007901D01*
X006834Y007852D01*
X006689Y007852D01*
X006689Y008143D01*
X006834Y008143D01*
X006882Y008094D01*
X006882Y008046D01*
X006834Y007998D01*
X006983Y007901D02*
X006983Y008094D01*
X007032Y008143D01*
X007128Y008143D01*
X007177Y008094D01*
X006983Y007901D01*
X007032Y007852D01*
X007128Y007852D01*
X007177Y007901D01*
X007177Y008094D01*
X007374Y007994D02*
X007664Y007994D01*
X007664Y007897D02*
X007664Y008091D01*
X007471Y007897D02*
X007374Y007994D01*
X007422Y007796D02*
X007374Y007748D01*
X007374Y007602D01*
X007664Y007602D01*
X007664Y007748D01*
X007616Y007796D01*
X007422Y007796D01*
X005684Y009652D02*
X005732Y009701D01*
X005732Y009798D01*
X005684Y009846D01*
X005635Y009846D01*
X005539Y009798D01*
X005539Y009943D01*
X005732Y009943D01*
X005684Y009652D02*
X005587Y009652D01*
X005539Y009701D01*
X005438Y009701D02*
X005389Y009652D01*
X005292Y009652D01*
X005244Y009701D01*
X005244Y009894D01*
X005292Y009943D01*
X005389Y009943D01*
X005438Y009894D01*
X004128Y008143D02*
X004032Y008143D01*
X003983Y008094D01*
X003983Y007901D01*
X004032Y007852D01*
X004128Y007852D01*
X004177Y007901D01*
X004177Y008094D02*
X004128Y008143D01*
X003882Y008094D02*
X003834Y008143D01*
X003737Y008143D01*
X003689Y008094D01*
X003689Y007901D01*
X003737Y007852D01*
X003834Y007852D01*
X003882Y007901D01*
X003588Y007949D02*
X003588Y008143D01*
X003588Y007949D02*
X003491Y007852D01*
X003394Y007949D01*
X003394Y008143D01*
X006344Y002493D02*
X006344Y002202D01*
X006538Y002202D01*
X006639Y002202D02*
X006639Y002493D01*
X006784Y002493D01*
X006832Y002444D01*
X006832Y002396D01*
X006784Y002348D01*
X006639Y002348D01*
X006784Y002348D02*
X006832Y002299D01*
X006832Y002251D01*
X006784Y002202D01*
X006639Y002202D01*
X006933Y002251D02*
X006982Y002202D01*
X007078Y002202D01*
X007127Y002251D01*
X007127Y002444D01*
X007078Y002493D01*
X006982Y002493D01*
X006933Y002444D01*
X006933Y002251D01*
X016321Y015713D02*
X016514Y015810D01*
X016321Y015907D01*
X016321Y016008D02*
X016224Y016105D01*
X016514Y016105D01*
X016514Y016201D02*
X016514Y016008D01*
X016514Y016303D02*
X016466Y016303D01*
X016466Y016351D01*
X016514Y016351D01*
X016514Y016303D01*
X016466Y016450D02*
X016272Y016643D01*
X016466Y016643D01*
X016514Y016595D01*
X016514Y016498D01*
X016466Y016450D01*
X016272Y016450D01*
X016224Y016498D01*
X016224Y016595D01*
X016272Y016643D01*
X016272Y017052D02*
X016466Y017052D01*
X016514Y017101D01*
X016514Y017198D01*
X016466Y017246D01*
X016369Y017246D01*
X016369Y017149D01*
X016272Y017052D02*
X016224Y017101D01*
X016224Y017198D01*
X016272Y017246D01*
X016224Y017347D02*
X016224Y017492D01*
X016272Y017541D01*
X016321Y017541D01*
X016369Y017492D01*
X016369Y017347D01*
X016514Y017347D02*
X016514Y017492D01*
X016466Y017541D01*
X016417Y017541D01*
X016369Y017492D01*
X016514Y017347D02*
X016224Y017347D01*
X014793Y019932D02*
X014599Y019932D01*
X014696Y019932D02*
X014696Y020223D01*
X014599Y020126D01*
X014498Y020174D02*
X014450Y020223D01*
X014305Y020223D01*
X014305Y019932D01*
X014450Y019932D01*
X014498Y019981D01*
X014498Y020174D01*
X014204Y020223D02*
X014010Y020223D01*
X014010Y019932D01*
X014204Y019932D01*
X014107Y020078D02*
X014010Y020078D01*
X013909Y019932D02*
X013715Y019932D01*
X013715Y020223D01*
D12*
X012951Y020302D02*
X009211Y020302D01*
X006258Y017743D01*
X006258Y009476D01*
X016100Y009476D01*
X016100Y017743D01*
X012951Y020302D01*
X011354Y016216D02*
X011354Y015809D01*
X011354Y016012D02*
X010744Y016012D01*
X010947Y015809D01*
X010845Y015608D02*
X010744Y015506D01*
X010744Y015303D01*
X010845Y015201D01*
X010947Y015201D01*
X011049Y015303D01*
X011049Y015506D01*
X011151Y015608D01*
X011252Y015608D01*
X011354Y015506D01*
X011354Y015303D01*
X011252Y015201D01*
X011354Y014393D02*
X011354Y013986D01*
X010744Y013986D01*
X010744Y014393D01*
X011049Y014189D02*
X011049Y013986D01*
X011354Y013785D02*
X011354Y013378D01*
X010744Y013378D01*
X010744Y013785D01*
X011049Y013581D02*
X011049Y013378D01*
X011151Y013177D02*
X011049Y013075D01*
X011049Y012770D01*
X011049Y013075D02*
X010947Y013177D01*
X010845Y013177D01*
X010744Y013075D01*
X010744Y012770D01*
X011354Y012770D01*
X011354Y013075D01*
X011252Y013177D01*
X011151Y013177D01*
X011354Y012569D02*
X010744Y012162D01*
X010744Y012569D02*
X011354Y012162D01*
X013712Y003737D02*
X013714Y003812D01*
X013720Y003886D01*
X013730Y003961D01*
X013743Y004034D01*
X013761Y004107D01*
X013783Y004178D01*
X013808Y004249D01*
X013837Y004318D01*
X013869Y004385D01*
X013905Y004451D01*
X013944Y004514D01*
X013987Y004576D01*
X014033Y004635D01*
X014082Y004692D01*
X014134Y004746D01*
X014188Y004797D01*
X014246Y004845D01*
X014305Y004890D01*
X014367Y004932D01*
X014431Y004970D01*
X014497Y005005D01*
X014565Y005037D01*
X014635Y005065D01*
X014705Y005089D01*
X014777Y005110D01*
X014850Y005126D01*
X014924Y005139D01*
X014998Y005148D01*
X015073Y005153D01*
X015148Y005154D01*
X015222Y005151D01*
X015297Y005144D01*
X015371Y005133D01*
X015444Y005118D01*
X015517Y005100D01*
X015588Y005078D01*
X015658Y005051D01*
X015727Y005022D01*
X015794Y004988D01*
X015859Y004951D01*
X015922Y004911D01*
X015983Y004868D01*
X016041Y004821D01*
X016097Y004771D01*
X016151Y004719D01*
X016201Y004664D01*
X016248Y004606D01*
X016293Y004545D01*
X016334Y004483D01*
X016371Y004418D01*
X016406Y004352D01*
X016436Y004284D01*
X016463Y004214D01*
X016487Y004143D01*
X016506Y004071D01*
X016522Y003997D01*
X016534Y003924D01*
X016542Y003849D01*
X016546Y003774D01*
X016546Y003700D01*
X016542Y003625D01*
X016534Y003550D01*
X016522Y003477D01*
X016506Y003403D01*
X016487Y003331D01*
X016463Y003260D01*
X016436Y003190D01*
X016406Y003122D01*
X016371Y003056D01*
X016334Y002991D01*
X016293Y002929D01*
X016248Y002868D01*
X016201Y002810D01*
X016151Y002755D01*
X016097Y002703D01*
X016041Y002653D01*
X015983Y002606D01*
X015922Y002563D01*
X015859Y002523D01*
X015794Y002486D01*
X015727Y002452D01*
X015658Y002423D01*
X015588Y002396D01*
X015517Y002374D01*
X015444Y002356D01*
X015371Y002341D01*
X015297Y002330D01*
X015222Y002323D01*
X015148Y002320D01*
X015073Y002321D01*
X014998Y002326D01*
X014924Y002335D01*
X014850Y002348D01*
X014777Y002364D01*
X014705Y002385D01*
X014635Y002409D01*
X014565Y002437D01*
X014497Y002469D01*
X014431Y002504D01*
X014367Y002542D01*
X014305Y002584D01*
X014246Y002629D01*
X014188Y002677D01*
X014134Y002728D01*
X014082Y002782D01*
X014033Y002839D01*
X013987Y002898D01*
X013944Y002960D01*
X013905Y003023D01*
X013869Y003089D01*
X013837Y003156D01*
X013808Y003225D01*
X013783Y003296D01*
X013761Y003367D01*
X013743Y003440D01*
X013730Y003513D01*
X013720Y003588D01*
X013714Y003662D01*
X013712Y003737D01*
D13*
X003496Y006737D02*
X003498Y006770D01*
X003504Y006803D01*
X003514Y006836D01*
X003527Y006866D01*
X003544Y006895D01*
X003565Y006922D01*
X003588Y006946D01*
X003614Y006967D01*
X003642Y006985D01*
X003673Y006999D01*
X003704Y007010D01*
X003737Y007017D01*
X003771Y007020D01*
X003804Y007019D01*
X003837Y007014D01*
X003870Y007005D01*
X003901Y006992D01*
X003930Y006976D01*
X003957Y006957D01*
X003982Y006934D01*
X004004Y006909D01*
X004023Y006881D01*
X004038Y006851D01*
X004050Y006820D01*
X004058Y006787D01*
X004062Y006754D01*
X004062Y006720D01*
X004058Y006687D01*
X004050Y006654D01*
X004038Y006623D01*
X004023Y006593D01*
X004004Y006565D01*
X003982Y006540D01*
X003957Y006517D01*
X003930Y006498D01*
X003901Y006482D01*
X003870Y006469D01*
X003837Y006460D01*
X003804Y006455D01*
X003771Y006454D01*
X003737Y006457D01*
X003704Y006464D01*
X003673Y006475D01*
X003642Y006489D01*
X003614Y006507D01*
X003588Y006528D01*
X003565Y006552D01*
X003544Y006579D01*
X003527Y006608D01*
X003514Y006638D01*
X003504Y006671D01*
X003498Y006704D01*
X003496Y006737D01*
X007026Y018742D02*
X007074Y018772D01*
X007119Y018805D01*
X007162Y018841D01*
X007203Y018879D01*
X007240Y018921D01*
X007275Y018965D01*
X007306Y019011D01*
X007335Y019060D01*
X007359Y019110D01*
X007380Y019162D01*
X007398Y019216D01*
X007411Y019270D01*
X007421Y019325D01*
X007427Y019381D01*
X007429Y019437D01*
X006253Y018731D02*
X006206Y018758D01*
X006161Y018788D01*
X006118Y018821D01*
X006078Y018857D01*
X006040Y018896D01*
X006005Y018937D01*
X005972Y018980D01*
X005943Y019025D01*
X005917Y019073D01*
X005894Y019122D01*
X005874Y019172D01*
X005858Y019223D01*
X005845Y019276D01*
X005836Y019329D01*
X005831Y019383D01*
X005829Y019437D01*
X007146Y020048D02*
X007185Y020012D01*
X007223Y019973D01*
X007257Y019933D01*
X007289Y019890D01*
X007317Y019845D01*
X007343Y019798D01*
X007366Y019749D01*
X007385Y019699D01*
X007401Y019648D01*
X007413Y019596D01*
X007422Y019544D01*
X007427Y019490D01*
X007429Y019437D01*
X006117Y020052D02*
X006077Y020016D01*
X006039Y019977D01*
X006004Y019936D01*
X005972Y019893D01*
X005942Y019848D01*
X005916Y019801D01*
X005894Y019752D01*
X005874Y019701D01*
X005858Y019650D01*
X005845Y019598D01*
X005836Y019544D01*
X005831Y019491D01*
X005829Y019437D01*
X015976Y018742D02*
X016024Y018772D01*
X016069Y018805D01*
X016112Y018841D01*
X016153Y018879D01*
X016190Y018921D01*
X016225Y018965D01*
X016256Y019011D01*
X016285Y019060D01*
X016309Y019110D01*
X016330Y019162D01*
X016348Y019216D01*
X016361Y019270D01*
X016371Y019325D01*
X016377Y019381D01*
X016379Y019437D01*
X015203Y018731D02*
X015156Y018758D01*
X015111Y018788D01*
X015068Y018821D01*
X015028Y018857D01*
X014990Y018896D01*
X014955Y018937D01*
X014922Y018980D01*
X014893Y019025D01*
X014867Y019073D01*
X014844Y019122D01*
X014824Y019172D01*
X014808Y019223D01*
X014795Y019276D01*
X014786Y019329D01*
X014781Y019383D01*
X014779Y019437D01*
X016096Y020048D02*
X016135Y020012D01*
X016173Y019973D01*
X016207Y019933D01*
X016239Y019890D01*
X016267Y019845D01*
X016293Y019798D01*
X016316Y019749D01*
X016335Y019699D01*
X016351Y019648D01*
X016363Y019596D01*
X016372Y019544D01*
X016377Y019490D01*
X016379Y019437D01*
X015067Y020052D02*
X015027Y020016D01*
X014989Y019977D01*
X014954Y019936D01*
X014922Y019893D01*
X014892Y019848D01*
X014866Y019801D01*
X014844Y019752D01*
X014824Y019701D01*
X014808Y019650D01*
X014795Y019598D01*
X014786Y019544D01*
X014781Y019491D01*
X014779Y019437D01*
D14*
X015947Y018963D02*
X015982Y018993D01*
X016015Y019024D01*
X016045Y019059D01*
X016072Y019095D01*
X016096Y019133D01*
X016118Y019173D01*
X016136Y019215D01*
X016152Y019258D01*
X016164Y019302D01*
X016172Y019346D01*
X016177Y019392D01*
X016179Y019437D01*
X015219Y018957D02*
X015183Y018986D01*
X015149Y019018D01*
X015118Y019053D01*
X015090Y019089D01*
X015065Y019128D01*
X015042Y019169D01*
X015023Y019211D01*
X015007Y019254D01*
X014995Y019299D01*
X014986Y019345D01*
X014981Y019391D01*
X014979Y019437D01*
X015947Y019911D02*
X015982Y019881D01*
X016015Y019850D01*
X016045Y019815D01*
X016072Y019779D01*
X016096Y019741D01*
X016118Y019701D01*
X016136Y019659D01*
X016152Y019616D01*
X016164Y019572D01*
X016172Y019528D01*
X016177Y019482D01*
X016179Y019437D01*
X015230Y019925D02*
X015193Y019896D01*
X015158Y019864D01*
X015125Y019829D01*
X015095Y019792D01*
X015069Y019753D01*
X015046Y019712D01*
X015025Y019668D01*
X015009Y019624D01*
X014996Y019578D01*
X014987Y019532D01*
X014981Y019484D01*
X014979Y019437D01*
X015079Y009337D02*
X015029Y009287D01*
X013129Y009287D01*
X013079Y009337D01*
X012929Y009337D01*
X012912Y009335D01*
X012895Y009331D01*
X012879Y009324D01*
X012865Y009314D01*
X012852Y009301D01*
X012842Y009287D01*
X012835Y009271D01*
X012831Y009254D01*
X012829Y009237D01*
X012829Y008537D01*
X012831Y008520D01*
X012835Y008503D01*
X012842Y008487D01*
X012852Y008473D01*
X012865Y008460D01*
X012879Y008450D01*
X012895Y008443D01*
X012912Y008439D01*
X012929Y008437D01*
X013079Y008437D01*
X013129Y008487D01*
X015029Y008487D01*
X015079Y008437D01*
X015229Y008437D01*
X015246Y008439D01*
X015263Y008443D01*
X015279Y008450D01*
X015293Y008460D01*
X015306Y008473D01*
X015316Y008487D01*
X015323Y008503D01*
X015327Y008520D01*
X015329Y008537D01*
X015329Y009237D01*
X015327Y009254D01*
X015323Y009271D01*
X015316Y009287D01*
X015306Y009301D01*
X015293Y009314D01*
X015279Y009324D01*
X015263Y009331D01*
X015246Y009335D01*
X015229Y009337D01*
X015079Y009337D01*
X015079Y008287D02*
X015029Y008237D01*
X013129Y008237D01*
X013079Y008287D01*
X012929Y008287D01*
X012912Y008285D01*
X012895Y008281D01*
X012879Y008274D01*
X012865Y008264D01*
X012852Y008251D01*
X012842Y008237D01*
X012835Y008221D01*
X012831Y008204D01*
X012829Y008187D01*
X012829Y007487D01*
X012831Y007470D01*
X012835Y007453D01*
X012842Y007437D01*
X012852Y007423D01*
X012865Y007410D01*
X012879Y007400D01*
X012895Y007393D01*
X012912Y007389D01*
X012929Y007387D01*
X013079Y007387D01*
X013129Y007437D01*
X015029Y007437D01*
X015079Y007387D01*
X015229Y007387D01*
X015246Y007389D01*
X015263Y007393D01*
X015279Y007400D01*
X015293Y007410D01*
X015306Y007423D01*
X015316Y007437D01*
X015323Y007453D01*
X015327Y007470D01*
X015329Y007487D01*
X015329Y008187D01*
X015327Y008204D01*
X015323Y008221D01*
X015316Y008237D01*
X015306Y008251D01*
X015293Y008264D01*
X015279Y008274D01*
X015263Y008281D01*
X015246Y008285D01*
X015229Y008287D01*
X015079Y008287D01*
X015079Y007237D02*
X015029Y007187D01*
X013129Y007187D01*
X013079Y007237D01*
X012929Y007237D01*
X012912Y007235D01*
X012895Y007231D01*
X012879Y007224D01*
X012865Y007214D01*
X012852Y007201D01*
X012842Y007187D01*
X012835Y007171D01*
X012831Y007154D01*
X012829Y007137D01*
X012829Y006437D01*
X012831Y006420D01*
X012835Y006403D01*
X012842Y006387D01*
X012852Y006373D01*
X012865Y006360D01*
X012879Y006350D01*
X012895Y006343D01*
X012912Y006339D01*
X012929Y006337D01*
X013079Y006337D01*
X013129Y006387D01*
X015029Y006387D01*
X015079Y006337D01*
X015229Y006337D01*
X015246Y006339D01*
X015263Y006343D01*
X015279Y006350D01*
X015293Y006360D01*
X015306Y006373D01*
X015316Y006387D01*
X015323Y006403D01*
X015327Y006420D01*
X015329Y006437D01*
X015329Y007137D01*
X015327Y007154D01*
X015323Y007171D01*
X015316Y007187D01*
X015306Y007201D01*
X015293Y007214D01*
X015279Y007224D01*
X015263Y007231D01*
X015246Y007235D01*
X015229Y007237D01*
X015079Y007237D01*
X015079Y006187D02*
X015029Y006137D01*
X013129Y006137D01*
X013079Y006187D01*
X012929Y006187D01*
X012912Y006185D01*
X012895Y006181D01*
X012879Y006174D01*
X012865Y006164D01*
X012852Y006151D01*
X012842Y006137D01*
X012835Y006121D01*
X012831Y006104D01*
X012829Y006087D01*
X012829Y005387D01*
X012831Y005370D01*
X012835Y005353D01*
X012842Y005337D01*
X012852Y005323D01*
X012865Y005310D01*
X012879Y005300D01*
X012895Y005293D01*
X012912Y005289D01*
X012929Y005287D01*
X013079Y005287D01*
X013129Y005337D01*
X015029Y005337D01*
X015079Y005287D01*
X015229Y005287D01*
X015246Y005289D01*
X015263Y005293D01*
X015279Y005300D01*
X015293Y005310D01*
X015306Y005323D01*
X015316Y005337D01*
X015323Y005353D01*
X015327Y005370D01*
X015329Y005387D01*
X015329Y006087D01*
X015327Y006104D01*
X015323Y006121D01*
X015316Y006137D01*
X015306Y006151D01*
X015293Y006164D01*
X015279Y006174D01*
X015263Y006181D01*
X015246Y006185D01*
X015229Y006187D01*
X015079Y006187D01*
X012879Y003687D02*
X012579Y003687D01*
X012729Y003837D02*
X012729Y003537D01*
X010679Y002487D02*
X010681Y002567D01*
X010687Y002646D01*
X010697Y002725D01*
X010711Y002804D01*
X010728Y002882D01*
X010750Y002959D01*
X010775Y003034D01*
X010805Y003108D01*
X010837Y003181D01*
X010874Y003252D01*
X010914Y003321D01*
X010957Y003388D01*
X011004Y003453D01*
X011053Y003515D01*
X011106Y003575D01*
X011162Y003632D01*
X011220Y003687D01*
X011281Y003738D01*
X011345Y003786D01*
X011411Y003831D01*
X011479Y003873D01*
X011549Y003911D01*
X011621Y003945D01*
X011694Y003976D01*
X011769Y004004D01*
X011846Y004027D01*
X011923Y004047D01*
X012001Y004063D01*
X012080Y004075D01*
X012159Y004083D01*
X012239Y004087D01*
X012319Y004087D01*
X012399Y004083D01*
X012478Y004075D01*
X012557Y004063D01*
X012635Y004047D01*
X012712Y004027D01*
X012789Y004004D01*
X012864Y003976D01*
X012937Y003945D01*
X013009Y003911D01*
X013079Y003873D01*
X013147Y003831D01*
X013213Y003786D01*
X013277Y003738D01*
X013338Y003687D01*
X013396Y003632D01*
X013452Y003575D01*
X013505Y003515D01*
X013554Y003453D01*
X013601Y003388D01*
X013644Y003321D01*
X013684Y003252D01*
X013721Y003181D01*
X013753Y003108D01*
X013783Y003034D01*
X013808Y002959D01*
X013830Y002882D01*
X013847Y002804D01*
X013861Y002725D01*
X013871Y002646D01*
X013877Y002567D01*
X013879Y002487D01*
X013877Y002407D01*
X013871Y002328D01*
X013861Y002249D01*
X013847Y002170D01*
X013830Y002092D01*
X013808Y002015D01*
X013783Y001940D01*
X013753Y001866D01*
X013721Y001793D01*
X013684Y001722D01*
X013644Y001653D01*
X013601Y001586D01*
X013554Y001521D01*
X013505Y001459D01*
X013452Y001399D01*
X013396Y001342D01*
X013338Y001287D01*
X013277Y001236D01*
X013213Y001188D01*
X013147Y001143D01*
X013079Y001101D01*
X013009Y001063D01*
X012937Y001029D01*
X012864Y000998D01*
X012789Y000970D01*
X012712Y000947D01*
X012635Y000927D01*
X012557Y000911D01*
X012478Y000899D01*
X012399Y000891D01*
X012319Y000887D01*
X012239Y000887D01*
X012159Y000891D01*
X012080Y000899D01*
X012001Y000911D01*
X011923Y000927D01*
X011846Y000947D01*
X011769Y000970D01*
X011694Y000998D01*
X011621Y001029D01*
X011549Y001063D01*
X011479Y001101D01*
X011411Y001143D01*
X011345Y001188D01*
X011281Y001236D01*
X011220Y001287D01*
X011162Y001342D01*
X011106Y001399D01*
X011053Y001459D01*
X011004Y001521D01*
X010957Y001586D01*
X010914Y001653D01*
X010874Y001722D01*
X010837Y001793D01*
X010805Y001866D01*
X010775Y001940D01*
X010750Y002015D01*
X010728Y002092D01*
X010711Y002170D01*
X010697Y002249D01*
X010687Y002328D01*
X010681Y002407D01*
X010679Y002487D01*
X009629Y003687D02*
X009329Y003687D01*
X009479Y003837D02*
X009479Y003537D01*
X007429Y002487D02*
X007431Y002567D01*
X007437Y002646D01*
X007447Y002725D01*
X007461Y002804D01*
X007478Y002882D01*
X007500Y002959D01*
X007525Y003034D01*
X007555Y003108D01*
X007587Y003181D01*
X007624Y003252D01*
X007664Y003321D01*
X007707Y003388D01*
X007754Y003453D01*
X007803Y003515D01*
X007856Y003575D01*
X007912Y003632D01*
X007970Y003687D01*
X008031Y003738D01*
X008095Y003786D01*
X008161Y003831D01*
X008229Y003873D01*
X008299Y003911D01*
X008371Y003945D01*
X008444Y003976D01*
X008519Y004004D01*
X008596Y004027D01*
X008673Y004047D01*
X008751Y004063D01*
X008830Y004075D01*
X008909Y004083D01*
X008989Y004087D01*
X009069Y004087D01*
X009149Y004083D01*
X009228Y004075D01*
X009307Y004063D01*
X009385Y004047D01*
X009462Y004027D01*
X009539Y004004D01*
X009614Y003976D01*
X009687Y003945D01*
X009759Y003911D01*
X009829Y003873D01*
X009897Y003831D01*
X009963Y003786D01*
X010027Y003738D01*
X010088Y003687D01*
X010146Y003632D01*
X010202Y003575D01*
X010255Y003515D01*
X010304Y003453D01*
X010351Y003388D01*
X010394Y003321D01*
X010434Y003252D01*
X010471Y003181D01*
X010503Y003108D01*
X010533Y003034D01*
X010558Y002959D01*
X010580Y002882D01*
X010597Y002804D01*
X010611Y002725D01*
X010621Y002646D01*
X010627Y002567D01*
X010629Y002487D01*
X010627Y002407D01*
X010621Y002328D01*
X010611Y002249D01*
X010597Y002170D01*
X010580Y002092D01*
X010558Y002015D01*
X010533Y001940D01*
X010503Y001866D01*
X010471Y001793D01*
X010434Y001722D01*
X010394Y001653D01*
X010351Y001586D01*
X010304Y001521D01*
X010255Y001459D01*
X010202Y001399D01*
X010146Y001342D01*
X010088Y001287D01*
X010027Y001236D01*
X009963Y001188D01*
X009897Y001143D01*
X009829Y001101D01*
X009759Y001063D01*
X009687Y001029D01*
X009614Y000998D01*
X009539Y000970D01*
X009462Y000947D01*
X009385Y000927D01*
X009307Y000911D01*
X009228Y000899D01*
X009149Y000891D01*
X009069Y000887D01*
X008989Y000887D01*
X008909Y000891D01*
X008830Y000899D01*
X008751Y000911D01*
X008673Y000927D01*
X008596Y000947D01*
X008519Y000970D01*
X008444Y000998D01*
X008371Y001029D01*
X008299Y001063D01*
X008229Y001101D01*
X008161Y001143D01*
X008095Y001188D01*
X008031Y001236D01*
X007970Y001287D01*
X007912Y001342D01*
X007856Y001399D01*
X007803Y001459D01*
X007754Y001521D01*
X007707Y001586D01*
X007664Y001653D01*
X007624Y001722D01*
X007587Y001793D01*
X007555Y001866D01*
X007525Y001940D01*
X007500Y002015D01*
X007478Y002092D01*
X007461Y002170D01*
X007447Y002249D01*
X007437Y002328D01*
X007431Y002407D01*
X007429Y002487D01*
X007229Y001837D02*
X007229Y004137D01*
X003229Y004137D01*
X003229Y003387D01*
X003268Y003385D01*
X003307Y003379D01*
X003345Y003370D01*
X003382Y003357D01*
X003418Y003340D01*
X003451Y003320D01*
X003483Y003296D01*
X003512Y003270D01*
X003538Y003241D01*
X003562Y003209D01*
X003582Y003176D01*
X003599Y003140D01*
X003612Y003103D01*
X003621Y003065D01*
X003627Y003026D01*
X003629Y002987D01*
X003627Y002948D01*
X003621Y002909D01*
X003612Y002871D01*
X003599Y002834D01*
X003582Y002798D01*
X003562Y002765D01*
X003538Y002733D01*
X003512Y002704D01*
X003483Y002678D01*
X003451Y002654D01*
X003418Y002634D01*
X003382Y002617D01*
X003345Y002604D01*
X003307Y002595D01*
X003268Y002589D01*
X003229Y002587D01*
X003229Y001837D01*
X007229Y001837D01*
X007379Y004487D02*
X008679Y004487D01*
X008705Y004489D01*
X008731Y004494D01*
X008756Y004502D01*
X008779Y004514D01*
X008801Y004528D01*
X008820Y004546D01*
X008838Y004565D01*
X008852Y004587D01*
X008864Y004610D01*
X008872Y004635D01*
X008877Y004661D01*
X008879Y004687D01*
X008879Y005187D01*
X008877Y005213D01*
X008872Y005239D01*
X008864Y005264D01*
X008852Y005287D01*
X008838Y005309D01*
X008820Y005328D01*
X008801Y005346D01*
X008779Y005360D01*
X008756Y005372D01*
X008731Y005380D01*
X008705Y005385D01*
X008679Y005387D01*
X007379Y005387D01*
X007353Y005385D01*
X007327Y005380D01*
X007302Y005372D01*
X007279Y005360D01*
X007257Y005346D01*
X007238Y005328D01*
X007220Y005309D01*
X007206Y005287D01*
X007194Y005264D01*
X007186Y005239D01*
X007181Y005213D01*
X007179Y005187D01*
X007179Y004687D01*
X007181Y004661D01*
X007186Y004635D01*
X007194Y004610D01*
X007206Y004587D01*
X007220Y004565D01*
X007238Y004546D01*
X007257Y004528D01*
X007279Y004514D01*
X007302Y004502D01*
X007327Y004494D01*
X007353Y004489D01*
X007379Y004487D01*
X008879Y005937D02*
X008879Y006087D01*
X008929Y006137D01*
X008929Y008037D01*
X008879Y008087D01*
X008879Y008237D01*
X008881Y008254D01*
X008885Y008271D01*
X008892Y008287D01*
X008902Y008301D01*
X008915Y008314D01*
X008929Y008324D01*
X008945Y008331D01*
X008962Y008335D01*
X008979Y008337D01*
X009679Y008337D01*
X009696Y008335D01*
X009713Y008331D01*
X009729Y008324D01*
X009743Y008314D01*
X009756Y008301D01*
X009766Y008287D01*
X009773Y008271D01*
X009777Y008254D01*
X009779Y008237D01*
X009779Y008087D01*
X009729Y008037D01*
X009729Y006137D01*
X009779Y006087D01*
X009779Y005937D01*
X009777Y005920D01*
X009773Y005903D01*
X009766Y005887D01*
X009756Y005873D01*
X009743Y005860D01*
X009729Y005850D01*
X009713Y005843D01*
X009696Y005839D01*
X009679Y005837D01*
X008979Y005837D01*
X008962Y005839D01*
X008945Y005843D01*
X008929Y005850D01*
X008915Y005860D01*
X008902Y005873D01*
X008892Y005887D01*
X008885Y005903D01*
X008881Y005920D01*
X008879Y005937D01*
X008441Y006718D02*
X008441Y008357D01*
X007717Y008357D01*
X007717Y006718D01*
X008441Y006718D01*
X008079Y006937D02*
X008079Y007537D01*
X007829Y007537D01*
X008079Y007537D02*
X007829Y007137D01*
X008329Y007137D01*
X008079Y007537D01*
X008329Y007537D01*
X008079Y007537D02*
X008079Y007787D01*
X009879Y008087D02*
X009879Y008237D01*
X009881Y008254D01*
X009885Y008271D01*
X009892Y008287D01*
X009902Y008301D01*
X009915Y008314D01*
X009929Y008324D01*
X009945Y008331D01*
X009962Y008335D01*
X009979Y008337D01*
X010679Y008337D01*
X010696Y008335D01*
X010713Y008331D01*
X010729Y008324D01*
X010743Y008314D01*
X010756Y008301D01*
X010766Y008287D01*
X010773Y008271D01*
X010777Y008254D01*
X010779Y008237D01*
X010779Y008087D01*
X010729Y008037D01*
X010729Y006137D01*
X010779Y006087D01*
X010779Y005937D01*
X010829Y005937D02*
X010829Y006087D01*
X010879Y006137D01*
X010879Y008037D01*
X010829Y008087D01*
X010829Y008237D01*
X010831Y008254D01*
X010835Y008271D01*
X010842Y008287D01*
X010852Y008301D01*
X010865Y008314D01*
X010879Y008324D01*
X010895Y008331D01*
X010912Y008335D01*
X010929Y008337D01*
X011629Y008337D01*
X011646Y008335D01*
X011663Y008331D01*
X011679Y008324D01*
X011693Y008314D01*
X011706Y008301D01*
X011716Y008287D01*
X011723Y008271D01*
X011727Y008254D01*
X011729Y008237D01*
X011729Y008087D01*
X011679Y008037D01*
X011679Y006137D01*
X011729Y006087D01*
X011729Y005937D01*
X011727Y005920D01*
X011723Y005903D01*
X011716Y005887D01*
X011706Y005873D01*
X011693Y005860D01*
X011679Y005850D01*
X011663Y005843D01*
X011646Y005839D01*
X011629Y005837D01*
X010929Y005837D01*
X010912Y005839D01*
X010895Y005843D01*
X010879Y005850D01*
X010865Y005860D01*
X010852Y005873D01*
X010842Y005887D01*
X010835Y005903D01*
X010831Y005920D01*
X010829Y005937D01*
X010779Y005937D02*
X010777Y005920D01*
X010773Y005903D01*
X010766Y005887D01*
X010756Y005873D01*
X010743Y005860D01*
X010729Y005850D01*
X010713Y005843D01*
X010696Y005839D01*
X010679Y005837D01*
X009979Y005837D01*
X009962Y005839D01*
X009945Y005843D01*
X009929Y005850D01*
X009915Y005860D01*
X009902Y005873D01*
X009892Y005887D01*
X009885Y005903D01*
X009881Y005920D01*
X009879Y005937D01*
X009879Y006087D01*
X009929Y006137D01*
X009929Y008037D01*
X009879Y008087D01*
X006129Y012437D02*
X006129Y012587D01*
X006079Y012637D01*
X006079Y014537D01*
X006129Y014587D01*
X006129Y014737D01*
X006127Y014754D01*
X006123Y014771D01*
X006116Y014787D01*
X006106Y014801D01*
X006093Y014814D01*
X006079Y014824D01*
X006063Y014831D01*
X006046Y014835D01*
X006029Y014837D01*
X005329Y014837D01*
X005312Y014835D01*
X005295Y014831D01*
X005279Y014824D01*
X005265Y014814D01*
X005252Y014801D01*
X005242Y014787D01*
X005235Y014771D01*
X005231Y014754D01*
X005229Y014737D01*
X005229Y014587D01*
X005279Y014537D01*
X005279Y012637D01*
X005229Y012587D01*
X005229Y012437D01*
X005231Y012420D01*
X005235Y012403D01*
X005242Y012387D01*
X005252Y012373D01*
X005265Y012360D01*
X005279Y012350D01*
X005295Y012343D01*
X005312Y012339D01*
X005329Y012337D01*
X006029Y012337D01*
X006046Y012339D01*
X006063Y012343D01*
X006079Y012350D01*
X006093Y012360D01*
X006106Y012373D01*
X006116Y012387D01*
X006123Y012403D01*
X006127Y012420D01*
X006129Y012437D01*
X005324Y011687D02*
X005166Y011687D01*
X005104Y012237D02*
X003454Y012237D01*
X003392Y011687D02*
X003234Y011687D01*
X004166Y011687D02*
X004392Y011687D01*
X005104Y012237D02*
X005141Y012186D01*
X005176Y012133D01*
X005208Y012077D01*
X005236Y012020D01*
X005260Y011961D01*
X005281Y011901D01*
X005298Y011840D01*
X005312Y011778D01*
X005321Y011715D01*
X005327Y011652D01*
X005329Y011588D01*
X005327Y011524D01*
X005321Y011461D01*
X005312Y011398D01*
X005299Y011336D01*
X005281Y011275D01*
X005261Y011215D01*
X005236Y011156D01*
X005208Y011099D01*
X005177Y011043D01*
X005143Y010990D01*
X005105Y010939D01*
X005064Y010890D01*
X005020Y010844D01*
X004974Y010800D01*
X004925Y010759D01*
X004874Y010722D01*
X004820Y010687D01*
X004765Y010656D01*
X004708Y010628D01*
X004649Y010604D01*
X004589Y010584D01*
X004929Y010287D02*
X003629Y010287D01*
X003603Y010285D01*
X003577Y010280D01*
X003552Y010272D01*
X003529Y010260D01*
X003507Y010246D01*
X003488Y010228D01*
X003470Y010209D01*
X003456Y010187D01*
X003444Y010164D01*
X003436Y010139D01*
X003431Y010113D01*
X003429Y010087D01*
X003429Y009587D01*
X003431Y009561D01*
X003436Y009535D01*
X003444Y009510D01*
X003456Y009487D01*
X003470Y009465D01*
X003488Y009446D01*
X003507Y009428D01*
X003529Y009414D01*
X003552Y009402D01*
X003577Y009394D01*
X003603Y009389D01*
X003629Y009387D01*
X004929Y009387D01*
X004955Y009389D01*
X004981Y009394D01*
X005006Y009402D01*
X005029Y009414D01*
X005051Y009428D01*
X005070Y009446D01*
X005088Y009465D01*
X005102Y009487D01*
X005114Y009510D01*
X005122Y009535D01*
X005127Y009561D01*
X005129Y009587D01*
X005129Y010087D01*
X005127Y010113D01*
X005122Y010139D01*
X005114Y010164D01*
X005102Y010187D01*
X005088Y010209D01*
X005070Y010228D01*
X005051Y010246D01*
X005029Y010260D01*
X005006Y010272D01*
X004981Y010280D01*
X004955Y010285D01*
X004929Y010287D01*
X003969Y010584D02*
X003909Y010604D01*
X003850Y010628D01*
X003793Y010656D01*
X003738Y010687D01*
X003684Y010722D01*
X003633Y010759D01*
X003584Y010800D01*
X003538Y010844D01*
X003494Y010890D01*
X003453Y010939D01*
X003415Y010990D01*
X003381Y011043D01*
X003349Y011099D01*
X003322Y011156D01*
X003297Y011215D01*
X003277Y011275D01*
X003259Y011336D01*
X003246Y011398D01*
X003237Y011461D01*
X003231Y011524D01*
X003229Y011588D01*
X003231Y011652D01*
X003237Y011715D01*
X003246Y011778D01*
X003260Y011840D01*
X003277Y011901D01*
X003298Y011961D01*
X003322Y012020D01*
X003350Y012077D01*
X003382Y012133D01*
X003417Y012186D01*
X003454Y012237D01*
X005429Y016187D02*
X005929Y016187D01*
X005955Y016189D01*
X005981Y016194D01*
X006006Y016202D01*
X006029Y016214D01*
X006051Y016228D01*
X006070Y016246D01*
X006088Y016265D01*
X006102Y016287D01*
X006114Y016310D01*
X006122Y016335D01*
X006127Y016361D01*
X006129Y016387D01*
X006129Y017687D01*
X006127Y017713D01*
X006122Y017739D01*
X006114Y017764D01*
X006102Y017787D01*
X006088Y017809D01*
X006070Y017828D01*
X006051Y017846D01*
X006029Y017860D01*
X006006Y017872D01*
X005981Y017880D01*
X005955Y017885D01*
X005929Y017887D01*
X005429Y017887D01*
X005403Y017885D01*
X005377Y017880D01*
X005352Y017872D01*
X005329Y017860D01*
X005307Y017846D01*
X005288Y017828D01*
X005270Y017809D01*
X005256Y017787D01*
X005244Y017764D01*
X005236Y017739D01*
X005231Y017713D01*
X005229Y017687D01*
X005229Y016387D01*
X005231Y016361D01*
X005236Y016335D01*
X005244Y016310D01*
X005256Y016287D01*
X005270Y016265D01*
X005288Y016246D01*
X005307Y016228D01*
X005329Y016214D01*
X005352Y016202D01*
X005377Y016194D01*
X005403Y016189D01*
X005429Y016187D01*
X006029Y019437D02*
X006031Y019484D01*
X006037Y019532D01*
X006046Y019578D01*
X006059Y019624D01*
X006075Y019668D01*
X006096Y019712D01*
X006119Y019753D01*
X006145Y019792D01*
X006175Y019829D01*
X006208Y019864D01*
X006243Y019896D01*
X006280Y019925D01*
X007229Y019437D02*
X007227Y019392D01*
X007222Y019346D01*
X007214Y019302D01*
X007202Y019258D01*
X007186Y019215D01*
X007168Y019173D01*
X007146Y019133D01*
X007122Y019095D01*
X007095Y019059D01*
X007065Y019024D01*
X007032Y018993D01*
X006997Y018963D01*
X007229Y019437D02*
X007227Y019482D01*
X007222Y019528D01*
X007214Y019572D01*
X007202Y019616D01*
X007186Y019659D01*
X007168Y019701D01*
X007146Y019741D01*
X007122Y019779D01*
X007095Y019815D01*
X007065Y019850D01*
X007032Y019881D01*
X006997Y019911D01*
X006029Y019437D02*
X006031Y019391D01*
X006036Y019345D01*
X006045Y019299D01*
X006057Y019254D01*
X006073Y019211D01*
X006092Y019169D01*
X006115Y019128D01*
X006140Y019089D01*
X006168Y019053D01*
X006199Y019018D01*
X006233Y018986D01*
X006269Y018957D01*
X014529Y002087D02*
X014279Y001837D01*
X014279Y001337D01*
X014529Y001087D01*
X015029Y001087D01*
X015279Y001337D01*
X015529Y001087D01*
X016029Y001087D01*
X016279Y001337D01*
X016279Y001837D01*
X016029Y002087D01*
X015529Y002087D01*
X015279Y001837D01*
X015279Y001337D01*
X015279Y001837D02*
X015029Y002087D01*
X014529Y002087D01*
D15*
X008159Y004637D02*
X008159Y005237D01*
X007909Y005237D02*
X007909Y004637D01*
X004409Y009537D02*
X004409Y010137D01*
X004159Y010137D02*
X004159Y009537D01*
X005379Y016907D02*
X005979Y016907D01*
X005979Y017157D02*
X005379Y017157D01*
D16*
X012659Y008887D03*
X012659Y007837D03*
X012659Y006787D03*
X012659Y005737D03*
X015499Y005737D03*
X015499Y006787D03*
X015499Y007837D03*
X015499Y008887D03*
D17*
X008073Y008087D03*
D18*
X008079Y008482D03*
X008079Y006593D03*
D19*
X009329Y005667D03*
X010329Y005667D03*
X011279Y005667D03*
X011279Y008507D03*
X010329Y008507D03*
X009329Y008507D03*
X005679Y012167D03*
X005679Y015007D03*
M02*
