G75*
%MOIN*%
%OFA0B0*%
%FSLAX24Y24*%
%IPPOS*%
%LPD*%
%AMOC8*
5,1,8,0,0,1.08239X$1,22.5*
%
%ADD10C,0.0080*%
%ADD11C,0.0600*%
%ADD12R,0.0600X0.0600*%
%ADD13C,0.0780*%
%ADD14OC8,0.0720*%
%ADD15OC8,0.0600*%
%ADD16OC8,0.0560*%
%ADD17C,0.0640*%
%ADD18C,0.0555*%
%ADD19C,0.0709*%
%ADD20OC8,0.0670*%
%ADD21C,0.0670*%
%ADD22C,0.0560*%
D10*
X002979Y000787D02*
X002979Y020387D01*
X016629Y020387D01*
X016629Y000787D01*
X002979Y000787D01*
D11*
X006848Y010066D03*
X006848Y010854D03*
X006848Y011641D03*
X006848Y012428D03*
X006848Y013216D03*
X006848Y014003D03*
X006848Y014791D03*
X006848Y015578D03*
X006848Y016365D03*
X015510Y016365D03*
X015510Y017153D03*
X015510Y015578D03*
X015510Y014791D03*
X015510Y014003D03*
X015510Y013216D03*
X015510Y012428D03*
X015510Y011641D03*
X015510Y010854D03*
X015510Y010066D03*
D12*
X006848Y017153D03*
D13*
X004579Y017537D03*
X004579Y016537D03*
X004579Y015537D03*
X004579Y014537D03*
X004579Y013537D03*
D14*
X004779Y008737D03*
X003779Y008737D03*
X005779Y008737D03*
X006779Y008737D03*
X006779Y005737D03*
X005779Y005737D03*
X004779Y005737D03*
X003779Y005737D03*
D15*
X003779Y009837D03*
X004779Y009837D03*
X007529Y004937D03*
X008529Y004937D03*
X005679Y016537D03*
X005679Y017537D03*
D16*
X006629Y018937D03*
X006629Y019937D03*
X005679Y015587D03*
X005679Y011587D03*
X004779Y011587D03*
X004279Y010837D03*
X003779Y011587D03*
X009329Y009087D03*
X010329Y009087D03*
X011279Y009087D03*
X012079Y008887D03*
X012079Y007837D03*
X012079Y006787D03*
X012079Y005737D03*
X011279Y005087D03*
X010329Y005087D03*
X009329Y005087D03*
X016079Y005737D03*
X016079Y006787D03*
X016079Y007837D03*
X016079Y008887D03*
X015579Y018937D03*
X015579Y019937D03*
D17*
X015779Y001887D02*
X015779Y001287D01*
X014779Y001287D02*
X014779Y001887D01*
D18*
X015129Y003147D03*
X015129Y004328D03*
D19*
X008079Y006037D03*
X008079Y009037D03*
D20*
X009029Y001787D03*
X012279Y001787D03*
D21*
X012279Y003187D03*
X009029Y003187D03*
D22*
X006729Y004227D02*
X006729Y004747D01*
X005729Y004747D02*
X005729Y004227D01*
X004729Y004227D02*
X004729Y004747D01*
X003729Y004747D02*
X003729Y004227D01*
X003729Y001747D02*
X003729Y001227D01*
X004729Y001227D02*
X004729Y001747D01*
X005729Y001747D02*
X005729Y001227D01*
X006729Y001227D02*
X006729Y001747D01*
M02*
