%
M48
M72
T01C0.0200
T02C0.0276
T03C0.0315
T04C0.0320
T05C0.0400
T06C0.0433
%
T01
X4979Y18187
X6279Y13587
X5379Y13087
X5879Y10387
X7379Y9687
X7479Y7987
X7779Y6987
X8979Y7487
X8179Y3687
X6179Y3187
X5679Y6687
X12479Y6087
X12779Y8987
T02
X6848Y17153
X6848Y16365
X6848Y15578
X6848Y14791
X6848Y14003
X6848Y13216
X6848Y12428
X6848Y11641
X6848Y10854
X6848Y10066
X15510Y10066
X15510Y10854
X15510Y11641
X15510Y12428
X15510Y13216
X15510Y14003
X15510Y14791
X15510Y15578
X15510Y16365
X15510Y17153
T03
X15129Y4328
X15129Y3147
T04
X5679Y17537
X5679Y16537
X5679Y15587
X6629Y18937
X6629Y19937
X5679Y11587
X4779Y11587
X4279Y10837
X3779Y11587
X3779Y9837
X3779Y8737
X4779Y8737
X4779Y9837
X5779Y8737
X6779Y8737
X6779Y5737
X7529Y4937
X6729Y4487
X5729Y4487
X4729Y4487
X3729Y4487
X3779Y5737
X4779Y5737
X5779Y5737
X8529Y4937
X9329Y5087
X10329Y5087
X11279Y5087
X12079Y5737
X12079Y6787
X12079Y7837
X12079Y8887
X11279Y9087
X10329Y9087
X9329Y9087
X9029Y3187
X9029Y1787
X6729Y1487
X5729Y1487
X4729Y1487
X3729Y1487
X12279Y1787
X12279Y3187
X16079Y5737
X16079Y6787
X16079Y7837
X16079Y8887
X15579Y18937
X15579Y19937
T05
X4579Y17537
X4579Y16537
X4579Y15537
X4579Y14537
X4579Y13537
X14779Y1587
X15779Y1587
T06
X8079Y9037
X8079Y6037
M30
