<?xml version="1.0" encoding="UTF-8" standalone="no"?>
<svg width="418.306mm" height="208.227mm"
 xmlns="http://www.w3.org/2000/svg" xmlns:xlink="http://www.w3.org/1999/xlink"  version="1.2" baseProfile="tiny">
<title>Qt Svg Document</title>
<desc>Generated with Qt</desc>
<defs>
</defs>
<g fill="none" stroke="black" stroke-width="1" fill-rule="evenodd" stroke-linecap="square" stroke-linejoin="bevel" >

<g fill="#cfcfcf" fill-opacity="1" stroke="none" transform="matrix(1,0,0,1,0,0)"
font-family="mry_KacstQurn" font-size="12" font-weight="400" font-style="normal" 
>
<path vector-effect="non-scaling-stroke" fill-rule="evenodd" d="M0,0 L1581,0 L1581,787 L0,787 L0,0"/>
</g>

<g fill="none" stroke="#000000" stroke-opacity="1" stroke-width="1" stroke-linecap="square" stroke-linejoin="bevel" transform="matrix(1,0,0,1,0,0)"
font-family="mry_KacstQurn" font-size="12" font-weight="400" font-style="normal" 
>
</g>

<g fill="none" stroke="#000000" stroke-opacity="1" stroke-width="1" stroke-linecap="square" stroke-linejoin="bevel" transform="matrix(0.999367,0,0,0.998729,0,0)"
font-family="mry_KacstQurn" font-size="12" font-weight="400" font-style="normal" 
>
</g>

<g fill="#000000" fill-opacity="1" stroke="#000000" stroke-opacity="1" stroke-width="1" stroke-linecap="square" stroke-linejoin="bevel" transform="matrix(0.999367,0,0,0.998729,0,0)"
font-family="mry_KacstQurn" font-size="12" font-weight="400" font-style="normal" 
>
<polyline fill="none" vector-effect="non-scaling-stroke" points="423.321,146.182 421.032,131.73 414.389,118.693 404.043,108.347 391.006,101.704 376.554,99.4152 362.103,101.704 349.066,108.347 338.719,118.693 332.077,131.73 329.788,146.182 332.077,160.633 338.719,173.67 349.066,184.016 362.103,190.659 376.554,192.948 391.006,190.659 404.043,184.016 414.389,173.67 421.032,160.633 423.321,146.182 " />
<polyline fill="none" vector-effect="non-scaling-stroke" points="409.182,146.182 406.698,133.696 399.626,123.11 389.04,116.038 376.554,113.554 364.068,116.038 353.483,123.11 346.41,133.696 343.926,146.182 346.41,158.668 353.483,169.253 364.068,176.326 376.554,178.809 389.04,176.326 399.626,169.253 406.698,158.668 409.182,146.182 " />
<polyline fill="none" vector-effect="non-scaling-stroke" points="347.393,132.225 362.598,117.02 " />
<polyline fill="none" vector-effect="non-scaling-stroke" points="344.622,142.686 373.059,114.249 " />
<polyline fill="none" vector-effect="non-scaling-stroke" points="344.738,150.261 380.633,114.365 " />
<polyline fill="none" vector-effect="non-scaling-stroke" points="346.014,156.675 387.048,115.641 " />
<polyline fill="none" vector-effect="non-scaling-stroke" points="348.534,161.846 392.218,118.161 " />
<polyline fill="none" vector-effect="non-scaling-stroke" points="351.614,166.456 396.828,121.241 " />
<polyline fill="none" vector-effect="non-scaling-stroke" points="355.296,170.464 400.837,124.923 " />
<polyline fill="none" vector-effect="non-scaling-stroke" points="359.906,173.545 403.917,129.533 " />
<polyline fill="none" vector-effect="non-scaling-stroke" points="364.691,176.45 406.822,134.319 " />
<polyline fill="none" vector-effect="non-scaling-stroke" points="371.106,177.726 408.098,140.733 " />
<polyline fill="none" vector-effect="non-scaling-stroke" points="378,178.522 408.894,147.628 " />
<polyline fill="none" vector-effect="non-scaling-stroke" points="387.6,176.612 406.985,157.228 " />
<polyline fill="none" vector-effect="non-scaling-stroke" points="366.763,212.658 366.763,201.782 " />
<polyline fill="none" vector-effect="non-scaling-stroke" points="361.325,207.22 372.201,207.22 " />
<polyline fill="none" vector-effect="non-scaling-stroke" points="377.639,215.377 383.077,215.377 " />
<polyline fill="none" vector-effect="non-scaling-stroke" points="380.358,215.377 380.358,199.063 377.639,201.782 " />
<polyline fill="none" vector-effect="non-scaling-stroke" points="642.199,146.182 639.91,131.73 633.267,118.693 622.921,108.347 609.884,101.704 595.432,99.4152 580.981,101.704 567.944,108.347 557.598,118.693 550.955,131.73 548.666,146.182 550.955,160.633 557.598,173.67 567.944,184.016 580.981,190.659 595.432,192.948 609.884,190.659 622.921,184.016 633.267,173.67 639.91,160.633 642.199,146.182 " />
<polyline fill="none" vector-effect="non-scaling-stroke" points="628.06,146.182 625.576,133.696 618.504,123.11 607.918,116.038 595.432,113.554 582.946,116.038 572.361,123.11 565.288,133.696 562.805,146.182 565.288,158.668 572.361,169.253 582.946,176.326 595.432,178.809 607.918,176.326 618.504,169.253 625.576,158.668 628.06,146.182 " />
<polyline fill="none" vector-effect="non-scaling-stroke" points="566.271,132.225 581.476,117.02 " />
<polyline fill="none" vector-effect="non-scaling-stroke" points="563.5,142.686 591.937,114.249 " />
<polyline fill="none" vector-effect="non-scaling-stroke" points="563.616,150.261 599.511,114.365 " />
<polyline fill="none" vector-effect="non-scaling-stroke" points="564.892,156.675 605.926,115.641 " />
<polyline fill="none" vector-effect="non-scaling-stroke" points="567.412,161.846 611.097,118.161 " />
<polyline fill="none" vector-effect="non-scaling-stroke" points="570.492,166.456 615.707,121.241 " />
<polyline fill="none" vector-effect="non-scaling-stroke" points="574.174,170.464 619.715,124.923 " />
<polyline fill="none" vector-effect="non-scaling-stroke" points="578.784,173.545 622.795,129.533 " />
<polyline fill="none" vector-effect="non-scaling-stroke" points="583.57,176.45 625.7,134.319 " />
<polyline fill="none" vector-effect="non-scaling-stroke" points="589.984,177.726 626.976,140.733 " />
<polyline fill="none" vector-effect="non-scaling-stroke" points="596.878,178.522 627.772,147.628 " />
<polyline fill="none" vector-effect="non-scaling-stroke" points="606.478,176.612 625.863,157.228 " />
<polyline fill="none" vector-effect="non-scaling-stroke" points="585.641,212.658 585.641,201.782 " />
<polyline fill="none" vector-effect="non-scaling-stroke" points="580.203,207.22 591.079,207.22 " />
<polyline fill="none" vector-effect="non-scaling-stroke" points="596.517,201.782 599.236,199.063 604.674,199.063 607.393,201.782 607.393,204.501 604.674,207.22 599.236,207.22 596.517,209.939 596.517,215.377 607.393,215.377 " />
<polyline fill="none" vector-effect="non-scaling-stroke" points="861.077,146.182 858.788,131.73 852.145,118.693 841.799,108.347 828.762,101.704 814.31,99.4152 799.859,101.704 786.822,108.347 776.475,118.693 769.833,131.73 767.544,146.182 769.833,160.633 776.475,173.67 786.822,184.016 799.859,190.659 814.31,192.948 828.762,190.659 841.799,184.016 852.145,173.67 858.788,160.633 861.077,146.182 " />
<polyline fill="none" vector-effect="non-scaling-stroke" points="846.938,146.182 844.454,133.696 837.381,123.11 826.796,116.038 814.31,113.554 801.824,116.038 791.239,123.11 784.166,133.696 781.682,146.182 784.166,158.668 791.239,169.253 801.824,176.326 814.31,178.809 826.796,176.326 837.381,169.253 844.454,158.668 846.938,146.182 " />
</g>

<g fill="#ff0000" fill-opacity="1" stroke="#ff0000" stroke-opacity="1" stroke-width="1" stroke-linecap="square" stroke-linejoin="bevel" transform="matrix(0.999367,0,0,0.998729,0,0)"
font-family="mry_KacstQurn" font-size="12" font-weight="400" font-style="normal" 
>
<polyline fill="none" vector-effect="non-scaling-stroke" points="785.149,132.225 800.354,117.02 " />
<polyline fill="none" vector-effect="non-scaling-stroke" points="782.378,142.686 810.815,114.249 " />
<polyline fill="none" vector-effect="non-scaling-stroke" points="782.494,150.261 818.389,114.365 " />
<polyline fill="none" vector-effect="non-scaling-stroke" points="783.77,156.675 824.804,115.641 " />
<polyline fill="none" vector-effect="non-scaling-stroke" points="786.29,161.846 829.974,118.161 " />
<polyline fill="none" vector-effect="non-scaling-stroke" points="789.37,166.456 834.584,121.241 " />
<polyline fill="none" vector-effect="non-scaling-stroke" points="793.052,170.464 838.593,124.923 " />
<polyline fill="none" vector-effect="non-scaling-stroke" points="797.662,173.545 841.673,129.533 " />
<polyline fill="none" vector-effect="non-scaling-stroke" points="802.447,176.45 844.578,134.319 " />
<polyline fill="none" vector-effect="non-scaling-stroke" points="808.862,177.726 845.854,140.733 " />
<polyline fill="none" vector-effect="non-scaling-stroke" points="815.756,178.522 846.65,147.628 " />
<polyline fill="none" vector-effect="non-scaling-stroke" points="825.356,176.612 844.741,157.228 " />
</g>

<g fill="#000000" fill-opacity="1" stroke="#000000" stroke-opacity="1" stroke-width="1" stroke-linecap="square" stroke-linejoin="bevel" transform="matrix(0.999367,0,0,0.998729,0,0)"
font-family="mry_KacstQurn" font-size="12" font-weight="400" font-style="normal" 
>
<polyline fill="none" vector-effect="non-scaling-stroke" points="804.519,212.658 804.519,201.782 " />
<polyline fill="none" vector-effect="non-scaling-stroke" points="799.081,207.22 809.957,207.22 " />
<polyline fill="none" vector-effect="non-scaling-stroke" points="815.395,212.658 818.114,215.377 823.552,215.377 826.271,212.658 826.271,209.939 823.552,207.22 820.833,207.22 " />
<polyline fill="none" vector-effect="non-scaling-stroke" points="823.552,207.22 826.271,204.501 826.271,201.782 823.552,199.063 818.114,199.063 815.395,201.782 " />
<polyline fill="none" vector-effect="non-scaling-stroke" points="423.32,301.163 421.032,286.712 414.389,273.675 404.043,263.329 391.006,256.686 376.554,254.397 362.102,256.686 349.065,263.329 338.719,273.675 332.076,286.712 329.788,301.163 332.076,315.615 338.719,328.652 349.065,338.998 362.102,345.641 376.554,347.93 391.006,345.641 404.043,338.998 414.389,328.652 421.032,315.615 423.32,301.163 " />
<polyline fill="none" vector-effect="non-scaling-stroke" points="409.182,301.163 406.698,288.677 399.625,278.092 389.04,271.019 376.554,268.536 364.068,271.019 353.483,278.092 346.41,288.677 343.926,301.163 346.41,313.65 353.483,324.235 364.068,331.308 376.554,333.791 389.04,331.308 399.625,324.235 406.698,313.65 409.182,301.163 " />
<polyline fill="none" vector-effect="non-scaling-stroke" points="347.392,287.207 362.597,272.002 " />
<polyline fill="none" vector-effect="non-scaling-stroke" points="344.621,297.668 373.059,269.231 " />
<polyline fill="none" vector-effect="non-scaling-stroke" points="344.738,305.243 380.633,269.347 " />
<polyline fill="none" vector-effect="non-scaling-stroke" points="346.014,311.657 387.048,270.623 " />
<polyline fill="none" vector-effect="non-scaling-stroke" points="348.533,316.828 392.218,273.143 " />
<polyline fill="none" vector-effect="non-scaling-stroke" points="351.614,321.438 396.828,276.223 " />
<polyline fill="none" vector-effect="non-scaling-stroke" points="355.296,325.446 400.837,279.905 " />
<polyline fill="none" vector-effect="non-scaling-stroke" points="359.906,328.527 403.917,284.515 " />
<polyline fill="none" vector-effect="non-scaling-stroke" points="364.691,331.432 406.822,289.301 " />
<polyline fill="none" vector-effect="non-scaling-stroke" points="371.106,332.707 408.098,295.715 " />
<polyline fill="none" vector-effect="non-scaling-stroke" points="378,333.504 408.894,302.61 " />
<polyline fill="none" vector-effect="non-scaling-stroke" points="387.6,331.594 406.985,312.21 " />
<polyline fill="none" vector-effect="non-scaling-stroke" points="366.763,367.64 366.763,356.764 " />
<polyline fill="none" vector-effect="non-scaling-stroke" points="361.325,362.202 372.2,362.202 " />
<polyline fill="none" vector-effect="non-scaling-stroke" points="377.638,370.359 383.076,370.359 " />
<polyline fill="none" vector-effect="non-scaling-stroke" points="380.357,370.359 380.357,354.045 377.638,356.764 " />
<polyline fill="none" vector-effect="non-scaling-stroke" points="642.199,301.163 639.91,286.712 633.267,273.675 622.921,263.329 609.884,256.686 595.432,254.397 580.981,256.686 567.944,263.329 557.597,273.675 550.955,286.712 548.666,301.163 550.955,315.615 557.597,328.652 567.944,338.998 580.981,345.641 595.432,347.93 609.884,345.641 622.921,338.998 633.267,328.652 639.91,315.615 642.199,301.163 " />
<polyline fill="none" vector-effect="non-scaling-stroke" points="628.06,301.163 625.576,288.677 618.503,278.092 607.918,271.019 595.432,268.536 582.946,271.019 572.361,278.092 565.288,288.677 562.804,301.163 565.288,313.65 572.361,324.235 582.946,331.308 595.432,333.791 607.918,331.308 618.503,324.235 625.576,313.65 628.06,301.163 " />
<polyline fill="none" vector-effect="non-scaling-stroke" points="566.271,287.207 581.476,272.002 " />
<polyline fill="none" vector-effect="non-scaling-stroke" points="563.5,297.668 591.937,269.231 " />
<polyline fill="none" vector-effect="non-scaling-stroke" points="563.616,305.243 599.511,269.347 " />
<polyline fill="none" vector-effect="non-scaling-stroke" points="564.892,311.657 605.926,270.623 " />
<polyline fill="none" vector-effect="non-scaling-stroke" points="567.412,316.828 611.096,273.143 " />
<polyline fill="none" vector-effect="non-scaling-stroke" points="570.492,321.438 615.706,276.223 " />
<polyline fill="none" vector-effect="non-scaling-stroke" points="574.174,325.446 619.715,279.905 " />
<polyline fill="none" vector-effect="non-scaling-stroke" points="578.784,328.527 622.795,284.515 " />
<polyline fill="none" vector-effect="non-scaling-stroke" points="583.569,331.432 625.7,289.301 " />
<polyline fill="none" vector-effect="non-scaling-stroke" points="589.984,332.707 626.976,295.715 " />
<polyline fill="none" vector-effect="non-scaling-stroke" points="596.878,333.504 627.772,302.61 " />
<polyline fill="none" vector-effect="non-scaling-stroke" points="606.478,331.594 625.863,312.21 " />
<polyline fill="none" vector-effect="non-scaling-stroke" points="585.641,367.64 585.641,356.764 " />
<polyline fill="none" vector-effect="non-scaling-stroke" points="580.203,362.202 591.079,362.202 " />
<polyline fill="none" vector-effect="non-scaling-stroke" points="596.517,356.764 599.236,354.045 604.674,354.045 607.393,356.764 607.393,359.483 604.674,362.202 599.236,362.202 596.517,364.921 596.517,370.359 607.393,370.359 " />
<polyline fill="none" vector-effect="non-scaling-stroke" points="861.076,301.163 858.787,286.712 852.145,273.675 841.799,263.329 828.762,256.686 814.31,254.397 799.858,256.686 786.821,263.329 776.475,273.675 769.832,286.712 767.544,301.163 769.832,315.615 776.475,328.652 786.821,338.998 799.858,345.641 814.31,347.93 828.762,345.641 841.799,338.998 852.145,328.652 858.787,315.615 861.076,301.163 " />
<polyline fill="none" vector-effect="non-scaling-stroke" points="846.938,301.163 844.454,288.677 837.381,278.092 826.796,271.019 814.31,268.536 801.824,271.019 791.239,278.092 784.166,288.677 781.682,301.163 784.166,313.65 791.239,324.235 801.824,331.308 814.31,333.791 826.796,331.308 837.381,324.235 844.454,313.65 846.938,301.163 " />
</g>

<g fill="#ff0000" fill-opacity="1" stroke="#ff0000" stroke-opacity="1" stroke-width="1" stroke-linecap="square" stroke-linejoin="bevel" transform="matrix(0.999367,0,0,0.998729,0,0)"
font-family="mry_KacstQurn" font-size="12" font-weight="400" font-style="normal" 
>
<polyline fill="none" vector-effect="non-scaling-stroke" points="785.148,287.207 800.353,272.002 " />
<polyline fill="none" vector-effect="non-scaling-stroke" points="782.377,297.668 810.815,269.231 " />
<polyline fill="none" vector-effect="non-scaling-stroke" points="782.494,305.243 818.389,269.347 " />
<polyline fill="none" vector-effect="non-scaling-stroke" points="783.77,311.657 824.804,270.623 " />
<polyline fill="none" vector-effect="non-scaling-stroke" points="786.289,316.828 829.974,273.143 " />
<polyline fill="none" vector-effect="non-scaling-stroke" points="789.37,321.438 834.584,276.223 " />
<polyline fill="none" vector-effect="non-scaling-stroke" points="793.052,325.446 838.593,279.905 " />
<polyline fill="none" vector-effect="non-scaling-stroke" points="797.662,328.527 841.673,284.515 " />
<polyline fill="none" vector-effect="non-scaling-stroke" points="802.447,331.432 844.578,289.301 " />
<polyline fill="none" vector-effect="non-scaling-stroke" points="808.862,332.707 845.854,295.715 " />
<polyline fill="none" vector-effect="non-scaling-stroke" points="815.756,333.504 846.65,302.61 " />
<polyline fill="none" vector-effect="non-scaling-stroke" points="825.356,331.594 844.741,312.21 " />
</g>

<g fill="#000000" fill-opacity="1" stroke="#000000" stroke-opacity="1" stroke-width="1" stroke-linecap="square" stroke-linejoin="bevel" transform="matrix(0.999367,0,0,0.998729,0,0)"
font-family="mry_KacstQurn" font-size="12" font-weight="400" font-style="normal" 
>
<polyline fill="none" vector-effect="non-scaling-stroke" points="804.518,367.64 804.518,356.764 " />
<polyline fill="none" vector-effect="non-scaling-stroke" points="799.081,362.202 809.956,362.202 " />
<polyline fill="none" vector-effect="non-scaling-stroke" points="815.394,367.64 818.113,370.359 823.551,370.359 826.27,367.64 826.27,364.921 823.551,362.202 820.832,362.202 " />
<polyline fill="none" vector-effect="non-scaling-stroke" points="823.551,362.202 826.27,359.483 826.27,356.764 823.551,354.045 818.113,354.045 815.394,356.764 " />
<polyline fill="none" vector-effect="non-scaling-stroke" points="423.321,479.601 421.032,465.15 414.389,452.113 404.043,441.766 391.006,435.124 376.554,432.835 362.103,435.124 349.066,441.766 338.72,452.113 332.077,465.15 329.788,479.601 332.077,494.053 338.72,507.09 349.066,517.436 362.103,524.079 376.554,526.368 391.006,524.079 404.043,517.436 414.389,507.09 421.032,494.053 423.321,479.601 " />
<polyline fill="none" vector-effect="non-scaling-stroke" points="409.182,479.601 406.699,467.115 399.626,456.53 389.04,449.457 376.554,446.973 364.068,449.457 353.483,456.53 346.41,467.115 343.927,479.601 346.41,492.087 353.483,502.673 364.068,509.745 376.554,512.229 389.04,509.745 399.626,502.673 406.699,492.087 409.182,479.601 " />
</g>

<g fill="#00ff00" fill-opacity="1" stroke="#00ff00" stroke-opacity="1" stroke-width="1" stroke-linecap="square" stroke-linejoin="bevel" transform="matrix(0.999367,0,0,0.998729,0,0)"
font-family="mry_KacstQurn" font-size="12" font-weight="400" font-style="normal" 
>
<polyline fill="none" vector-effect="non-scaling-stroke" points="347.393,465.645 362.598,450.44 " />
<polyline fill="none" vector-effect="non-scaling-stroke" points="344.622,476.106 373.059,447.669 " />
<polyline fill="none" vector-effect="non-scaling-stroke" points="344.738,483.68 380.633,447.785 " />
<polyline fill="none" vector-effect="non-scaling-stroke" points="346.014,490.095 387.048,449.061 " />
<polyline fill="none" vector-effect="non-scaling-stroke" points="348.534,495.265 392.219,451.581 " />
<polyline fill="none" vector-effect="non-scaling-stroke" points="351.614,499.875 396.829,454.661 " />
<polyline fill="none" vector-effect="non-scaling-stroke" points="355.296,503.884 400.837,458.343 " />
<polyline fill="none" vector-effect="non-scaling-stroke" points="359.906,506.964 403.917,462.953 " />
<polyline fill="none" vector-effect="non-scaling-stroke" points="364.692,509.869 406.822,467.738 " />
<polyline fill="none" vector-effect="non-scaling-stroke" points="371.106,511.145 408.098,474.153 " />
<polyline fill="none" vector-effect="non-scaling-stroke" points="378,511.941 408.895,481.047 " />
<polyline fill="none" vector-effect="non-scaling-stroke" points="387.6,510.032 406.985,490.647 " />
</g>

<g fill="#000000" fill-opacity="1" stroke="#000000" stroke-opacity="1" stroke-width="1" stroke-linecap="square" stroke-linejoin="bevel" transform="matrix(0.999367,0,0,0.998729,0,0)"
font-family="mry_KacstQurn" font-size="12" font-weight="400" font-style="normal" 
>
<polyline fill="none" vector-effect="non-scaling-stroke" points="299.388,546.078 302.107,548.797 307.545,548.797 310.264,546.078 299.388,535.202 302.107,532.483 307.545,532.483 310.264,535.202 " />
<polyline fill="none" vector-effect="non-scaling-stroke" points="321.14,548.797 321.14,532.483 " />
<polyline fill="none" vector-effect="non-scaling-stroke" points="315.702,532.483 326.577,532.483 " />
<polyline fill="none" vector-effect="non-scaling-stroke" points="332.015,548.797 332.015,543.359 337.453,532.483 342.891,543.359 342.891,548.797 " />
<polyline fill="none" vector-effect="non-scaling-stroke" points="332.015,543.359 342.891,543.359 " />
<polyline fill="none" vector-effect="non-scaling-stroke" points="348.329,548.797 348.329,532.483 356.486,532.483 359.205,535.202 359.205,537.921 356.486,540.64 348.329,540.64 " />
<polyline fill="none" vector-effect="non-scaling-stroke" points="351.048,540.64 359.205,548.797 " />
<polyline fill="none" vector-effect="non-scaling-stroke" points="370.081,548.797 370.081,532.483 " />
<polyline fill="none" vector-effect="non-scaling-stroke" points="364.643,532.483 375.519,532.483 " />
<polyline fill="none" vector-effect="non-scaling-stroke" points="380.957,548.797 391.833,532.483 " />
<polyline fill="none" vector-effect="non-scaling-stroke" points="397.271,546.078 399.99,548.797 405.428,548.797 408.147,546.078 397.271,535.202 399.99,532.483 405.428,532.483 408.147,535.202 " />
<polyline fill="none" vector-effect="non-scaling-stroke" points="419.023,548.797 419.023,532.483 " />
<polyline fill="none" vector-effect="non-scaling-stroke" points="413.585,532.483 424.461,532.483 " />
<polyline fill="none" vector-effect="non-scaling-stroke" points="429.899,548.797 440.775,548.797 440.775,532.483 429.899,532.483 429.899,548.797 " />
<polyline fill="none" vector-effect="non-scaling-stroke" points="446.213,548.797 446.213,532.483 454.369,532.483 457.088,535.202 457.088,537.921 454.369,540.64 446.213,540.64 " />
<polyline fill="none" vector-effect="non-scaling-stroke" points="642.198,479.601 639.91,465.15 633.267,452.113 622.921,441.766 609.884,435.124 595.432,432.835 580.98,435.124 567.943,441.766 557.597,452.113 550.954,465.15 548.666,479.601 550.954,494.053 557.597,507.09 567.943,517.436 580.98,524.079 595.432,526.368 609.884,524.079 622.921,517.436 633.267,507.09 639.91,494.053 642.198,479.601 " />
<polyline fill="none" vector-effect="non-scaling-stroke" points="628.06,479.601 625.576,467.115 618.503,456.53 607.918,449.457 595.432,446.973 582.946,449.457 572.361,456.53 565.288,467.115 562.804,479.601 565.288,492.087 572.361,502.673 582.946,509.745 595.432,512.229 607.918,509.745 618.503,502.673 625.576,492.087 628.06,479.601 " />
</g>

<g fill="#ff0000" fill-opacity="1" stroke="#ff0000" stroke-opacity="1" stroke-width="1" stroke-linecap="square" stroke-linejoin="bevel" transform="matrix(0.999367,0,0,0.998729,0,0)"
font-family="mry_KacstQurn" font-size="12" font-weight="400" font-style="normal" 
>
<polyline fill="none" vector-effect="non-scaling-stroke" points="566.27,465.645 581.475,450.44 " />
<polyline fill="none" vector-effect="non-scaling-stroke" points="563.499,476.106 591.937,447.669 " />
<polyline fill="none" vector-effect="non-scaling-stroke" points="563.616,483.68 599.511,447.785 " />
<polyline fill="none" vector-effect="non-scaling-stroke" points="564.892,490.095 605.926,449.061 " />
<polyline fill="none" vector-effect="non-scaling-stroke" points="567.411,495.265 611.096,451.581 " />
<polyline fill="none" vector-effect="non-scaling-stroke" points="570.492,499.875 615.706,454.661 " />
<polyline fill="none" vector-effect="non-scaling-stroke" points="574.174,503.884 619.715,458.343 " />
<polyline fill="none" vector-effect="non-scaling-stroke" points="578.784,506.964 622.795,462.953 " />
<polyline fill="none" vector-effect="non-scaling-stroke" points="583.569,509.869 625.7,467.738 " />
<polyline fill="none" vector-effect="non-scaling-stroke" points="589.984,511.145 626.976,474.153 " />
<polyline fill="none" vector-effect="non-scaling-stroke" points="596.878,511.941 627.772,481.047 " />
<polyline fill="none" vector-effect="non-scaling-stroke" points="606.478,510.032 625.863,490.647 " />
</g>

<g fill="#000000" fill-opacity="1" stroke="#000000" stroke-opacity="1" stroke-width="1" stroke-linecap="square" stroke-linejoin="bevel" transform="matrix(0.999367,0,0,0.998729,0,0)"
font-family="mry_KacstQurn" font-size="12" font-weight="400" font-style="normal" 
>
<polyline fill="none" vector-effect="non-scaling-stroke" points="560.23,548.797 560.23,532.483 568.387,532.483 571.106,535.202 571.106,537.921 568.387,540.64 560.23,540.64 " />
<polyline fill="none" vector-effect="non-scaling-stroke" points="562.949,540.64 571.106,548.797 " />
<polyline fill="none" vector-effect="non-scaling-stroke" points="587.42,548.797 576.544,548.797 576.544,532.483 587.42,532.483 " />
<polyline fill="none" vector-effect="non-scaling-stroke" points="576.544,540.64 581.982,540.64 " />
<polyline fill="none" vector-effect="non-scaling-stroke" points="592.858,546.078 595.577,548.797 601.015,548.797 603.734,546.078 592.858,535.202 595.577,532.483 601.015,532.483 603.734,535.202 " />
<polyline fill="none" vector-effect="non-scaling-stroke" points="620.048,548.797 609.172,548.797 609.172,532.483 620.048,532.483 " />
<polyline fill="none" vector-effect="non-scaling-stroke" points="609.172,540.64 614.61,540.64 " />
<polyline fill="none" vector-effect="non-scaling-stroke" points="630.924,548.797 630.924,532.483 " />
<polyline fill="none" vector-effect="non-scaling-stroke" points="625.486,532.483 636.361,532.483 " />
<polyline fill="none" vector-effect="non-scaling-stroke" points="861.078,479.601 858.789,465.15 852.146,452.113 841.8,441.766 828.763,435.124 814.311,432.835 799.86,435.124 786.823,441.766 776.477,452.113 769.834,465.15 767.545,479.601 769.834,494.053 776.477,507.09 786.823,517.436 799.86,524.079 814.311,526.368 828.763,524.079 841.8,517.436 852.146,507.09 858.789,494.053 861.078,479.601 " />
<polyline fill="none" vector-effect="non-scaling-stroke" points="846.939,479.601 844.456,467.115 837.383,456.53 826.798,449.457 814.311,446.973 801.825,449.457 791.24,456.53 784.167,467.115 781.684,479.601 784.167,492.087 791.24,502.673 801.825,509.745 814.311,512.229 826.798,509.745 837.383,502.673 844.456,492.087 846.939,479.601 " />
</g>

<g fill="#0000ff" fill-opacity="1" stroke="#0000ff" stroke-opacity="1" stroke-width="1" stroke-linecap="square" stroke-linejoin="bevel" transform="matrix(0.999367,0,0,0.998729,0,0)"
font-family="mry_KacstQurn" font-size="12" font-weight="400" font-style="normal" 
>
<polyline fill="none" vector-effect="non-scaling-stroke" points="785.15,465.645 800.355,450.44 " />
<polyline fill="none" vector-effect="non-scaling-stroke" points="782.379,476.106 810.816,447.669 " />
<polyline fill="none" vector-effect="non-scaling-stroke" points="782.495,483.68 818.391,447.785 " />
<polyline fill="none" vector-effect="non-scaling-stroke" points="783.771,490.095 824.805,449.061 " />
<polyline fill="none" vector-effect="non-scaling-stroke" points="786.291,495.265 829.976,451.581 " />
<polyline fill="none" vector-effect="non-scaling-stroke" points="789.371,499.875 834.586,454.661 " />
<polyline fill="none" vector-effect="non-scaling-stroke" points="793.053,503.884 838.594,458.343 " />
<polyline fill="none" vector-effect="non-scaling-stroke" points="797.663,506.964 841.675,462.953 " />
<polyline fill="none" vector-effect="non-scaling-stroke" points="802.449,509.869 844.58,467.738 " />
<polyline fill="none" vector-effect="non-scaling-stroke" points="808.863,511.145 845.855,474.153 " />
<polyline fill="none" vector-effect="non-scaling-stroke" points="815.758,511.941 846.652,481.047 " />
<polyline fill="none" vector-effect="non-scaling-stroke" points="825.358,510.032 844.742,490.647 " />
</g>

<g fill="#000000" fill-opacity="1" stroke="#000000" stroke-opacity="1" stroke-width="1" stroke-linecap="square" stroke-linejoin="bevel" transform="matrix(0.999367,0,0,0.998729,0,0)"
font-family="mry_KacstQurn" font-size="12" font-weight="400" font-style="normal" 
>
<polyline fill="none" vector-effect="non-scaling-stroke" points="771.78,548.797 771.78,532.483 779.937,532.483 782.656,535.202 782.656,537.921 779.937,540.64 771.78,540.64 " />
<polyline fill="none" vector-effect="non-scaling-stroke" points="798.97,548.797 788.094,548.797 788.094,532.483 798.97,532.483 " />
<polyline fill="none" vector-effect="non-scaling-stroke" points="788.094,540.64 793.532,540.64 " />
<polyline fill="none" vector-effect="non-scaling-stroke" points="804.408,548.797 804.408,532.483 812.565,532.483 815.284,535.202 815.284,537.921 812.565,540.64 804.408,540.64 " />
<polyline fill="none" vector-effect="non-scaling-stroke" points="807.127,540.64 815.284,548.797 " />
<polyline fill="none" vector-effect="non-scaling-stroke" points="820.722,548.797 826.16,548.797 " />
<polyline fill="none" vector-effect="non-scaling-stroke" points="823.441,548.797 823.441,532.483 " />
<polyline fill="none" vector-effect="non-scaling-stroke" points="820.722,532.483 826.16,532.483 " />
<polyline fill="none" vector-effect="non-scaling-stroke" points="831.598,548.797 842.474,548.797 842.474,532.483 831.598,532.483 831.598,548.797 " />
<polyline fill="none" vector-effect="non-scaling-stroke" points="847.912,548.797 856.069,548.797 858.788,546.078 858.788,535.202 856.069,532.483 847.912,532.483 " />
<polyline fill="none" vector-effect="non-scaling-stroke" points="850.631,532.483 850.631,548.797 " />
<polyline fill="none" vector-effect="non-scaling-stroke" points="1079.95,479.601 1077.67,465.15 1071.02,452.113 1060.68,441.766 1047.64,435.124 1033.19,432.835 1018.74,435.124 1005.7,441.766 995.353,452.113 988.71,465.15 986.421,479.601 988.71,494.053 995.353,507.09 1005.7,517.436 1018.74,524.079 1033.19,526.368 1047.64,524.079 1060.68,517.436 1071.02,507.09 1077.67,494.053 1079.95,479.601 " />
<polyline fill="none" vector-effect="non-scaling-stroke" points="1065.82,479.601 1063.33,467.115 1056.26,456.53 1045.67,449.457 1033.19,446.973 1020.7,449.457 1010.12,456.53 1003.04,467.115 1000.56,479.601 1003.04,492.087 1010.12,502.673 1020.7,509.745 1033.19,512.229 1045.67,509.745 1056.26,502.673 1063.33,492.087 1065.82,479.601 " />
</g>

<g fill="#ffff00" fill-opacity="1" stroke="#ffff00" stroke-opacity="1" stroke-width="1" stroke-linecap="square" stroke-linejoin="bevel" transform="matrix(0.999367,0,0,0.998729,0,0)"
font-family="mry_KacstQurn" font-size="12" font-weight="400" font-style="normal" 
>
<polyline fill="none" vector-effect="non-scaling-stroke" points="1004.03,465.645 1019.23,450.44 " />
<polyline fill="none" vector-effect="non-scaling-stroke" points="1001.26,476.106 1029.69,447.669 " />
<polyline fill="none" vector-effect="non-scaling-stroke" points="1001.37,483.68 1037.27,447.785 " />
<polyline fill="none" vector-effect="non-scaling-stroke" points="1002.65,490.095 1043.68,449.061 " />
<polyline fill="none" vector-effect="non-scaling-stroke" points="1005.17,495.265 1048.85,451.581 " />
<polyline fill="none" vector-effect="non-scaling-stroke" points="1008.25,499.875 1053.46,454.661 " />
<polyline fill="none" vector-effect="non-scaling-stroke" points="1011.93,503.884 1057.47,458.343 " />
<polyline fill="none" vector-effect="non-scaling-stroke" points="1016.54,506.964 1060.55,462.953 " />
<polyline fill="none" vector-effect="non-scaling-stroke" points="1021.32,509.869 1063.46,467.738 " />
<polyline fill="none" vector-effect="non-scaling-stroke" points="1027.74,511.145 1064.73,474.153 " />
<polyline fill="none" vector-effect="non-scaling-stroke" points="1034.63,511.941 1065.53,481.047 " />
<polyline fill="none" vector-effect="non-scaling-stroke" points="1044.23,510.032 1063.62,490.647 " />
</g>

<g fill="#000000" fill-opacity="1" stroke="#000000" stroke-opacity="1" stroke-width="1" stroke-linecap="square" stroke-linejoin="bevel" transform="matrix(0.999367,0,0,0.998729,0,0)"
font-family="mry_KacstQurn" font-size="12" font-weight="400" font-style="normal" 
>
<polyline fill="none" vector-effect="non-scaling-stroke" points="997.986,546.078 1000.7,548.797 1006.14,548.797 1008.86,546.078 997.986,535.202 1000.7,532.483 1006.14,532.483 1008.86,535.202 " />
<polyline fill="none" vector-effect="non-scaling-stroke" points="1025.18,548.797 1014.3,548.797 1014.3,532.483 1025.18,532.483 " />
<polyline fill="none" vector-effect="non-scaling-stroke" points="1014.3,540.64 1019.74,540.64 " />
<polyline fill="none" vector-effect="non-scaling-stroke" points="1036.05,548.797 1036.05,532.483 " />
<polyline fill="none" vector-effect="non-scaling-stroke" points="1030.61,532.483 1041.49,532.483 " />
<polyline fill="none" vector-effect="non-scaling-stroke" points="1046.93,532.483 1046.93,546.078 1049.65,548.797 1055.08,548.797 1057.8,546.078 1057.8,532.483 " />
<polyline fill="none" vector-effect="non-scaling-stroke" points="1063.24,548.797 1063.24,532.483 1071.4,532.483 1074.12,535.202 1074.12,537.921 1071.4,540.64 1063.24,540.64 " />
<polyline fill="none" vector-effect="non-scaling-stroke" points="1079.95,301.163 1077.67,286.712 1071.02,273.675 1060.68,263.329 1047.64,256.686 1033.19,254.397 1018.74,256.686 1005.7,263.329 995.353,273.675 988.71,286.712 986.421,301.163 988.71,315.615 995.353,328.652 1005.7,338.998 1018.74,345.641 1033.19,347.93 1047.64,345.641 1060.68,338.998 1071.02,328.652 1077.67,315.615 1079.95,301.163 " />
<polyline fill="none" vector-effect="non-scaling-stroke" points="1065.82,301.163 1063.33,288.677 1056.26,278.092 1045.67,271.019 1033.19,268.536 1020.7,271.019 1010.12,278.092 1003.04,288.677 1000.56,301.163 1003.04,313.65 1010.12,324.235 1020.7,331.308 1033.19,333.791 1045.67,331.308 1056.26,324.235 1063.33,313.65 1065.82,301.163 " />
</g>

<g fill="#ffff00" fill-opacity="1" stroke="#ffff00" stroke-opacity="1" stroke-width="1" stroke-linecap="square" stroke-linejoin="bevel" transform="matrix(0.999367,0,0,0.998729,0,0)"
font-family="mry_KacstQurn" font-size="12" font-weight="400" font-style="normal" 
>
<polyline fill="none" vector-effect="non-scaling-stroke" points="1004.03,287.207 1019.23,272.002 " />
<polyline fill="none" vector-effect="non-scaling-stroke" points="1001.26,297.668 1029.69,269.231 " />
<polyline fill="none" vector-effect="non-scaling-stroke" points="1001.37,305.243 1037.27,269.347 " />
<polyline fill="none" vector-effect="non-scaling-stroke" points="1002.65,311.657 1043.68,270.623 " />
<polyline fill="none" vector-effect="non-scaling-stroke" points="1005.17,316.828 1048.85,273.143 " />
<polyline fill="none" vector-effect="non-scaling-stroke" points="1008.25,321.438 1053.46,276.223 " />
<polyline fill="none" vector-effect="non-scaling-stroke" points="1011.93,325.446 1057.47,279.905 " />
<polyline fill="none" vector-effect="non-scaling-stroke" points="1016.54,328.527 1060.55,284.515 " />
<polyline fill="none" vector-effect="non-scaling-stroke" points="1021.32,331.432 1063.46,289.301 " />
<polyline fill="none" vector-effect="non-scaling-stroke" points="1027.74,332.707 1064.73,295.715 " />
<polyline fill="none" vector-effect="non-scaling-stroke" points="1034.63,333.504 1065.53,302.61 " />
<polyline fill="none" vector-effect="non-scaling-stroke" points="1044.23,331.594 1063.62,312.21 " />
</g>

<g fill="#000000" fill-opacity="1" stroke="#000000" stroke-opacity="1" stroke-width="1" stroke-linecap="square" stroke-linejoin="bevel" transform="matrix(0.999367,0,0,0.998729,0,0)"
font-family="mry_KacstQurn" font-size="12" font-weight="400" font-style="normal" 
>
<polyline fill="none" vector-effect="non-scaling-stroke" points="1017.96,362.202 1028.83,362.202 " />
<polyline fill="none" vector-effect="non-scaling-stroke" points="1034.27,370.359 1039.71,370.359 " />
<polyline fill="none" vector-effect="non-scaling-stroke" points="1036.99,370.359 1036.99,354.045 1034.27,356.764 " />
<polyline fill="none" vector-effect="non-scaling-stroke" points="1079.95,146.182 1077.67,131.73 1071.02,118.693 1060.68,108.347 1047.64,101.704 1033.19,99.4152 1018.74,101.704 1005.7,108.347 995.353,118.693 988.71,131.73 986.422,146.182 988.71,160.633 995.353,173.67 1005.7,184.016 1018.74,190.659 1033.19,192.948 1047.64,190.659 1060.68,184.016 1071.02,173.67 1077.67,160.633 1079.95,146.182 " />
<polyline fill="none" vector-effect="non-scaling-stroke" points="1065.82,146.182 1063.33,133.696 1056.26,123.11 1045.67,116.038 1033.19,113.554 1020.7,116.038 1010.12,123.11 1003.04,133.696 1000.56,146.182 1003.04,158.668 1010.12,169.253 1020.7,176.326 1033.19,178.809 1045.67,176.326 1056.26,169.253 1063.33,158.668 1065.82,146.182 " />
</g>

<g fill="#ffff00" fill-opacity="1" stroke="#ffff00" stroke-opacity="1" stroke-width="1" stroke-linecap="square" stroke-linejoin="bevel" transform="matrix(0.999367,0,0,0.998729,0,0)"
font-family="mry_KacstQurn" font-size="12" font-weight="400" font-style="normal" 
>
<polyline fill="none" vector-effect="non-scaling-stroke" points="1004.03,132.225 1019.23,117.02 " />
<polyline fill="none" vector-effect="non-scaling-stroke" points="1001.26,142.686 1029.69,114.249 " />
<polyline fill="none" vector-effect="non-scaling-stroke" points="1001.37,150.261 1037.27,114.365 " />
<polyline fill="none" vector-effect="non-scaling-stroke" points="1002.65,156.675 1043.68,115.641 " />
<polyline fill="none" vector-effect="non-scaling-stroke" points="1005.17,161.846 1048.85,118.161 " />
<polyline fill="none" vector-effect="non-scaling-stroke" points="1008.25,166.456 1053.46,121.241 " />
<polyline fill="none" vector-effect="non-scaling-stroke" points="1011.93,170.464 1057.47,124.923 " />
<polyline fill="none" vector-effect="non-scaling-stroke" points="1016.54,173.545 1060.55,129.533 " />
<polyline fill="none" vector-effect="non-scaling-stroke" points="1021.33,176.45 1063.46,134.319 " />
<polyline fill="none" vector-effect="non-scaling-stroke" points="1027.74,177.726 1064.73,140.733 " />
<polyline fill="none" vector-effect="non-scaling-stroke" points="1034.63,178.522 1065.53,147.628 " />
<polyline fill="none" vector-effect="non-scaling-stroke" points="1044.23,176.612 1063.62,157.228 " />
</g>

<g fill="#000000" fill-opacity="1" stroke="#000000" stroke-opacity="1" stroke-width="1" stroke-linecap="square" stroke-linejoin="bevel" transform="matrix(0.999367,0,0,0.998729,0,0)"
font-family="mry_KacstQurn" font-size="12" font-weight="400" font-style="normal" 
>
<polyline fill="none" vector-effect="non-scaling-stroke" points="1017.96,207.22 1028.83,207.22 " />
<polyline fill="none" vector-effect="non-scaling-stroke" points="1034.27,215.377 1039.71,215.377 " />
<polyline fill="none" vector-effect="non-scaling-stroke" points="1036.99,215.377 1036.99,199.063 1034.27,201.782 " />
<polyline fill="none" vector-effect="non-scaling-stroke" points="769.911,571.885 769.911,555.571 778.068,555.571 780.787,558.29 780.787,561.009 778.068,563.728 769.911,563.728 " />
<polyline fill="none" vector-effect="non-scaling-stroke" points="772.63,563.728 780.787,571.885 " />
<polyline fill="none" vector-effect="non-scaling-stroke" points="797.1,571.885 786.225,571.885 786.225,555.571 797.1,555.571 " />
<polyline fill="none" vector-effect="non-scaling-stroke" points="786.225,563.728 791.663,563.728 " />
<polyline fill="none" vector-effect="non-scaling-stroke" points="802.538,555.571 802.538,571.885 813.414,571.885 " />
<polyline fill="none" vector-effect="non-scaling-stroke" points="818.852,571.885 829.728,571.885 829.728,555.571 818.852,555.571 818.852,571.885 " />
<polyline fill="none" vector-effect="non-scaling-stroke" points="835.166,571.885 835.166,566.447 840.604,555.571 846.042,566.447 846.042,571.885 " />
<polyline fill="none" vector-effect="non-scaling-stroke" points="835.166,566.447 846.042,566.447 " />
<polyline fill="none" vector-effect="non-scaling-stroke" points="851.48,571.885 859.637,571.885 862.356,569.166 862.356,558.29 859.637,555.571 851.48,555.571 " />
<polyline fill="none" vector-effect="non-scaling-stroke" points="854.199,555.571 854.199,571.885 " />
<polyline fill="none" vector-effect="non-scaling-stroke" points="341.592,391.402 341.592,375.088 347.03,385.964 352.467,375.088 352.467,391.402 " />
<polyline fill="none" vector-effect="non-scaling-stroke" points="357.905,391.402 363.343,391.402 " />
<polyline fill="none" vector-effect="non-scaling-stroke" points="360.624,391.402 360.624,375.088 " />
<polyline fill="none" vector-effect="non-scaling-stroke" points="357.905,375.088 363.343,375.088 " />
<polyline fill="none" vector-effect="non-scaling-stroke" points="368.781,391.402 368.781,375.088 379.657,391.402 379.657,375.088 " />
<polyline fill="none" vector-effect="non-scaling-stroke" points="390.533,388.683 390.533,377.807 " />
<polyline fill="none" vector-effect="non-scaling-stroke" points="385.095,383.245 395.971,383.245 " />
<polyline fill="none" vector-effect="non-scaling-stroke" points="401.409,391.402 406.847,391.402 " />
<polyline fill="none" vector-effect="non-scaling-stroke" points="404.128,391.402 404.128,375.088 401.409,377.807 " />
<polyline fill="none" vector-effect="non-scaling-stroke" points="557.443,391.834 560.162,394.553 565.6,394.553 568.319,391.834 557.443,380.958 560.162,378.239 565.6,378.239 568.319,380.958 " />
<polyline fill="none" vector-effect="non-scaling-stroke" points="584.633,394.553 573.757,394.553 573.757,378.239 584.633,378.239 " />
<polyline fill="none" vector-effect="non-scaling-stroke" points="573.757,386.396 579.195,386.396 " />
<polyline fill="none" vector-effect="non-scaling-stroke" points="600.946,391.834 598.228,394.553 592.79,394.553 590.071,391.834 590.071,380.958 592.79,378.239 598.228,378.239 600.946,380.958 " />
<polyline fill="none" vector-effect="non-scaling-stroke" points="611.822,391.834 611.822,380.958 " />
<polyline fill="none" vector-effect="non-scaling-stroke" points="606.384,386.396 617.26,386.396 " />
<polyline fill="none" vector-effect="non-scaling-stroke" points="622.698,394.553 628.136,394.553 " />
<polyline fill="none" vector-effect="non-scaling-stroke" points="625.417,394.553 625.417,378.239 622.698,380.958 " />
<polyline fill="none" vector-effect="non-scaling-stroke" points="778.108,392.834 780.827,395.553 786.265,395.553 788.984,392.834 778.108,381.958 780.827,379.239 786.265,379.239 788.984,381.958 " />
<polyline fill="none" vector-effect="non-scaling-stroke" points="805.298,395.553 794.422,395.553 794.422,379.239 805.298,379.239 " />
<polyline fill="none" vector-effect="non-scaling-stroke" points="794.422,387.396 799.86,387.396 " />
<polyline fill="none" vector-effect="non-scaling-stroke" points="821.612,392.834 818.893,395.553 813.455,395.553 810.736,392.834 810.736,381.958 813.455,379.239 818.893,379.239 821.612,381.958 " />
<polyline fill="none" vector-effect="non-scaling-stroke" points="827.05,387.396 837.926,387.396 " />
<polyline fill="none" vector-effect="non-scaling-stroke" points="843.364,395.553 848.801,395.553 " />
<polyline fill="none" vector-effect="non-scaling-stroke" points="846.082,395.553 846.082,379.239 843.364,381.958 " />
<polyline fill="none" vector-effect="non-scaling-stroke" points="992.657,390.834 995.376,393.553 1000.81,393.553 1003.53,390.834 992.657,379.958 995.376,377.239 1000.81,377.239 1003.53,379.958 " />
<polyline fill="none" vector-effect="non-scaling-stroke" points="1019.85,393.553 1008.97,393.553 1008.97,377.239 1019.85,377.239 " />
<polyline fill="none" vector-effect="non-scaling-stroke" points="1008.97,385.396 1014.41,385.396 " />
<polyline fill="none" vector-effect="non-scaling-stroke" points="1036.16,390.834 1033.44,393.553 1028,393.553 1025.28,390.834 1025.28,379.958 1028,377.239 1033.44,377.239 1036.16,379.958 " />
<polyline fill="none" vector-effect="non-scaling-stroke" points="1047.04,390.834 1047.04,379.958 " />
<polyline fill="none" vector-effect="non-scaling-stroke" points="1041.6,385.396 1052.47,385.396 " />
<polyline fill="none" vector-effect="non-scaling-stroke" points="1057.91,390.834 1060.63,393.553 1066.07,393.553 1068.79,390.834 1068.79,385.396 1066.07,382.677 1057.91,382.677 1057.91,377.239 1068.79,377.239 " />
<polyline fill="none" vector-effect="non-scaling-stroke" points="660.804,108.452 660.804,86.7005 " />
<polyline fill="none" vector-effect="non-scaling-stroke" points="660.804,97.5764 675.305,97.5764 " />
<polyline fill="none" vector-effect="non-scaling-stroke" points="675.305,86.7005 675.305,108.452 " />
<polyline fill="none" vector-effect="non-scaling-stroke" points="682.555,108.452 697.057,108.452 697.057,86.7005 682.555,86.7005 682.555,108.452 " />
<polyline fill="none" vector-effect="non-scaling-stroke" points="704.307,108.452 704.307,86.7005 711.558,101.202 718.808,86.7005 718.808,108.452 " />
<polyline fill="none" vector-effect="non-scaling-stroke" points="740.56,108.452 726.059,108.452 726.059,86.7005 740.56,86.7005 " />
<polyline fill="none" vector-effect="non-scaling-stroke" points="726.059,97.5764 733.31,97.5764 " />
<polyline fill="none" vector-effect="non-scaling-stroke" points="662.203,257.583 662.203,250.333 669.454,235.831 676.705,250.333 676.705,257.583 " />
<polyline fill="none" vector-effect="non-scaling-stroke" points="662.203,250.333 676.705,250.333 " />
<polyline fill="none" vector-effect="non-scaling-stroke" points="683.955,235.831 691.206,257.583 694.831,246.707 698.456,257.583 705.707,235.831 " />
<polyline fill="none" vector-effect="non-scaling-stroke" points="712.958,257.583 712.958,250.333 720.208,235.831 727.459,250.333 727.459,257.583 " />
<polyline fill="none" vector-effect="non-scaling-stroke" points="712.958,250.333 727.459,250.333 " />
<polyline fill="none" vector-effect="non-scaling-stroke" points="734.709,235.831 741.96,246.707 741.96,257.583 " />
<polyline fill="none" vector-effect="non-scaling-stroke" points="741.96,246.707 749.211,235.831 " />
<polyline fill="none" vector-effect="non-scaling-stroke" points="662.524,439.729 662.524,417.977 " />
<polyline fill="none" vector-effect="non-scaling-stroke" points="655.274,417.977 669.775,417.977 " />
<polyline fill="none" vector-effect="non-scaling-stroke" points="677.025,439.729 684.276,439.729 " />
<polyline fill="none" vector-effect="non-scaling-stroke" points="680.651,439.729 680.651,417.977 " />
<polyline fill="none" vector-effect="non-scaling-stroke" points="677.025,417.977 684.276,417.977 " />
<polyline fill="none" vector-effect="non-scaling-stroke" points="691.527,439.729 691.527,417.977 698.777,432.478 706.028,417.977 706.028,439.729 " />
<polyline fill="none" vector-effect="non-scaling-stroke" points="727.78,439.729 713.278,439.729 713.278,417.977 727.78,417.977 " />
<polyline fill="none" vector-effect="non-scaling-stroke" points="713.278,428.853 720.529,428.853 " />
<polyline fill="none" vector-effect="non-scaling-stroke" points="735.03,439.729 735.03,417.977 745.906,417.977 749.532,421.602 749.532,425.228 745.906,428.853 735.03,428.853 " />
<polyline fill="none" vector-effect="non-scaling-stroke" points="738.656,428.853 749.532,439.729 " />
<polyline fill="none" vector-effect="non-scaling-stroke" points="383.08,146.182 381.168,141.567 376.554,139.656 371.94,141.567 370.029,146.182 371.94,150.796 376.554,152.707 381.168,150.796 383.08,146.182 " />
<polyline fill="none" vector-effect="non-scaling-stroke" points="601.958,146.182 600.047,141.567 595.432,139.656 590.818,141.567 588.907,146.182 590.818,150.796 595.432,152.707 600.047,150.796 601.958,146.182 " />
<polyline fill="none" vector-effect="non-scaling-stroke" points="820.836,146.182 818.924,141.567 814.31,139.656 809.696,141.567 807.785,146.182 809.696,150.796 814.31,152.707 818.924,150.796 820.836,146.182 " />
<polyline fill="none" vector-effect="non-scaling-stroke" points="1039.71,146.182 1037.8,141.567 1033.19,139.656 1028.57,141.567 1026.66,146.182 1028.57,150.796 1033.19,152.707 1037.8,150.796 1039.71,146.182 " />
<polyline fill="none" vector-effect="non-scaling-stroke" points="383.08,301.163 381.168,296.549 376.554,294.638 371.94,296.549 370.028,301.163 371.94,305.778 376.554,307.689 381.168,305.778 383.08,301.163 " />
<polyline fill="none" vector-effect="non-scaling-stroke" points="601.958,301.363 600.046,296.748 595.432,294.837 590.818,296.748 588.907,301.363 590.818,305.977 595.432,307.888 600.046,305.977 601.958,301.363 " />
<polyline fill="none" vector-effect="non-scaling-stroke" points="820.836,301.163 818.924,296.549 814.31,294.638 809.696,296.549 807.784,301.163 809.696,305.778 814.31,307.689 818.924,305.778 820.836,301.163 " />
<polyline fill="none" vector-effect="non-scaling-stroke" points="1039.71,301.163 1037.8,296.549 1033.19,294.638 1028.57,296.549 1026.66,301.163 1028.57,305.778 1033.19,307.689 1037.8,305.778 1039.71,301.163 " />
<polyline fill="none" vector-effect="non-scaling-stroke" points="383.08,479.601 381.169,474.987 376.554,473.076 371.94,474.987 370.029,479.601 371.94,484.215 376.554,486.127 381.169,484.215 383.08,479.601 " />
<polyline fill="none" vector-effect="non-scaling-stroke" points="601.958,479.601 600.046,474.987 595.432,473.076 590.818,474.987 588.906,479.601 590.818,484.215 595.432,486.127 600.046,484.215 601.958,479.601 " />
<polyline fill="none" vector-effect="non-scaling-stroke" points="820.837,479.601 818.926,474.987 814.311,473.076 809.697,474.987 807.786,479.601 809.697,484.215 814.311,486.127 818.926,484.215 820.837,479.601 " />
<polyline fill="none" vector-effect="non-scaling-stroke" points="1039.71,479.601 1037.8,474.987 1033.19,473.076 1028.57,474.987 1026.66,479.601 1028.57,484.215 1033.19,486.127 1037.8,484.215 1039.71,479.601 " />
<polyline fill="none" vector-effect="non-scaling-stroke" points="280.982,580.203 280.982,80.4551 1128.76,80.4551 1128.76,580.203 280.982,580.203 " />
</g>

<g fill="none" stroke="#000000" stroke-opacity="1" stroke-width="1" stroke-linecap="square" stroke-linejoin="bevel" transform="matrix(1,0,0,1,0,0)"
font-family="mry_KacstQurn" font-size="12" font-weight="400" font-style="normal" 
>
</g>
</g>
</svg>
