G75*
G70*
%OFA0B0*%
%FSLAX24Y24*%
%IPPOS*%
%LPD*%
%AMOC8*
5,1,8,0,0,1.08239X$1,22.5*
%
%ADD10C,0.0060*%
%ADD11C,0.0090*%
%ADD12C,0.0050*%
%ADD13C,0.0080*%
%ADD14C,0.0010*%
%ADD15C,0.0040*%
D10*
X002262Y009062D02*
X002262Y009289D01*
X002262Y009175D02*
X002602Y009175D01*
X002545Y009430D02*
X002602Y009487D01*
X002602Y009600D01*
X002545Y009657D01*
X002318Y009657D01*
X002262Y009600D01*
X002262Y009487D01*
X002318Y009430D01*
X002375Y009430D01*
X002432Y009487D01*
X002432Y009657D01*
X002432Y009798D02*
X002432Y010025D01*
X002375Y010025D02*
X002602Y010025D01*
X002432Y010167D02*
X002432Y010394D01*
X002545Y010535D02*
X002602Y010592D01*
X002602Y010705D01*
X002545Y010762D01*
X002488Y010762D01*
X002432Y010705D01*
X002432Y010648D01*
X002432Y010705D02*
X002375Y010762D01*
X002318Y010762D01*
X002262Y010705D01*
X002262Y010592D01*
X002318Y010535D01*
X002318Y010903D02*
X002262Y010960D01*
X002262Y011073D01*
X002318Y011130D01*
X002545Y010903D01*
X002602Y010960D01*
X002602Y011073D01*
X002545Y011130D01*
X002318Y011130D01*
X002375Y011272D02*
X002262Y011385D01*
X002375Y011499D01*
X002602Y011499D01*
X002602Y011640D02*
X002262Y011867D01*
X002375Y012008D02*
X002262Y012122D01*
X002602Y012122D01*
X002602Y012235D02*
X002602Y012008D01*
X002602Y012377D02*
X002375Y012603D01*
X002318Y012603D01*
X002262Y012547D01*
X002262Y012433D01*
X002318Y012377D01*
X002602Y012377D02*
X002602Y012603D01*
X002545Y012745D02*
X002318Y012745D01*
X002262Y012802D01*
X002262Y012915D01*
X002318Y012972D01*
X002545Y012745D01*
X002602Y012802D01*
X002602Y012915D01*
X002545Y012972D01*
X002318Y012972D01*
X002262Y013113D02*
X002488Y013113D01*
X002602Y013227D01*
X002488Y013340D01*
X002262Y013340D01*
X002432Y011499D02*
X002432Y011272D01*
X002375Y011272D02*
X002602Y011272D01*
X002545Y010903D02*
X002318Y010903D01*
X002375Y010025D02*
X002262Y009912D01*
X002375Y009798D01*
X002602Y009798D01*
X014232Y001732D02*
X014269Y002002D01*
X014378Y002252D01*
X014549Y002463D01*
X014772Y002620D01*
X015029Y002711D01*
X015300Y002730D01*
X015567Y002674D01*
X015809Y002549D01*
X016008Y002363D01*
X016149Y002130D01*
X016223Y001868D01*
X016223Y001596D01*
X016149Y001334D01*
X016008Y001101D01*
X015809Y000915D01*
X015567Y000790D01*
X015300Y000734D01*
X015029Y000753D01*
X014772Y000844D01*
X014549Y001001D01*
X014378Y001212D01*
X014269Y001462D01*
X014232Y001732D01*
X018062Y004819D02*
X018118Y004762D01*
X018345Y004762D01*
X018402Y004819D01*
X018402Y004932D01*
X018345Y004989D01*
X018232Y004989D01*
X018232Y004875D01*
X018118Y004989D02*
X018062Y004932D01*
X018062Y004819D01*
X018062Y005130D02*
X018402Y005357D01*
X018062Y005357D01*
X018062Y005498D02*
X018062Y005669D01*
X018118Y005725D01*
X018345Y005725D01*
X018402Y005669D01*
X018402Y005498D01*
X018062Y005498D01*
X018062Y005130D02*
X018402Y005130D01*
X018345Y006562D02*
X018118Y006562D01*
X018062Y006619D01*
X018062Y006732D01*
X018118Y006789D01*
X018062Y006930D02*
X018062Y007157D01*
X018062Y007044D02*
X018402Y007044D01*
X018402Y007298D02*
X018062Y007298D01*
X018062Y007469D01*
X018118Y007525D01*
X018232Y007525D01*
X018288Y007469D01*
X018288Y007298D01*
X018288Y007412D02*
X018402Y007525D01*
X018402Y007667D02*
X018402Y007894D01*
X018402Y007667D02*
X018062Y007667D01*
X018345Y006789D02*
X018402Y006732D01*
X018402Y006619D01*
X018345Y006562D01*
X018345Y008612D02*
X018402Y008669D01*
X018402Y008782D01*
X018345Y008839D01*
X018232Y008839D01*
X018175Y008782D01*
X018175Y008725D01*
X018232Y008612D01*
X018062Y008612D01*
X018062Y008839D01*
X018062Y008980D02*
X018288Y008980D01*
X018402Y009094D01*
X018288Y009207D01*
X018062Y009207D01*
D11*
X001267Y002277D02*
X000927Y002277D01*
X000927Y002787D01*
X001479Y002702D02*
X001479Y002362D01*
X001564Y002277D01*
X001734Y002277D01*
X001820Y002362D01*
X001820Y002702D01*
X001734Y002787D01*
X001564Y002787D01*
X001479Y002702D01*
X002032Y002617D02*
X002032Y002277D01*
X002032Y002532D02*
X002372Y002532D01*
X002372Y002617D02*
X002372Y002277D01*
X002584Y002277D02*
X002839Y002277D01*
X002924Y002362D01*
X002924Y002702D01*
X002839Y002787D01*
X002584Y002787D01*
X002584Y002277D01*
X002372Y002617D02*
X002202Y002787D01*
X002032Y002617D01*
X003827Y001187D02*
X003997Y001187D01*
X003912Y001187D02*
X003912Y000677D01*
X003827Y000677D02*
X003997Y000677D01*
X004195Y000677D02*
X004195Y001017D01*
X004450Y001017D01*
X004535Y000932D01*
X004535Y000677D01*
X004748Y000677D02*
X004918Y000677D01*
X004833Y000677D02*
X004833Y001187D01*
X004748Y001187D01*
X005116Y001017D02*
X005201Y001017D01*
X005201Y000677D01*
X005116Y000677D02*
X005286Y000677D01*
X005484Y000677D02*
X005484Y001017D01*
X005739Y001017D01*
X005824Y000932D01*
X005824Y000677D01*
X006037Y000762D02*
X006037Y000932D01*
X006122Y001017D01*
X006292Y001017D01*
X006377Y000932D01*
X006377Y000847D01*
X006037Y000847D01*
X006037Y000762D02*
X006122Y000677D01*
X006292Y000677D01*
X007141Y000677D02*
X007141Y001187D01*
X007397Y001187D01*
X007482Y001102D01*
X007482Y000932D01*
X007397Y000847D01*
X007141Y000847D01*
X007694Y000932D02*
X007694Y000762D01*
X007779Y000677D01*
X007949Y000677D01*
X008034Y000762D01*
X008034Y000932D01*
X007949Y001017D01*
X007779Y001017D01*
X007694Y000932D01*
X008246Y001017D02*
X008246Y000762D01*
X008331Y000677D01*
X008416Y000762D01*
X008502Y000677D01*
X008587Y000762D01*
X008587Y001017D01*
X008799Y000932D02*
X008799Y000762D01*
X008884Y000677D01*
X009054Y000677D01*
X009139Y000847D02*
X008799Y000847D01*
X008799Y000932D02*
X008884Y001017D01*
X009054Y001017D01*
X009139Y000932D01*
X009139Y000847D01*
X009351Y000847D02*
X009521Y001017D01*
X009606Y001017D01*
X009351Y001017D02*
X009351Y000677D01*
X010364Y000762D02*
X010449Y000677D01*
X010619Y000677D01*
X010704Y000762D01*
X010916Y000762D02*
X010916Y000932D01*
X011002Y001017D01*
X011172Y001017D01*
X011257Y000932D01*
X011257Y000762D01*
X011172Y000677D01*
X011002Y000677D01*
X010916Y000762D01*
X010704Y001102D02*
X010619Y001187D01*
X010449Y001187D01*
X010364Y001102D01*
X010364Y000762D01*
X011469Y000677D02*
X011469Y001017D01*
X011724Y001017D01*
X011809Y000932D01*
X011809Y000677D01*
X012106Y000762D02*
X012191Y000677D01*
X012106Y000762D02*
X012106Y001102D01*
X012021Y001017D02*
X012191Y001017D01*
X012390Y001017D02*
X012390Y000677D01*
X012390Y000847D02*
X012560Y001017D01*
X012645Y001017D01*
X012850Y000932D02*
X012850Y000762D01*
X012935Y000677D01*
X013105Y000677D01*
X013190Y000762D01*
X013190Y000932D01*
X013105Y001017D01*
X012935Y001017D01*
X012850Y000932D01*
X013402Y000677D02*
X013573Y000677D01*
X013488Y000677D02*
X013488Y001187D01*
X013402Y001187D01*
X005201Y001272D02*
X005201Y001187D01*
D12*
X012087Y003097D02*
X012357Y003097D01*
X012357Y003007D02*
X012357Y003187D01*
X012357Y003301D02*
X012087Y003301D01*
X012222Y003346D02*
X012357Y003482D01*
X012267Y003301D02*
X012087Y003482D01*
X012087Y003097D02*
X012177Y003007D01*
X012957Y005007D02*
X013137Y005187D01*
X013137Y005232D01*
X013092Y005277D01*
X013002Y005277D01*
X012957Y005232D01*
X012957Y005007D02*
X013137Y005007D01*
X013251Y005007D02*
X013251Y005277D01*
X013432Y005007D01*
X013432Y005277D01*
X013546Y005232D02*
X013591Y005277D01*
X013681Y005277D01*
X013726Y005232D01*
X013726Y005187D01*
X013681Y005142D01*
X013726Y005097D01*
X013726Y005052D01*
X013681Y005007D01*
X013591Y005007D01*
X013546Y005052D01*
X013636Y005142D02*
X013681Y005142D01*
X013841Y005187D02*
X013886Y005142D01*
X014021Y005142D01*
X014021Y005232D02*
X013976Y005277D01*
X013886Y005277D01*
X013841Y005232D01*
X013841Y005187D01*
X013841Y005052D02*
X013886Y005007D01*
X013976Y005007D01*
X014021Y005052D01*
X014021Y005232D01*
X014135Y005232D02*
X014135Y005052D01*
X014316Y005232D01*
X014316Y005052D01*
X014270Y005007D01*
X014180Y005007D01*
X014135Y005052D01*
X014135Y005232D02*
X014180Y005277D01*
X014270Y005277D01*
X014316Y005232D01*
X014430Y005142D02*
X014565Y005277D01*
X014565Y005007D01*
X014610Y005142D02*
X014430Y005142D01*
X013357Y006857D02*
X013357Y007037D01*
X013357Y006947D02*
X013087Y006947D01*
X013177Y006857D01*
X013132Y007151D02*
X013087Y007196D01*
X013087Y007287D01*
X013132Y007332D01*
X013312Y007151D01*
X013357Y007196D01*
X013357Y007287D01*
X013312Y007332D01*
X013132Y007332D01*
X013087Y007446D02*
X013357Y007446D01*
X013267Y007446D02*
X013087Y007626D01*
X013222Y007491D02*
X013357Y007626D01*
X013312Y007151D02*
X013132Y007151D01*
X014087Y007251D02*
X014357Y007251D01*
X014267Y007251D02*
X014087Y007432D01*
X014222Y007296D02*
X014357Y007432D01*
X014357Y007137D02*
X014357Y006957D01*
X014357Y007047D02*
X014087Y007047D01*
X014177Y006957D01*
X002477Y008215D02*
X002435Y008173D01*
X002394Y008173D01*
X002477Y008215D02*
X002477Y008424D01*
X002310Y008424D02*
X002310Y008299D01*
X002352Y008257D01*
X002477Y008257D01*
X002209Y008257D02*
X002126Y008257D01*
X002168Y008257D02*
X002168Y008507D01*
X002126Y008507D01*
X001984Y008507D02*
X001984Y008257D01*
X002025Y008257D02*
X001942Y008257D01*
X001832Y008257D02*
X001832Y008382D01*
X001791Y008424D01*
X001707Y008424D01*
X001707Y008340D02*
X001666Y008299D01*
X001707Y008257D01*
X001832Y008257D01*
X001832Y008340D02*
X001707Y008340D01*
X001556Y008382D02*
X001556Y008257D01*
X001473Y008257D02*
X001473Y008382D01*
X001514Y008424D01*
X001556Y008382D01*
X001473Y008382D02*
X001431Y008424D01*
X001389Y008424D01*
X001389Y008257D01*
X001284Y008424D02*
X001243Y008424D01*
X001159Y008340D01*
X001159Y008257D02*
X001159Y008424D01*
X001050Y008382D02*
X001050Y008299D01*
X001008Y008257D01*
X000925Y008257D01*
X000883Y008299D01*
X000883Y008382D01*
X000925Y008424D01*
X001008Y008424D01*
X001050Y008382D01*
X000774Y008257D02*
X000774Y008507D01*
X000607Y008507D02*
X000607Y008257D01*
X000774Y008257D02*
X000607Y008507D01*
X001049Y008057D02*
X001007Y008015D01*
X001007Y007849D01*
X001049Y007807D01*
X001132Y007807D01*
X001174Y007849D01*
X001174Y008015D01*
X001132Y008057D01*
X001049Y008057D01*
X001283Y007974D02*
X001408Y007974D01*
X001450Y007932D01*
X001450Y007849D01*
X001408Y007807D01*
X001283Y007807D01*
X001283Y007723D02*
X001283Y007974D01*
X001559Y007932D02*
X001559Y007849D01*
X001601Y007807D01*
X001684Y007807D01*
X001726Y007890D02*
X001559Y007890D01*
X001559Y007932D02*
X001601Y007974D01*
X001684Y007974D01*
X001726Y007932D01*
X001726Y007890D01*
X001835Y007807D02*
X001835Y007974D01*
X001961Y007974D01*
X002002Y007932D01*
X002002Y007807D01*
X001984Y008507D02*
X001942Y008507D01*
D13*
X002838Y007956D02*
X002838Y014232D01*
X002837Y014232D02*
X002878Y014371D01*
X002966Y014487D01*
X003089Y014563D01*
X003231Y014591D01*
X003232Y014590D02*
X013232Y014590D01*
X013231Y014590D02*
X013384Y014584D01*
X013518Y014509D01*
X013605Y014383D01*
X013626Y014231D01*
X013626Y014232D02*
X013626Y009846D01*
X013603Y009738D01*
X013544Y009646D01*
X013456Y009580D01*
X013350Y009550D01*
X013350Y009551D02*
X011736Y009551D01*
X011630Y009521D01*
X011542Y009455D01*
X011483Y009363D01*
X011460Y009255D01*
X011460Y002169D01*
X011437Y002061D01*
X011378Y001969D01*
X011290Y001903D01*
X011184Y001873D01*
X011185Y001874D02*
X003901Y001874D01*
X003775Y001916D01*
X003677Y002006D01*
X003626Y002129D01*
X003626Y007366D01*
X003385Y007452D02*
X000826Y007452D01*
X000826Y003043D01*
X000433Y003043D01*
X000433Y007452D01*
X000826Y007452D01*
X003114Y007661D02*
X003350Y007661D01*
X003385Y007452D02*
X003385Y003043D01*
X000826Y003043D01*
X003626Y007365D02*
X003603Y007473D01*
X003544Y007565D01*
X003456Y007631D01*
X003350Y007661D01*
X003114Y007661D02*
X003005Y007686D01*
X002914Y007751D01*
X002855Y007846D01*
X002838Y007956D01*
X011932Y008232D02*
X011932Y006232D01*
X012232Y006232D01*
X012232Y006132D01*
X012232Y006232D02*
X012532Y006232D01*
X012532Y008232D01*
X012232Y008232D01*
X012232Y008332D01*
X012232Y008232D02*
X011932Y008232D01*
X011982Y007982D02*
X012482Y007982D01*
X012932Y008232D02*
X013232Y008232D01*
X013232Y008332D01*
X013232Y008232D02*
X013532Y008232D01*
X013532Y006232D01*
X013232Y006232D01*
X013232Y006132D01*
X013232Y006232D02*
X012932Y006232D01*
X012932Y008232D01*
X013932Y008232D02*
X014232Y008232D01*
X014232Y008332D01*
X014232Y008232D02*
X014532Y008232D01*
X014532Y006232D01*
X014232Y006232D01*
X014232Y006132D01*
X014232Y006232D02*
X013932Y006232D01*
X013932Y008232D01*
X014893Y009543D02*
X017334Y009543D01*
X017334Y004976D01*
X014893Y004976D01*
X014893Y009543D01*
X017334Y009543D02*
X017649Y009543D01*
X017649Y004976D01*
X017334Y004976D01*
X014777Y004332D02*
X014619Y004332D01*
X014556Y004882D02*
X012907Y004882D01*
X012845Y004332D02*
X012687Y004332D01*
X012532Y004232D02*
X012232Y004232D01*
X012232Y004332D01*
X012232Y004232D02*
X011932Y004232D01*
X011932Y002232D01*
X012232Y002232D01*
X012232Y002132D01*
X012232Y002232D02*
X012532Y002232D01*
X012532Y004232D01*
X013619Y004332D02*
X013845Y004332D01*
X014232Y002482D02*
X014232Y000982D01*
D14*
X014200Y000952D02*
X014272Y001006D01*
X014271Y001005D02*
X014480Y000790D01*
X014736Y000634D01*
X015022Y000545D01*
X015322Y000530D01*
X015615Y000590D01*
X015886Y000720D01*
X016115Y000912D01*
X016290Y001156D01*
X016400Y001435D01*
X016437Y001732D01*
X016400Y002029D01*
X016290Y002308D01*
X016115Y002552D01*
X015886Y002744D01*
X015615Y002874D01*
X015322Y002934D01*
X015022Y002919D01*
X014736Y002830D01*
X014480Y002674D01*
X014271Y002459D01*
X014200Y002512D01*
X014199Y002513D01*
X014412Y002734D01*
X014671Y002899D01*
X014961Y002998D01*
X015267Y003027D01*
X015570Y002982D01*
X015855Y002867D01*
X016105Y002689D01*
X016305Y002457D01*
X016446Y002184D01*
X016518Y001885D01*
X016518Y001579D01*
X016446Y001280D01*
X016305Y001007D01*
X016105Y000775D01*
X015855Y000597D01*
X015570Y000482D01*
X015267Y000437D01*
X014961Y000466D01*
X014671Y000565D01*
X014412Y000730D01*
X014199Y000951D01*
X014206Y000956D01*
X014418Y000737D01*
X014675Y000573D01*
X014963Y000474D01*
X015266Y000446D01*
X015568Y000491D01*
X015851Y000605D01*
X016099Y000782D01*
X016298Y001012D01*
X016437Y001283D01*
X016509Y001580D01*
X016509Y001884D01*
X016437Y002181D01*
X016298Y002452D01*
X016099Y002682D01*
X015851Y002859D01*
X015568Y002973D01*
X015266Y003018D01*
X014963Y002990D01*
X014675Y002891D01*
X014418Y002727D01*
X014206Y002508D01*
X014213Y002502D01*
X014423Y002720D01*
X014679Y002883D01*
X014965Y002981D01*
X015266Y003009D01*
X015566Y002965D01*
X015846Y002852D01*
X016093Y002676D01*
X016290Y002447D01*
X016429Y002177D01*
X016500Y001883D01*
X016500Y001581D01*
X016429Y001287D01*
X016290Y001017D01*
X016093Y000788D01*
X015846Y000612D01*
X015566Y000499D01*
X015266Y000455D01*
X014965Y000483D01*
X014679Y000581D01*
X014423Y000744D01*
X014213Y000962D01*
X014221Y000967D01*
X014429Y000751D01*
X014682Y000589D01*
X014967Y000492D01*
X015266Y000464D01*
X015563Y000508D01*
X015842Y000620D01*
X016086Y000795D01*
X016283Y001022D01*
X016420Y001290D01*
X016491Y001582D01*
X016491Y001882D01*
X016420Y002174D01*
X016283Y002442D01*
X016086Y002669D01*
X015842Y002844D01*
X015563Y002956D01*
X015266Y003000D01*
X014967Y002972D01*
X014682Y002875D01*
X014429Y002713D01*
X014221Y002497D01*
X014228Y002491D01*
X014435Y002706D01*
X014686Y002867D01*
X014969Y002963D01*
X015266Y002991D01*
X015561Y002947D01*
X015838Y002836D01*
X016080Y002662D01*
X016275Y002436D01*
X016412Y002171D01*
X016482Y001881D01*
X016482Y001583D01*
X016412Y001293D01*
X016275Y001028D01*
X016080Y000802D01*
X015838Y000628D01*
X015561Y000517D01*
X015266Y000473D01*
X014969Y000501D01*
X014686Y000597D01*
X014435Y000758D01*
X014228Y000973D01*
X014235Y000978D01*
X014452Y000755D01*
X014717Y000593D01*
X015014Y000501D01*
X015325Y000485D01*
X015630Y000547D01*
X015910Y000682D01*
X016148Y000882D01*
X016330Y001134D01*
X016443Y001423D01*
X016482Y001732D01*
X016443Y002041D01*
X016330Y002330D01*
X016148Y002582D01*
X015910Y002782D01*
X015630Y002917D01*
X015325Y002979D01*
X015014Y002963D01*
X014717Y002871D01*
X014452Y002709D01*
X014235Y002486D01*
X014242Y002481D01*
X014458Y002702D01*
X014721Y002863D01*
X015016Y002954D01*
X015324Y002970D01*
X015627Y002909D01*
X015905Y002775D01*
X016142Y002576D01*
X016322Y002326D01*
X016435Y002038D01*
X016473Y001732D01*
X016435Y001426D01*
X016322Y001138D01*
X016142Y000888D01*
X015905Y000689D01*
X015627Y000555D01*
X015324Y000494D01*
X015016Y000510D01*
X014721Y000601D01*
X014458Y000762D01*
X014242Y000983D01*
X014249Y000989D01*
X014463Y000769D01*
X014725Y000609D01*
X015017Y000519D01*
X015324Y000503D01*
X015624Y000564D01*
X015900Y000697D01*
X016135Y000894D01*
X016314Y001143D01*
X016426Y001428D01*
X016464Y001732D01*
X016426Y002036D01*
X016314Y002321D01*
X016135Y002570D01*
X015900Y002767D01*
X015624Y002900D01*
X015324Y002961D01*
X015017Y002945D01*
X014725Y002855D01*
X014463Y002695D01*
X014249Y002475D01*
X014257Y002470D01*
X014469Y002688D01*
X014728Y002846D01*
X015019Y002936D01*
X015323Y002952D01*
X015621Y002891D01*
X015895Y002760D01*
X016128Y002564D01*
X016306Y002317D01*
X016417Y002034D01*
X016455Y001732D01*
X016417Y001430D01*
X016306Y001147D01*
X016128Y000900D01*
X015895Y000704D01*
X015621Y000573D01*
X015323Y000512D01*
X015019Y000528D01*
X014728Y000618D01*
X014469Y000776D01*
X014257Y000994D01*
X014264Y001000D01*
X014475Y000783D01*
X014732Y000626D01*
X015021Y000537D01*
X015322Y000521D01*
X015618Y000581D01*
X015890Y000712D01*
X016122Y000906D01*
X016298Y001151D01*
X016408Y001432D01*
X016446Y001732D01*
X016408Y002032D01*
X016298Y002313D01*
X016122Y002558D01*
X015890Y002752D01*
X015618Y002883D01*
X015322Y002943D01*
X015021Y002927D01*
X014732Y002838D01*
X014475Y002681D01*
X014264Y002464D01*
X012877Y004899D02*
X012932Y004856D01*
X012806Y004647D01*
X012733Y004414D01*
X012719Y004170D01*
X012763Y003930D01*
X012863Y003707D01*
X013013Y003515D01*
X013205Y003364D01*
X013428Y003264D01*
X013408Y003197D01*
X013407Y003197D01*
X013169Y003304D01*
X012964Y003466D01*
X012803Y003671D01*
X012696Y003909D01*
X012649Y004166D01*
X012665Y004427D01*
X012742Y004676D01*
X012877Y004900D01*
X012884Y004894D01*
X012750Y004672D01*
X012673Y004425D01*
X012658Y004167D01*
X012705Y003912D01*
X012811Y003676D01*
X012970Y003472D01*
X013174Y003312D01*
X013410Y003205D01*
X013413Y003214D01*
X013179Y003320D01*
X012977Y003478D01*
X012819Y003680D01*
X012713Y003915D01*
X012667Y004167D01*
X012682Y004423D01*
X012758Y004669D01*
X012891Y004889D01*
X012898Y004883D01*
X012767Y004665D01*
X012691Y004422D01*
X012676Y004168D01*
X012722Y003917D01*
X012826Y003685D01*
X012983Y003485D01*
X013183Y003327D01*
X013415Y003223D01*
X013418Y003231D01*
X013188Y003335D01*
X012989Y003491D01*
X012834Y003690D01*
X012730Y003920D01*
X012685Y004168D01*
X012700Y004420D01*
X012775Y004661D01*
X012905Y004877D01*
X012912Y004872D01*
X012783Y004658D01*
X012709Y004419D01*
X012694Y004169D01*
X012739Y003923D01*
X012842Y003694D01*
X012996Y003497D01*
X013193Y003343D01*
X013421Y003240D01*
X013423Y003248D01*
X013197Y003351D01*
X013002Y003504D01*
X012849Y003699D01*
X012748Y003925D01*
X012703Y004169D01*
X012718Y004417D01*
X012791Y004654D01*
X012919Y004866D01*
X012926Y004861D01*
X012799Y004650D01*
X012727Y004415D01*
X012712Y004170D01*
X012756Y003928D01*
X012857Y003704D01*
X013009Y003510D01*
X013202Y003358D01*
X013426Y003257D01*
X014056Y003197D02*
X014036Y003264D01*
X014258Y003364D01*
X014450Y003515D01*
X014601Y003707D01*
X014701Y003930D01*
X014745Y004170D01*
X014731Y004414D01*
X014658Y004647D01*
X014532Y004856D01*
X014587Y004899D01*
X014587Y004900D01*
X014722Y004676D01*
X014799Y004427D01*
X014815Y004166D01*
X014768Y003909D01*
X014661Y003671D01*
X014500Y003466D01*
X014295Y003304D01*
X014057Y003197D01*
X014054Y003205D01*
X014290Y003312D01*
X014494Y003472D01*
X014653Y003676D01*
X014759Y003912D01*
X014806Y004167D01*
X014791Y004425D01*
X014714Y004672D01*
X014580Y004894D01*
X014573Y004889D01*
X014706Y004669D01*
X014782Y004423D01*
X014797Y004167D01*
X014751Y003915D01*
X014645Y003680D01*
X014487Y003478D01*
X014285Y003320D01*
X014051Y003214D01*
X014049Y003223D01*
X014281Y003327D01*
X014481Y003485D01*
X014638Y003685D01*
X014742Y003917D01*
X014788Y004168D01*
X014773Y004422D01*
X014697Y004665D01*
X014566Y004883D01*
X014559Y004877D01*
X014689Y004661D01*
X014764Y004420D01*
X014779Y004168D01*
X014734Y003920D01*
X014630Y003690D01*
X014475Y003491D01*
X014276Y003335D01*
X014046Y003231D01*
X014043Y003240D01*
X014271Y003343D01*
X014468Y003497D01*
X014622Y003694D01*
X014725Y003923D01*
X014770Y004169D01*
X014755Y004419D01*
X014681Y004658D01*
X014552Y004872D01*
X014545Y004866D01*
X014673Y004654D01*
X014746Y004417D01*
X014761Y004169D01*
X014716Y003925D01*
X014615Y003699D01*
X014462Y003504D01*
X014267Y003351D01*
X014041Y003248D01*
X014038Y003257D01*
X014262Y003358D01*
X014455Y003510D01*
X014607Y003704D01*
X014708Y003928D01*
X014752Y004170D01*
X014737Y004415D01*
X014665Y004650D01*
X014538Y004861D01*
D15*
X012362Y006402D02*
X012362Y006562D01*
X012362Y006482D02*
X012122Y006482D01*
X012202Y006402D01*
X012122Y006660D02*
X012362Y006820D01*
X012122Y006820D01*
X012242Y006917D02*
X012242Y007078D01*
X012202Y007175D02*
X012122Y007255D01*
X012362Y007255D01*
X012362Y007175D02*
X012362Y007335D01*
X012242Y007433D02*
X012242Y007593D01*
X012282Y007691D02*
X012242Y007731D01*
X012242Y007811D01*
X012282Y007851D01*
X012322Y007851D01*
X012362Y007811D01*
X012362Y007731D01*
X012322Y007691D01*
X012282Y007691D01*
X012242Y007731D02*
X012202Y007691D01*
X012162Y007691D01*
X012122Y007731D01*
X012122Y007811D01*
X012162Y007851D01*
X012202Y007851D01*
X012242Y007811D01*
X012362Y007553D02*
X012122Y007553D01*
X012242Y007433D01*
X012362Y007037D02*
X012122Y007037D01*
X012242Y006917D01*
X012362Y006660D02*
X012122Y006660D01*
M02*
