%
M48
M72
T01C0.0320
T02C0.0354
T03C0.0433
T04C0.0472
T05C0.0512
T06C0.0787
T07C0.0810
T08C0.1300
%
T01
X13232Y4232
X13732Y3482
X14232Y4232
X14732Y1732
X15732Y1732
T02
X12232Y1732
X12232Y4732
X12232Y5732
X13232Y5732
X14232Y5732
X14232Y8732
X13232Y8732
X12232Y8732
T03
X9629Y4189
X5629Y4189
T04
X16232Y5882
X16232Y7260
X16232Y8638
T05
X1732Y6232
X1732Y4263
T06
X2982Y4232
X2982Y6232
X11126Y10189
X11126Y13192
T07
X4133Y9189
T08
X1232Y1232
X1232Y13732
X17732Y13732
X17732Y1232
M30
