G75*
G70*
%OFA0B0*%
%FSLAX24Y24*%
%IPPOS*%
%LPD*%
%AMOC8*
5,1,8,0,0,1.08239X$1,22.5*
%
%ADD10C,0.0010*%
%ADD11R,0.0195X0.0191*%
D10*
X008539Y007745D02*
X008528Y007760D01*
X008512Y007778D01*
X008494Y007795D01*
X008458Y007817D01*
X008419Y007832D01*
X008378Y007838D01*
X008299Y007836D01*
X008260Y007828D01*
X008225Y007811D01*
X008194Y007787D01*
X008175Y007764D01*
X008159Y007739D01*
X008149Y007711D01*
X008139Y007667D01*
X008136Y007623D01*
X008136Y007208D01*
X008297Y007208D01*
X008297Y007588D01*
X008299Y007617D01*
X008307Y007645D01*
X008320Y007671D01*
X008332Y007687D01*
X008348Y007700D01*
X008366Y007709D01*
X008379Y007712D01*
X008392Y007713D01*
X008436Y007711D01*
X008459Y007707D01*
X008713Y007707D01*
X008713Y007699D02*
X008480Y007699D01*
X008499Y007686D01*
X008520Y007663D01*
X008535Y007635D01*
X008544Y007604D01*
X008547Y007573D01*
X008547Y007546D01*
X008547Y007204D01*
X008713Y007204D01*
X008713Y007823D01*
X008554Y007823D01*
X008554Y007736D01*
X008551Y007736D01*
X008547Y007737D01*
X008544Y007739D01*
X008539Y007745D01*
X008528Y007760D01*
X008529Y007758D02*
X008171Y007758D01*
X008166Y007750D02*
X008535Y007750D01*
X008542Y007741D02*
X008161Y007741D01*
X008157Y007733D02*
X008713Y007733D01*
X008713Y007741D02*
X008554Y007741D01*
X008554Y007736D02*
X008551Y007736D01*
X008554Y007736D02*
X008554Y007823D01*
X008713Y007823D01*
X008713Y007204D01*
X008547Y007204D01*
X008547Y007546D01*
X008547Y007545D02*
X008713Y007545D01*
X008713Y007553D02*
X008547Y007553D01*
X008547Y007562D02*
X008713Y007562D01*
X008713Y007571D02*
X008547Y007571D01*
X008546Y007579D02*
X008713Y007579D01*
X008713Y007588D02*
X008545Y007588D01*
X008544Y007596D02*
X008713Y007596D01*
X008713Y007605D02*
X008543Y007605D01*
X008541Y007613D02*
X008713Y007613D01*
X008713Y007622D02*
X008539Y007622D01*
X008536Y007630D02*
X008713Y007630D01*
X008713Y007639D02*
X008533Y007639D01*
X008528Y007647D02*
X008713Y007647D01*
X008713Y007656D02*
X008523Y007656D01*
X008518Y007664D02*
X008713Y007664D01*
X008713Y007673D02*
X008510Y007673D01*
X008503Y007682D02*
X008713Y007682D01*
X008713Y007690D02*
X008493Y007690D01*
X008480Y007699D02*
X008459Y007707D01*
X008522Y007767D02*
X008177Y007767D01*
X008184Y007776D02*
X008514Y007776D01*
X008506Y007784D02*
X008192Y007784D01*
X008201Y007793D02*
X008496Y007793D01*
X008484Y007801D02*
X008212Y007801D01*
X008223Y007810D02*
X008470Y007810D01*
X008455Y007818D02*
X008240Y007818D01*
X008258Y007827D02*
X008432Y007827D01*
X008394Y007835D02*
X008297Y007835D01*
X008363Y007707D02*
X008148Y007707D01*
X008146Y007699D02*
X008346Y007699D01*
X008336Y007690D02*
X008144Y007690D01*
X008142Y007682D02*
X008328Y007682D01*
X008321Y007673D02*
X008141Y007673D01*
X008139Y007664D02*
X008317Y007664D01*
X008194Y007786D02*
X008149Y007710D01*
X008151Y007716D02*
X008713Y007716D01*
X008713Y007724D02*
X008154Y007724D01*
X008139Y007656D02*
X008313Y007656D01*
X008195Y007786D02*
X008243Y007820D01*
X008299Y007835D01*
X008308Y007647D02*
X008138Y007647D01*
X008137Y007639D02*
X008306Y007639D01*
X008303Y007630D02*
X008136Y007630D01*
X008136Y007623D02*
X008136Y007208D01*
X008297Y007208D01*
X008297Y007588D01*
X008136Y007588D01*
X008136Y007596D02*
X008298Y007596D01*
X008298Y007605D02*
X008136Y007605D01*
X008136Y007613D02*
X008299Y007613D01*
X008301Y007622D02*
X008136Y007622D01*
X008136Y007579D02*
X008297Y007579D01*
X008297Y007571D02*
X008136Y007571D01*
X008136Y007562D02*
X008297Y007562D01*
X008297Y007553D02*
X008136Y007553D01*
X008136Y007545D02*
X008297Y007545D01*
X008297Y007536D02*
X008136Y007536D01*
X008136Y007528D02*
X008297Y007528D01*
X008297Y007519D02*
X008136Y007519D01*
X008136Y007511D02*
X008297Y007511D01*
X008297Y007502D02*
X008136Y007502D01*
X008136Y007494D02*
X008297Y007494D01*
X008297Y007485D02*
X008136Y007485D01*
X008136Y007477D02*
X008297Y007477D01*
X008297Y007468D02*
X008136Y007468D01*
X008136Y007459D02*
X008297Y007459D01*
X008297Y007451D02*
X008136Y007451D01*
X008136Y007442D02*
X008297Y007442D01*
X008297Y007434D02*
X008136Y007434D01*
X008136Y007425D02*
X008297Y007425D01*
X008297Y007417D02*
X008136Y007417D01*
X008136Y007408D02*
X008297Y007408D01*
X008297Y007400D02*
X008136Y007400D01*
X008136Y007391D02*
X008297Y007391D01*
X008297Y007383D02*
X008136Y007383D01*
X008136Y007374D02*
X008297Y007374D01*
X008297Y007365D02*
X008136Y007365D01*
X008136Y007357D02*
X008297Y007357D01*
X008297Y007348D02*
X008136Y007348D01*
X008136Y007340D02*
X008297Y007340D01*
X008297Y007331D02*
X008136Y007331D01*
X008136Y007323D02*
X008297Y007323D01*
X008297Y007314D02*
X008136Y007314D01*
X008136Y007306D02*
X008297Y007306D01*
X008297Y007297D02*
X008136Y007297D01*
X008136Y007289D02*
X008297Y007289D01*
X008297Y007280D02*
X008136Y007280D01*
X008136Y007271D02*
X008297Y007271D01*
X008297Y007263D02*
X008136Y007263D01*
X008136Y007254D02*
X008297Y007254D01*
X008297Y007246D02*
X008136Y007246D01*
X008136Y007237D02*
X008297Y007237D01*
X008297Y007229D02*
X008136Y007229D01*
X008136Y007220D02*
X008297Y007220D01*
X008297Y007212D02*
X008136Y007212D01*
X007781Y007383D02*
X007607Y007383D01*
X007606Y007381D02*
X007587Y007355D01*
X007562Y007335D01*
X007533Y007322D01*
X007501Y007314D01*
X007469Y007313D01*
X007445Y007316D01*
X007421Y007323D01*
X007400Y007334D01*
X007382Y007348D01*
X007367Y007366D01*
X007354Y007390D01*
X007345Y007416D01*
X007341Y007443D01*
X007181Y007443D01*
X007181Y007441D01*
X007182Y007422D01*
X007186Y007404D01*
X007207Y007349D01*
X007239Y007300D01*
X007281Y007258D01*
X007330Y007226D01*
X007373Y007208D01*
X007418Y007197D01*
X007465Y007193D01*
X007527Y007197D01*
X007589Y007208D01*
X007631Y007222D01*
X007670Y007242D01*
X007705Y007269D01*
X007736Y007302D01*
X007763Y007342D01*
X007783Y007386D01*
X007796Y007432D01*
X007802Y007480D01*
X007799Y007578D01*
X007787Y007636D01*
X007764Y007692D01*
X007732Y007742D01*
X007690Y007785D01*
X007641Y007819D01*
X007586Y007843D01*
X007527Y007856D01*
X007466Y007857D01*
X007409Y007849D01*
X007354Y007837D01*
X007308Y007819D01*
X007268Y007791D01*
X007234Y007756D01*
X007209Y007714D01*
X007192Y007668D01*
X007183Y007621D01*
X007348Y007621D01*
X007348Y007622D01*
X007183Y007622D01*
X007185Y007630D02*
X007349Y007630D01*
X007348Y007622D02*
X007351Y007645D01*
X007359Y007668D01*
X007371Y007688D01*
X007388Y007705D01*
X007409Y007717D01*
X007441Y007727D01*
X007475Y007731D01*
X007509Y007728D01*
X007542Y007721D01*
X007559Y007713D01*
X007574Y007701D01*
X007601Y007664D01*
X007622Y007623D01*
X007634Y007579D01*
X007799Y007579D01*
X007799Y007571D02*
X007635Y007571D01*
X007634Y007579D02*
X007638Y007533D01*
X007633Y007471D01*
X007619Y007410D01*
X007606Y007381D01*
X007601Y007374D02*
X007778Y007374D01*
X007774Y007365D02*
X007594Y007365D01*
X007588Y007357D02*
X007770Y007357D01*
X007766Y007348D02*
X007578Y007348D01*
X007567Y007340D02*
X007761Y007340D01*
X007756Y007331D02*
X007553Y007331D01*
X007535Y007323D02*
X007750Y007323D01*
X007744Y007314D02*
X007496Y007314D01*
X007457Y007314D02*
X007230Y007314D01*
X007235Y007306D02*
X007738Y007306D01*
X007731Y007297D02*
X007242Y007297D01*
X007250Y007289D02*
X007723Y007289D01*
X007715Y007280D02*
X007259Y007280D01*
X007267Y007271D02*
X007707Y007271D01*
X007697Y007263D02*
X007276Y007263D01*
X007286Y007254D02*
X007686Y007254D01*
X007675Y007246D02*
X007299Y007246D01*
X007312Y007237D02*
X007660Y007237D01*
X007644Y007229D02*
X007325Y007229D01*
X007343Y007220D02*
X007626Y007220D01*
X007601Y007212D02*
X007363Y007212D01*
X007391Y007203D02*
X007563Y007203D01*
X007494Y007195D02*
X007442Y007195D01*
X007422Y007323D02*
X007224Y007323D01*
X007219Y007331D02*
X007405Y007331D01*
X007392Y007340D02*
X007213Y007340D01*
X007208Y007348D02*
X007381Y007348D01*
X007374Y007357D02*
X007204Y007357D01*
X007201Y007365D02*
X007367Y007365D01*
X007362Y007374D02*
X007197Y007374D01*
X007194Y007383D02*
X007358Y007383D01*
X007353Y007391D02*
X007191Y007391D01*
X007187Y007400D02*
X007350Y007400D01*
X007348Y007408D02*
X007185Y007408D01*
X007183Y007417D02*
X007345Y007417D01*
X007344Y007425D02*
X007182Y007425D01*
X007181Y007434D02*
X007342Y007434D01*
X007341Y007442D02*
X007181Y007442D01*
X007115Y007451D02*
X006961Y007451D01*
X006960Y007446D02*
X006945Y007400D01*
X006923Y007358D01*
X006856Y007317D01*
X006785Y007308D01*
X006714Y007332D01*
X006670Y007372D01*
X006648Y007421D01*
X006633Y007483D01*
X006633Y007540D01*
X006643Y007617D01*
X006673Y007682D01*
X006707Y007715D01*
X006746Y007736D01*
X006794Y007740D01*
X006798Y007740D01*
X006796Y007857D01*
X006717Y007847D01*
X006653Y007825D01*
X006575Y007771D01*
X006532Y007721D01*
X006491Y007629D01*
X006480Y007543D01*
X006490Y007460D01*
X006517Y007363D01*
X006549Y007312D01*
X006596Y007267D01*
X006640Y007236D01*
X006713Y007211D01*
X006812Y007201D01*
X006930Y007217D01*
X007042Y007287D01*
X007105Y007385D01*
X007129Y007538D01*
X007097Y007678D01*
X007013Y007785D01*
X006880Y007851D01*
X006822Y007858D01*
X006820Y007858D01*
X006815Y007856D01*
X006815Y007741D01*
X006859Y007735D01*
X006906Y007709D01*
X006938Y007665D01*
X006954Y007629D01*
X006965Y007570D01*
X006967Y007496D01*
X006960Y007446D01*
X006959Y007442D02*
X007114Y007442D01*
X007112Y007434D02*
X006956Y007434D01*
X006953Y007425D02*
X007111Y007425D01*
X007110Y007417D02*
X006950Y007417D01*
X006948Y007408D02*
X007108Y007408D01*
X007107Y007400D02*
X006945Y007400D01*
X006940Y007391D02*
X007106Y007391D01*
X007103Y007383D02*
X006936Y007383D01*
X006931Y007374D02*
X007098Y007374D01*
X007092Y007365D02*
X006927Y007365D01*
X006921Y007357D02*
X007087Y007357D01*
X007081Y007348D02*
X006907Y007348D01*
X006893Y007340D02*
X007076Y007340D01*
X007070Y007331D02*
X006880Y007331D01*
X006866Y007323D02*
X007065Y007323D01*
X007059Y007314D02*
X006835Y007314D01*
X006766Y007314D02*
X006547Y007314D01*
X006542Y007323D02*
X006741Y007323D01*
X006715Y007331D02*
X006537Y007331D01*
X006531Y007340D02*
X006705Y007340D01*
X006696Y007348D02*
X006526Y007348D01*
X006520Y007357D02*
X006686Y007357D01*
X006677Y007365D02*
X006516Y007365D01*
X006514Y007374D02*
X006669Y007374D01*
X006665Y007383D02*
X006511Y007383D01*
X006509Y007391D02*
X006661Y007391D01*
X006657Y007400D02*
X006507Y007400D01*
X006504Y007408D02*
X006654Y007408D01*
X006650Y007417D02*
X006502Y007417D01*
X006499Y007425D02*
X006647Y007425D01*
X006645Y007434D02*
X006497Y007434D01*
X006495Y007442D02*
X006643Y007442D01*
X006641Y007451D02*
X006492Y007451D01*
X006490Y007459D02*
X006638Y007459D01*
X006636Y007468D02*
X006489Y007468D01*
X006488Y007477D02*
X006634Y007477D01*
X006633Y007485D02*
X006487Y007485D01*
X006486Y007494D02*
X006633Y007494D01*
X006633Y007502D02*
X006485Y007502D01*
X006484Y007511D02*
X006633Y007511D01*
X006633Y007519D02*
X006483Y007519D01*
X006482Y007528D02*
X006633Y007528D01*
X006633Y007536D02*
X006481Y007536D01*
X006480Y007545D02*
X006633Y007545D01*
X006635Y007553D02*
X006481Y007553D01*
X006482Y007562D02*
X006636Y007562D01*
X006637Y007571D02*
X006483Y007571D01*
X006484Y007579D02*
X006638Y007579D01*
X006639Y007588D02*
X006486Y007588D01*
X006487Y007596D02*
X006640Y007596D01*
X006641Y007605D02*
X006488Y007605D01*
X006489Y007613D02*
X006642Y007613D01*
X006645Y007622D02*
X006490Y007622D01*
X006491Y007630D02*
X006649Y007630D01*
X006653Y007639D02*
X006495Y007639D01*
X006499Y007647D02*
X006657Y007647D01*
X006661Y007656D02*
X006503Y007656D01*
X006507Y007664D02*
X006665Y007664D01*
X006669Y007673D02*
X006511Y007673D01*
X006514Y007682D02*
X006673Y007682D01*
X006681Y007690D02*
X006518Y007690D01*
X006522Y007699D02*
X006690Y007699D01*
X006699Y007707D02*
X006526Y007707D01*
X006530Y007716D02*
X006709Y007716D01*
X006724Y007724D02*
X006535Y007724D01*
X006542Y007733D02*
X006740Y007733D01*
X006798Y007741D02*
X006549Y007741D01*
X006557Y007750D02*
X006798Y007750D01*
X006798Y007758D02*
X006564Y007758D01*
X006572Y007767D02*
X006797Y007767D01*
X006797Y007776D02*
X006582Y007776D01*
X006594Y007784D02*
X006797Y007784D01*
X006797Y007793D02*
X006606Y007793D01*
X006619Y007801D02*
X006797Y007801D01*
X006797Y007810D02*
X006631Y007810D01*
X006643Y007818D02*
X006796Y007818D01*
X006796Y007827D02*
X006659Y007827D01*
X006684Y007835D02*
X006796Y007835D01*
X006796Y007844D02*
X006708Y007844D01*
X006761Y007852D02*
X006796Y007852D01*
X006796Y007861D02*
X006802Y007861D01*
X006802Y007736D01*
X006810Y007734D02*
X006819Y007734D01*
X006815Y007741D02*
X007047Y007741D01*
X007054Y007733D02*
X006862Y007733D01*
X006878Y007724D02*
X007060Y007724D01*
X007067Y007716D02*
X006893Y007716D01*
X006907Y007707D02*
X007074Y007707D01*
X007080Y007699D02*
X006913Y007699D01*
X006919Y007690D02*
X007087Y007690D01*
X007094Y007682D02*
X006926Y007682D01*
X006932Y007673D02*
X007098Y007673D01*
X007100Y007664D02*
X006938Y007664D01*
X006942Y007656D02*
X007102Y007656D01*
X007104Y007647D02*
X006946Y007647D01*
X006949Y007639D02*
X007106Y007639D01*
X007108Y007630D02*
X006953Y007630D01*
X006955Y007622D02*
X007110Y007622D01*
X007112Y007613D02*
X006957Y007613D01*
X006958Y007605D02*
X007114Y007605D01*
X007116Y007596D02*
X006960Y007596D01*
X006961Y007588D02*
X007117Y007588D01*
X007119Y007579D02*
X006963Y007579D01*
X006965Y007571D02*
X007121Y007571D01*
X007123Y007562D02*
X006965Y007562D01*
X006965Y007553D02*
X007125Y007553D01*
X007127Y007545D02*
X006965Y007545D01*
X006508Y007369D02*
X006474Y007543D01*
X006408Y007545D02*
X006238Y007545D01*
X006238Y007553D02*
X006408Y007553D01*
X006408Y007562D02*
X006238Y007562D01*
X006238Y007571D02*
X006408Y007571D01*
X006408Y007579D02*
X006238Y007579D01*
X006238Y007588D02*
X006408Y007588D01*
X006408Y007596D02*
X006238Y007596D01*
X006238Y007594D02*
X006238Y007208D01*
X006408Y007208D01*
X006408Y007840D01*
X006251Y007840D01*
X006251Y007753D01*
X006242Y007755D01*
X006229Y007772D01*
X006199Y007803D01*
X006169Y007827D01*
X005929Y007827D01*
X005932Y007829D02*
X005904Y007807D01*
X005881Y007781D01*
X005864Y007751D01*
X005862Y007751D01*
X005860Y007752D01*
X005857Y007756D01*
X005839Y007775D01*
X005808Y007805D01*
X005773Y007830D01*
X005741Y007845D01*
X005707Y007854D01*
X005672Y007857D01*
X005621Y007853D01*
X005621Y007852D02*
X005714Y007852D01*
X005744Y007844D02*
X005577Y007844D01*
X005572Y007843D02*
X005538Y007830D01*
X005507Y007810D01*
X005482Y007784D01*
X005829Y007784D01*
X005820Y007793D02*
X005490Y007793D01*
X005499Y007801D02*
X005811Y007801D01*
X005801Y007810D02*
X005507Y007810D01*
X005520Y007818D02*
X005789Y007818D01*
X005777Y007827D02*
X005533Y007827D01*
X005552Y007835D02*
X005761Y007835D01*
X005838Y007776D02*
X005477Y007776D01*
X005482Y007784D02*
X005459Y007747D01*
X005443Y007706D01*
X005437Y007663D01*
X005437Y007207D01*
X005604Y007207D01*
X005604Y007612D01*
X005608Y007647D01*
X005621Y007681D01*
X005632Y007697D01*
X005646Y007710D01*
X005663Y007719D01*
X005682Y007725D01*
X005718Y007728D01*
X005755Y007724D01*
X005772Y007719D01*
X005787Y007710D01*
X005801Y007698D01*
X005817Y007676D01*
X005828Y007652D01*
X005834Y007626D01*
X005837Y007582D01*
X005837Y007207D01*
X006007Y007207D01*
X006007Y007623D01*
X006010Y007650D01*
X006020Y007675D01*
X006035Y007698D01*
X006049Y007711D01*
X006066Y007721D01*
X006085Y007726D01*
X006105Y007728D01*
X006139Y007726D01*
X006157Y007722D01*
X006174Y007715D01*
X006189Y007704D01*
X006222Y007666D01*
X006234Y007644D01*
X006239Y007619D01*
X006238Y007594D01*
X006238Y007605D02*
X006408Y007605D01*
X006408Y007613D02*
X006239Y007613D01*
X006238Y007622D02*
X006408Y007622D01*
X006408Y007630D02*
X006236Y007630D01*
X006235Y007639D02*
X006408Y007639D01*
X006408Y007647D02*
X006231Y007647D01*
X006227Y007656D02*
X006408Y007656D01*
X006408Y007664D02*
X006222Y007664D01*
X006216Y007673D02*
X006408Y007673D01*
X006408Y007682D02*
X006208Y007682D01*
X006201Y007690D02*
X006408Y007690D01*
X006408Y007699D02*
X006193Y007699D01*
X006184Y007707D02*
X006408Y007707D01*
X006408Y007716D02*
X006172Y007716D01*
X006147Y007724D02*
X006408Y007724D01*
X006408Y007733D02*
X005453Y007733D01*
X005450Y007724D02*
X005680Y007724D01*
X005656Y007716D02*
X005447Y007716D01*
X005444Y007707D02*
X005643Y007707D01*
X005634Y007699D02*
X005442Y007699D01*
X005441Y007690D02*
X005627Y007690D01*
X005621Y007682D02*
X005440Y007682D01*
X005438Y007673D02*
X005618Y007673D01*
X005615Y007664D02*
X005437Y007664D01*
X005437Y007656D02*
X005611Y007656D01*
X005608Y007647D02*
X005437Y007647D01*
X005437Y007639D02*
X005607Y007639D01*
X005606Y007630D02*
X005437Y007630D01*
X005437Y007622D02*
X005605Y007622D01*
X005604Y007613D02*
X005437Y007613D01*
X005437Y007605D02*
X005604Y007605D01*
X005604Y007596D02*
X005437Y007596D01*
X005437Y007588D02*
X005604Y007588D01*
X005604Y007579D02*
X005437Y007579D01*
X005437Y007571D02*
X005604Y007571D01*
X005604Y007562D02*
X005437Y007562D01*
X005437Y007553D02*
X005604Y007553D01*
X005604Y007545D02*
X005437Y007545D01*
X005437Y007536D02*
X005604Y007536D01*
X005604Y007528D02*
X005437Y007528D01*
X005437Y007519D02*
X005604Y007519D01*
X005604Y007511D02*
X005437Y007511D01*
X005437Y007502D02*
X005604Y007502D01*
X005604Y007494D02*
X005437Y007494D01*
X005437Y007485D02*
X005604Y007485D01*
X005604Y007477D02*
X005437Y007477D01*
X005437Y007468D02*
X005604Y007468D01*
X005604Y007459D02*
X005437Y007459D01*
X005437Y007451D02*
X005604Y007451D01*
X005604Y007442D02*
X005437Y007442D01*
X005437Y007434D02*
X005604Y007434D01*
X005604Y007425D02*
X005437Y007425D01*
X005437Y007417D02*
X005604Y007417D01*
X005604Y007408D02*
X005437Y007408D01*
X005437Y007400D02*
X005604Y007400D01*
X005604Y007391D02*
X005437Y007391D01*
X005437Y007383D02*
X005604Y007383D01*
X005604Y007374D02*
X005437Y007374D01*
X005437Y007365D02*
X005604Y007365D01*
X005604Y007357D02*
X005437Y007357D01*
X005437Y007348D02*
X005604Y007348D01*
X005604Y007340D02*
X005437Y007340D01*
X005437Y007331D02*
X005604Y007331D01*
X005604Y007323D02*
X005437Y007323D01*
X005437Y007314D02*
X005604Y007314D01*
X005604Y007306D02*
X005437Y007306D01*
X005437Y007297D02*
X005604Y007297D01*
X005604Y007289D02*
X005437Y007289D01*
X005437Y007280D02*
X005604Y007280D01*
X005604Y007271D02*
X005437Y007271D01*
X005437Y007263D02*
X005604Y007263D01*
X005604Y007254D02*
X005437Y007254D01*
X005437Y007246D02*
X005604Y007246D01*
X005604Y007237D02*
X005437Y007237D01*
X005437Y007229D02*
X005604Y007229D01*
X005604Y007220D02*
X005437Y007220D01*
X005437Y007212D02*
X005604Y007212D01*
X005837Y007212D02*
X006007Y007212D01*
X006007Y007220D02*
X005837Y007220D01*
X005837Y007229D02*
X006007Y007229D01*
X006007Y007237D02*
X005837Y007237D01*
X005837Y007246D02*
X006007Y007246D01*
X006007Y007254D02*
X005837Y007254D01*
X005837Y007263D02*
X006007Y007263D01*
X006007Y007271D02*
X005837Y007271D01*
X005837Y007280D02*
X006007Y007280D01*
X006007Y007289D02*
X005837Y007289D01*
X005837Y007297D02*
X006007Y007297D01*
X006007Y007306D02*
X005837Y007306D01*
X005837Y007314D02*
X006007Y007314D01*
X006007Y007323D02*
X005837Y007323D01*
X005837Y007331D02*
X006007Y007331D01*
X006007Y007340D02*
X005837Y007340D01*
X005837Y007348D02*
X006007Y007348D01*
X006007Y007357D02*
X005837Y007357D01*
X005837Y007365D02*
X006007Y007365D01*
X006007Y007374D02*
X005837Y007374D01*
X005837Y007383D02*
X006007Y007383D01*
X006007Y007391D02*
X005837Y007391D01*
X005837Y007400D02*
X006007Y007400D01*
X006007Y007408D02*
X005837Y007408D01*
X005837Y007417D02*
X006007Y007417D01*
X006007Y007425D02*
X005837Y007425D01*
X005837Y007434D02*
X006007Y007434D01*
X006007Y007442D02*
X005837Y007442D01*
X005837Y007451D02*
X006007Y007451D01*
X006007Y007459D02*
X005837Y007459D01*
X005837Y007468D02*
X006007Y007468D01*
X006007Y007477D02*
X005837Y007477D01*
X005837Y007485D02*
X006007Y007485D01*
X006007Y007494D02*
X005837Y007494D01*
X005837Y007502D02*
X006007Y007502D01*
X006007Y007511D02*
X005837Y007511D01*
X005837Y007519D02*
X006007Y007519D01*
X006007Y007528D02*
X005837Y007528D01*
X005837Y007536D02*
X006007Y007536D01*
X006007Y007545D02*
X005837Y007545D01*
X005837Y007553D02*
X006007Y007553D01*
X006007Y007562D02*
X005837Y007562D01*
X005837Y007571D02*
X006007Y007571D01*
X006007Y007579D02*
X005837Y007579D01*
X005836Y007588D02*
X006007Y007588D01*
X006007Y007596D02*
X005836Y007596D01*
X005835Y007605D02*
X006007Y007605D01*
X006007Y007613D02*
X005835Y007613D01*
X005834Y007622D02*
X006007Y007622D01*
X006008Y007630D02*
X005833Y007630D01*
X005831Y007639D02*
X006009Y007639D01*
X006010Y007647D02*
X005829Y007647D01*
X005826Y007656D02*
X006012Y007656D01*
X006016Y007664D02*
X005822Y007664D01*
X005818Y007673D02*
X006019Y007673D01*
X006024Y007682D02*
X005813Y007682D01*
X005806Y007690D02*
X006030Y007690D01*
X006036Y007699D02*
X005800Y007699D01*
X005790Y007707D02*
X006045Y007707D01*
X006057Y007716D02*
X005777Y007716D01*
X005750Y007724D02*
X006078Y007724D01*
X006092Y007852D02*
X005990Y007852D01*
X005999Y007855D02*
X005963Y007845D01*
X005932Y007829D01*
X005944Y007835D02*
X006150Y007835D01*
X006134Y007843D02*
X006091Y007853D01*
X006037Y007858D01*
X005999Y007855D01*
X005961Y007844D02*
X006129Y007844D01*
X006134Y007843D02*
X006169Y007827D01*
X006180Y007818D02*
X005918Y007818D01*
X005907Y007810D02*
X006190Y007810D01*
X006200Y007801D02*
X005899Y007801D01*
X005891Y007793D02*
X006209Y007793D01*
X006217Y007784D02*
X005884Y007784D01*
X005878Y007776D02*
X006225Y007776D01*
X006233Y007767D02*
X005873Y007767D01*
X005868Y007758D02*
X006239Y007758D01*
X006251Y007758D02*
X006408Y007758D01*
X006408Y007750D02*
X005461Y007750D01*
X005457Y007741D02*
X006408Y007741D01*
X006408Y007767D02*
X006251Y007767D01*
X006251Y007776D02*
X006408Y007776D01*
X006408Y007784D02*
X006251Y007784D01*
X006251Y007793D02*
X006408Y007793D01*
X006408Y007801D02*
X006251Y007801D01*
X006251Y007810D02*
X006408Y007810D01*
X006408Y007818D02*
X006251Y007818D01*
X006251Y007827D02*
X006408Y007827D01*
X006408Y007835D02*
X006251Y007835D01*
X006238Y007536D02*
X006408Y007536D01*
X006408Y007528D02*
X006238Y007528D01*
X006238Y007519D02*
X006408Y007519D01*
X006408Y007511D02*
X006238Y007511D01*
X006238Y007502D02*
X006408Y007502D01*
X006408Y007494D02*
X006238Y007494D01*
X006238Y007485D02*
X006408Y007485D01*
X006408Y007477D02*
X006238Y007477D01*
X006238Y007468D02*
X006408Y007468D01*
X006408Y007459D02*
X006238Y007459D01*
X006238Y007451D02*
X006408Y007451D01*
X006408Y007442D02*
X006238Y007442D01*
X006238Y007434D02*
X006408Y007434D01*
X006408Y007425D02*
X006238Y007425D01*
X006238Y007417D02*
X006408Y007417D01*
X006408Y007408D02*
X006238Y007408D01*
X006238Y007400D02*
X006408Y007400D01*
X006408Y007391D02*
X006238Y007391D01*
X006238Y007383D02*
X006408Y007383D01*
X006408Y007374D02*
X006238Y007374D01*
X006238Y007365D02*
X006408Y007365D01*
X006408Y007357D02*
X006238Y007357D01*
X006238Y007348D02*
X006408Y007348D01*
X006408Y007340D02*
X006238Y007340D01*
X006238Y007331D02*
X006408Y007331D01*
X006408Y007323D02*
X006238Y007323D01*
X006238Y007314D02*
X006408Y007314D01*
X006408Y007306D02*
X006238Y007306D01*
X006238Y007297D02*
X006408Y007297D01*
X006408Y007289D02*
X006238Y007289D01*
X006238Y007280D02*
X006408Y007280D01*
X006408Y007271D02*
X006238Y007271D01*
X006238Y007263D02*
X006408Y007263D01*
X006408Y007254D02*
X006238Y007254D01*
X006238Y007246D02*
X006408Y007246D01*
X006408Y007237D02*
X006238Y007237D01*
X006238Y007229D02*
X006408Y007229D01*
X006408Y007220D02*
X006238Y007220D01*
X006238Y007212D02*
X006408Y007212D01*
X006555Y007306D02*
X007054Y007306D01*
X007048Y007297D02*
X006564Y007297D01*
X006573Y007289D02*
X007043Y007289D01*
X007031Y007280D02*
X006582Y007280D01*
X006591Y007271D02*
X007017Y007271D01*
X007004Y007263D02*
X006601Y007263D01*
X006613Y007254D02*
X006990Y007254D01*
X006976Y007246D02*
X006626Y007246D01*
X006638Y007237D02*
X006963Y007237D01*
X006949Y007229D02*
X006660Y007229D01*
X006685Y007220D02*
X006935Y007220D01*
X006892Y007212D02*
X006710Y007212D01*
X006789Y007203D02*
X006829Y007203D01*
X006858Y007325D02*
X006901Y007349D01*
X006932Y007387D01*
X006962Y007459D02*
X007116Y007459D01*
X007118Y007468D02*
X006963Y007468D01*
X006964Y007477D02*
X007119Y007477D01*
X007121Y007485D02*
X006965Y007485D01*
X006967Y007494D02*
X007122Y007494D01*
X007123Y007502D02*
X006967Y007502D01*
X006966Y007511D02*
X007125Y007511D01*
X007126Y007519D02*
X006966Y007519D01*
X006966Y007528D02*
X007127Y007528D01*
X007129Y007536D02*
X006966Y007536D01*
X006638Y007509D02*
X006669Y007387D01*
X006508Y007370D02*
X006572Y007274D01*
X006671Y007215D01*
X006726Y007333D02*
X006669Y007387D01*
X006932Y007387D02*
X006959Y007477D01*
X007081Y007332D02*
X007030Y007273D01*
X006638Y007509D02*
X006649Y007608D01*
X007123Y007599D02*
X007124Y007448D01*
X006698Y007700D02*
X006648Y007608D01*
X006917Y007686D02*
X006946Y007633D01*
X006959Y007574D01*
X007123Y007599D02*
X007073Y007722D01*
X006976Y007812D01*
X006980Y007801D02*
X006815Y007801D01*
X006815Y007793D02*
X006997Y007793D01*
X007013Y007784D02*
X006815Y007784D01*
X006815Y007776D02*
X007020Y007776D01*
X007027Y007767D02*
X006815Y007767D01*
X006815Y007758D02*
X007034Y007758D01*
X007040Y007750D02*
X006815Y007750D01*
X006810Y007734D02*
X006810Y007861D01*
X006815Y007852D02*
X006866Y007852D01*
X006894Y007844D02*
X006815Y007844D01*
X006815Y007835D02*
X006911Y007835D01*
X006928Y007827D02*
X006815Y007827D01*
X006815Y007818D02*
X006945Y007818D01*
X006963Y007810D02*
X006815Y007810D01*
X006671Y007216D02*
X006813Y007194D01*
X006858Y007324D02*
X006791Y007315D01*
X006726Y007332D01*
X007081Y007332D02*
X007124Y007449D01*
X007186Y007639D02*
X007350Y007639D01*
X007351Y007647D02*
X007188Y007647D01*
X007190Y007656D02*
X007354Y007656D01*
X007357Y007664D02*
X007191Y007664D01*
X007194Y007673D02*
X007362Y007673D01*
X007367Y007682D02*
X007197Y007682D01*
X007200Y007690D02*
X007374Y007690D01*
X007382Y007699D02*
X007203Y007699D01*
X007206Y007707D02*
X007393Y007707D01*
X007407Y007716D02*
X007210Y007716D01*
X007215Y007724D02*
X007431Y007724D01*
X007526Y007724D02*
X007743Y007724D01*
X007749Y007716D02*
X007553Y007716D01*
X007566Y007707D02*
X007754Y007707D01*
X007760Y007699D02*
X007575Y007699D01*
X007582Y007690D02*
X007765Y007690D01*
X007769Y007682D02*
X007588Y007682D01*
X007595Y007673D02*
X007772Y007673D01*
X007776Y007664D02*
X007601Y007664D01*
X007605Y007656D02*
X007779Y007656D01*
X007783Y007647D02*
X007610Y007647D01*
X007614Y007639D02*
X007786Y007639D01*
X007788Y007630D02*
X007618Y007630D01*
X007622Y007622D02*
X007790Y007622D01*
X007792Y007613D02*
X007624Y007613D01*
X007627Y007605D02*
X007793Y007605D01*
X007795Y007596D02*
X007629Y007596D01*
X007631Y007588D02*
X007797Y007588D01*
X007799Y007562D02*
X007635Y007562D01*
X007636Y007553D02*
X007800Y007553D01*
X007800Y007545D02*
X007637Y007545D01*
X007637Y007536D02*
X007800Y007536D01*
X007800Y007528D02*
X007637Y007528D01*
X007637Y007519D02*
X007801Y007519D01*
X007801Y007511D02*
X007636Y007511D01*
X007635Y007502D02*
X007801Y007502D01*
X007801Y007494D02*
X007635Y007494D01*
X007634Y007485D02*
X007802Y007485D01*
X007801Y007477D02*
X007633Y007477D01*
X007632Y007468D02*
X007800Y007468D01*
X007799Y007459D02*
X007630Y007459D01*
X007628Y007451D02*
X007798Y007451D01*
X007797Y007442D02*
X007626Y007442D01*
X007624Y007434D02*
X007796Y007434D01*
X007794Y007425D02*
X007622Y007425D01*
X007620Y007417D02*
X007792Y007417D01*
X007789Y007408D02*
X007618Y007408D01*
X007614Y007400D02*
X007787Y007400D01*
X007784Y007391D02*
X007611Y007391D01*
X008547Y007545D02*
X008547Y007572D01*
X008547Y007536D02*
X008713Y007536D01*
X008713Y007528D02*
X008547Y007528D01*
X008547Y007519D02*
X008713Y007519D01*
X008713Y007511D02*
X008547Y007511D01*
X008547Y007502D02*
X008713Y007502D01*
X008713Y007494D02*
X008547Y007494D01*
X008547Y007485D02*
X008713Y007485D01*
X008713Y007477D02*
X008547Y007477D01*
X008547Y007468D02*
X008713Y007468D01*
X008713Y007459D02*
X008547Y007459D01*
X008547Y007451D02*
X008713Y007451D01*
X008713Y007442D02*
X008547Y007442D01*
X008547Y007434D02*
X008713Y007434D01*
X008713Y007425D02*
X008547Y007425D01*
X008547Y007417D02*
X008713Y007417D01*
X008713Y007408D02*
X008547Y007408D01*
X008547Y007400D02*
X008713Y007400D01*
X008713Y007391D02*
X008547Y007391D01*
X008547Y007383D02*
X008713Y007383D01*
X008713Y007374D02*
X008547Y007374D01*
X008547Y007365D02*
X008713Y007365D01*
X008713Y007357D02*
X008547Y007357D01*
X008547Y007348D02*
X008713Y007348D01*
X008713Y007340D02*
X008547Y007340D01*
X008547Y007331D02*
X008713Y007331D01*
X008713Y007323D02*
X008547Y007323D01*
X008547Y007314D02*
X008713Y007314D01*
X008713Y007306D02*
X008547Y007306D01*
X008547Y007297D02*
X008713Y007297D01*
X008713Y007289D02*
X008547Y007289D01*
X008547Y007280D02*
X008713Y007280D01*
X008713Y007271D02*
X008547Y007271D01*
X008547Y007263D02*
X008713Y007263D01*
X008713Y007254D02*
X008547Y007254D01*
X008547Y007246D02*
X008713Y007246D01*
X008713Y007237D02*
X008547Y007237D01*
X008547Y007229D02*
X008713Y007229D01*
X008713Y007220D02*
X008547Y007220D01*
X008547Y007212D02*
X008713Y007212D01*
X008811Y007212D02*
X008969Y007212D01*
X008969Y007207D02*
X008811Y007207D01*
X008811Y007822D01*
X008977Y007822D01*
X008977Y007495D01*
X008980Y007446D01*
X008989Y007398D01*
X008997Y007375D01*
X009011Y007355D01*
X009029Y007339D01*
X009050Y007327D01*
X009078Y007318D01*
X009107Y007315D01*
X009137Y007319D01*
X009165Y007328D01*
X009181Y007337D01*
X009195Y007350D01*
X009207Y007365D01*
X009221Y007396D01*
X009227Y007430D01*
X009227Y007824D01*
X009390Y007824D01*
X009390Y007399D01*
X009386Y007356D01*
X009374Y007314D01*
X008811Y007314D01*
X008811Y007306D02*
X009370Y007306D01*
X009374Y007314D02*
X009355Y007275D01*
X009329Y007240D01*
X009319Y007231D01*
X009283Y007210D01*
X009244Y007197D01*
X009204Y007191D01*
X009145Y007192D01*
X009087Y007201D01*
X009076Y007204D01*
X009067Y007209D01*
X009030Y007235D01*
X008998Y007266D01*
X008970Y007301D01*
X008969Y007301D01*
X008969Y007207D01*
X008969Y007220D02*
X008811Y007220D01*
X008811Y007229D02*
X008969Y007229D01*
X008969Y007237D02*
X008811Y007237D01*
X008811Y007246D02*
X008969Y007246D01*
X008969Y007254D02*
X008811Y007254D01*
X008811Y007263D02*
X008969Y007263D01*
X008969Y007271D02*
X008811Y007271D01*
X008811Y007280D02*
X008969Y007280D01*
X008969Y007289D02*
X008811Y007289D01*
X008811Y007297D02*
X008969Y007297D01*
X008973Y007297D02*
X009366Y007297D01*
X009362Y007289D02*
X008980Y007289D01*
X008986Y007280D02*
X009357Y007280D01*
X009352Y007271D02*
X008993Y007271D01*
X009001Y007263D02*
X009346Y007263D01*
X009340Y007254D02*
X009010Y007254D01*
X009019Y007246D02*
X009333Y007246D01*
X009326Y007237D02*
X009028Y007237D01*
X009039Y007229D02*
X009315Y007229D01*
X009301Y007220D02*
X009051Y007220D01*
X009063Y007212D02*
X009286Y007212D01*
X009263Y007203D02*
X009079Y007203D01*
X009128Y007195D02*
X009230Y007195D01*
X009171Y007331D02*
X009379Y007331D01*
X009377Y007323D02*
X009149Y007323D01*
X009184Y007340D02*
X009381Y007340D01*
X009384Y007348D02*
X009194Y007348D01*
X009201Y007357D02*
X009386Y007357D01*
X009387Y007365D02*
X009207Y007365D01*
X009211Y007374D02*
X009388Y007374D01*
X009388Y007383D02*
X009215Y007383D01*
X009219Y007391D02*
X009389Y007391D01*
X009390Y007400D02*
X009221Y007400D01*
X009223Y007408D02*
X009390Y007408D01*
X009390Y007417D02*
X009224Y007417D01*
X009226Y007425D02*
X009390Y007425D01*
X009390Y007434D02*
X009227Y007434D01*
X009227Y007442D02*
X009390Y007442D01*
X009390Y007451D02*
X009227Y007451D01*
X009227Y007459D02*
X009390Y007459D01*
X009390Y007468D02*
X009227Y007468D01*
X009227Y007477D02*
X009390Y007477D01*
X009390Y007485D02*
X009227Y007485D01*
X009227Y007494D02*
X009390Y007494D01*
X009390Y007502D02*
X009227Y007502D01*
X009227Y007511D02*
X009390Y007511D01*
X009390Y007519D02*
X009227Y007519D01*
X009227Y007528D02*
X009390Y007528D01*
X009390Y007536D02*
X009227Y007536D01*
X009227Y007545D02*
X009390Y007545D01*
X009390Y007553D02*
X009227Y007553D01*
X009227Y007562D02*
X009390Y007562D01*
X009390Y007571D02*
X009227Y007571D01*
X009227Y007579D02*
X009390Y007579D01*
X009390Y007588D02*
X009227Y007588D01*
X009227Y007596D02*
X009390Y007596D01*
X009390Y007605D02*
X009227Y007605D01*
X009227Y007613D02*
X009390Y007613D01*
X009390Y007622D02*
X009227Y007622D01*
X009227Y007630D02*
X009390Y007630D01*
X009390Y007639D02*
X009227Y007639D01*
X009227Y007647D02*
X009390Y007647D01*
X009390Y007656D02*
X009227Y007656D01*
X009227Y007664D02*
X009390Y007664D01*
X009390Y007673D02*
X009227Y007673D01*
X009227Y007682D02*
X009390Y007682D01*
X009390Y007690D02*
X009227Y007690D01*
X009227Y007699D02*
X009390Y007699D01*
X009390Y007707D02*
X009227Y007707D01*
X009227Y007716D02*
X009390Y007716D01*
X009390Y007724D02*
X009227Y007724D01*
X009227Y007733D02*
X009390Y007733D01*
X009390Y007741D02*
X009227Y007741D01*
X009227Y007750D02*
X009390Y007750D01*
X009390Y007758D02*
X009227Y007758D01*
X009227Y007767D02*
X009390Y007767D01*
X009390Y007776D02*
X009227Y007776D01*
X009227Y007784D02*
X009390Y007784D01*
X009390Y007793D02*
X009227Y007793D01*
X009227Y007801D02*
X009390Y007801D01*
X009390Y007810D02*
X009227Y007810D01*
X009227Y007818D02*
X009390Y007818D01*
X009448Y007818D02*
X009785Y007818D01*
X009782Y007822D02*
X009728Y007822D01*
X009728Y007840D01*
X009721Y007924D01*
X009715Y007946D01*
X009705Y007967D01*
X009692Y007986D01*
X009663Y008014D01*
X009628Y008035D01*
X009591Y008050D01*
X009551Y008057D01*
X009490Y008057D01*
X009438Y008054D01*
X009437Y008054D01*
X009437Y007935D01*
X009440Y007935D01*
X009451Y007936D01*
X009487Y007939D01*
X009524Y007936D01*
X009536Y007932D01*
X009547Y007924D01*
X009555Y007914D01*
X009562Y007896D01*
X009565Y007877D01*
X009565Y007822D01*
X009521Y007822D01*
X009448Y007822D01*
X009448Y007717D01*
X009566Y007717D01*
X009566Y007204D01*
X009730Y007204D01*
X009730Y007708D01*
X009730Y007716D01*
X009887Y007717D01*
X009782Y007822D01*
X009794Y007810D02*
X009448Y007810D01*
X009448Y007801D02*
X009802Y007801D01*
X009811Y007793D02*
X009448Y007793D01*
X009448Y007784D02*
X009820Y007784D01*
X009828Y007776D02*
X009448Y007776D01*
X009448Y007767D02*
X009837Y007767D01*
X009845Y007758D02*
X009448Y007758D01*
X009448Y007750D02*
X009854Y007750D01*
X009862Y007741D02*
X009448Y007741D01*
X009448Y007733D02*
X009871Y007733D01*
X009879Y007724D02*
X009448Y007724D01*
X009566Y007716D02*
X009730Y007716D01*
X009730Y007707D02*
X009566Y007707D01*
X009566Y007699D02*
X009730Y007699D01*
X009730Y007690D02*
X009566Y007690D01*
X009566Y007682D02*
X009730Y007682D01*
X009730Y007673D02*
X009566Y007673D01*
X009566Y007664D02*
X009730Y007664D01*
X009730Y007656D02*
X009566Y007656D01*
X009566Y007647D02*
X009730Y007647D01*
X009730Y007639D02*
X009566Y007639D01*
X009566Y007630D02*
X009730Y007630D01*
X009730Y007622D02*
X009566Y007622D01*
X009566Y007613D02*
X009730Y007613D01*
X009730Y007605D02*
X009566Y007605D01*
X009566Y007596D02*
X009730Y007596D01*
X009730Y007588D02*
X009566Y007588D01*
X009566Y007579D02*
X009730Y007579D01*
X009730Y007571D02*
X009566Y007571D01*
X009566Y007562D02*
X009730Y007562D01*
X009730Y007553D02*
X009566Y007553D01*
X009566Y007545D02*
X009730Y007545D01*
X009730Y007536D02*
X009566Y007536D01*
X009566Y007528D02*
X009730Y007528D01*
X009730Y007519D02*
X009566Y007519D01*
X009566Y007511D02*
X009730Y007511D01*
X009730Y007502D02*
X009566Y007502D01*
X009566Y007494D02*
X009730Y007494D01*
X009730Y007485D02*
X009566Y007485D01*
X009566Y007477D02*
X009730Y007477D01*
X009730Y007468D02*
X009566Y007468D01*
X009566Y007459D02*
X009730Y007459D01*
X009730Y007451D02*
X009566Y007451D01*
X009566Y007442D02*
X009730Y007442D01*
X009730Y007434D02*
X009566Y007434D01*
X009566Y007425D02*
X009730Y007425D01*
X009730Y007417D02*
X009566Y007417D01*
X009566Y007408D02*
X009730Y007408D01*
X009730Y007400D02*
X009566Y007400D01*
X009566Y007391D02*
X009730Y007391D01*
X009730Y007383D02*
X009566Y007383D01*
X009566Y007374D02*
X009730Y007374D01*
X009730Y007365D02*
X009566Y007365D01*
X009566Y007357D02*
X009730Y007357D01*
X009730Y007348D02*
X009566Y007348D01*
X009566Y007340D02*
X009730Y007340D01*
X009730Y007331D02*
X009566Y007331D01*
X009566Y007323D02*
X009730Y007323D01*
X009730Y007314D02*
X009566Y007314D01*
X009566Y007306D02*
X009730Y007306D01*
X009730Y007297D02*
X009566Y007297D01*
X009566Y007289D02*
X009730Y007289D01*
X009730Y007280D02*
X009566Y007280D01*
X009566Y007271D02*
X009730Y007271D01*
X009730Y007263D02*
X009566Y007263D01*
X009566Y007254D02*
X009730Y007254D01*
X009730Y007246D02*
X009566Y007246D01*
X009566Y007237D02*
X009730Y007237D01*
X009730Y007229D02*
X009566Y007229D01*
X009566Y007220D02*
X009730Y007220D01*
X009730Y007212D02*
X009566Y007212D01*
X009843Y007206D02*
X010043Y007207D01*
X010211Y007484D01*
X010213Y007487D01*
X010284Y007418D01*
X010284Y007208D01*
X010284Y007203D01*
X010447Y007203D01*
X010449Y007205D01*
X010449Y007966D01*
X010286Y008059D01*
X010286Y007597D01*
X010062Y007821D01*
X009878Y007821D01*
X010105Y007599D01*
X009843Y007206D01*
X009847Y007212D02*
X010046Y007212D01*
X010051Y007220D02*
X009852Y007220D01*
X009858Y007229D02*
X010056Y007229D01*
X010061Y007237D02*
X009864Y007237D01*
X009870Y007246D02*
X010066Y007246D01*
X010072Y007254D02*
X009875Y007254D01*
X009881Y007263D02*
X010077Y007263D01*
X010082Y007271D02*
X009887Y007271D01*
X009892Y007280D02*
X010087Y007280D01*
X010092Y007289D02*
X009898Y007289D01*
X009904Y007297D02*
X010098Y007297D01*
X010103Y007306D02*
X009909Y007306D01*
X009915Y007314D02*
X010108Y007314D01*
X010113Y007323D02*
X009921Y007323D01*
X009926Y007331D02*
X010118Y007331D01*
X010123Y007340D02*
X009932Y007340D01*
X009938Y007348D02*
X010129Y007348D01*
X010134Y007357D02*
X009944Y007357D01*
X009949Y007365D02*
X010139Y007365D01*
X010144Y007374D02*
X009955Y007374D01*
X009961Y007383D02*
X010149Y007383D01*
X010155Y007391D02*
X009966Y007391D01*
X009972Y007400D02*
X010160Y007400D01*
X010165Y007408D02*
X009978Y007408D01*
X009983Y007417D02*
X010170Y007417D01*
X010175Y007425D02*
X009989Y007425D01*
X009995Y007434D02*
X010180Y007434D01*
X010186Y007442D02*
X010001Y007442D01*
X010006Y007451D02*
X010191Y007451D01*
X010196Y007459D02*
X010012Y007459D01*
X010018Y007468D02*
X010201Y007468D01*
X010206Y007477D02*
X010023Y007477D01*
X010029Y007485D02*
X010212Y007485D01*
X010215Y007485D02*
X010449Y007485D01*
X010449Y007477D02*
X010223Y007477D01*
X010232Y007468D02*
X010449Y007468D01*
X010449Y007459D02*
X010241Y007459D01*
X010250Y007451D02*
X010449Y007451D01*
X010449Y007442D02*
X010259Y007442D01*
X010267Y007434D02*
X010449Y007434D01*
X010449Y007425D02*
X010276Y007425D01*
X010284Y007417D02*
X010449Y007417D01*
X010449Y007408D02*
X010284Y007408D01*
X010284Y007400D02*
X010449Y007400D01*
X010449Y007391D02*
X010284Y007391D01*
X010284Y007383D02*
X010449Y007383D01*
X010449Y007374D02*
X010284Y007374D01*
X010284Y007365D02*
X010449Y007365D01*
X010449Y007357D02*
X010284Y007357D01*
X010284Y007348D02*
X010449Y007348D01*
X010449Y007340D02*
X010284Y007340D01*
X010284Y007331D02*
X010449Y007331D01*
X010449Y007323D02*
X010284Y007323D01*
X010284Y007314D02*
X010449Y007314D01*
X010449Y007306D02*
X010284Y007306D01*
X010284Y007297D02*
X010449Y007297D01*
X010449Y007289D02*
X010284Y007289D01*
X010284Y007280D02*
X010449Y007280D01*
X010449Y007271D02*
X010284Y007271D01*
X010284Y007263D02*
X010449Y007263D01*
X010449Y007254D02*
X010284Y007254D01*
X010284Y007246D02*
X010449Y007246D01*
X010449Y007237D02*
X010284Y007237D01*
X010284Y007229D02*
X010449Y007229D01*
X010449Y007220D02*
X010284Y007220D01*
X010284Y007212D02*
X010449Y007212D01*
X010447Y007203D02*
X010284Y007203D01*
X010449Y007494D02*
X010035Y007494D01*
X010040Y007502D02*
X010449Y007502D01*
X010449Y007511D02*
X010046Y007511D01*
X010052Y007519D02*
X010449Y007519D01*
X010449Y007528D02*
X010057Y007528D01*
X010063Y007536D02*
X010449Y007536D01*
X010449Y007545D02*
X010069Y007545D01*
X010075Y007553D02*
X010449Y007553D01*
X010449Y007562D02*
X010080Y007562D01*
X010086Y007571D02*
X010449Y007571D01*
X010449Y007579D02*
X010092Y007579D01*
X010097Y007588D02*
X010449Y007588D01*
X010449Y007596D02*
X010103Y007596D01*
X010099Y007605D02*
X010278Y007605D01*
X010286Y007605D02*
X010449Y007605D01*
X010449Y007613D02*
X010286Y007613D01*
X010286Y007622D02*
X010449Y007622D01*
X010449Y007630D02*
X010286Y007630D01*
X010286Y007639D02*
X010449Y007639D01*
X010449Y007647D02*
X010286Y007647D01*
X010286Y007656D02*
X010449Y007656D01*
X010449Y007664D02*
X010286Y007664D01*
X010286Y007673D02*
X010449Y007673D01*
X010449Y007682D02*
X010286Y007682D01*
X010286Y007690D02*
X010449Y007690D01*
X010449Y007699D02*
X010286Y007699D01*
X010286Y007707D02*
X010449Y007707D01*
X010449Y007716D02*
X010286Y007716D01*
X010286Y007724D02*
X010449Y007724D01*
X010449Y007733D02*
X010286Y007733D01*
X010286Y007741D02*
X010449Y007741D01*
X010449Y007750D02*
X010286Y007750D01*
X010286Y007758D02*
X010449Y007758D01*
X010449Y007767D02*
X010286Y007767D01*
X010286Y007776D02*
X010449Y007776D01*
X010449Y007784D02*
X010286Y007784D01*
X010286Y007793D02*
X010449Y007793D01*
X010449Y007801D02*
X010286Y007801D01*
X010286Y007810D02*
X010449Y007810D01*
X010449Y007818D02*
X010286Y007818D01*
X010286Y007827D02*
X010449Y007827D01*
X010449Y007835D02*
X010286Y007835D01*
X010286Y007844D02*
X010449Y007844D01*
X010449Y007852D02*
X010286Y007852D01*
X010286Y007861D02*
X010449Y007861D01*
X010449Y007870D02*
X010286Y007870D01*
X010286Y007878D02*
X010449Y007878D01*
X010449Y007887D02*
X010286Y007887D01*
X010286Y007895D02*
X010449Y007895D01*
X010449Y007904D02*
X010286Y007904D01*
X010286Y007912D02*
X010449Y007912D01*
X010449Y007921D02*
X010286Y007921D01*
X010286Y007929D02*
X010449Y007929D01*
X010449Y007938D02*
X010286Y007938D01*
X010286Y007946D02*
X010449Y007946D01*
X010449Y007955D02*
X010286Y007955D01*
X010286Y007964D02*
X010449Y007964D01*
X010438Y007972D02*
X010286Y007972D01*
X010286Y007981D02*
X010423Y007981D01*
X010408Y007989D02*
X010286Y007989D01*
X010286Y007998D02*
X010393Y007998D01*
X010378Y008006D02*
X010286Y008006D01*
X010286Y008015D02*
X010363Y008015D01*
X010348Y008023D02*
X010286Y008023D01*
X010286Y008032D02*
X010333Y008032D01*
X010318Y008040D02*
X010286Y008040D01*
X010286Y008049D02*
X010303Y008049D01*
X010288Y008057D02*
X010286Y008057D01*
X010093Y008057D02*
X010013Y008057D01*
X010021Y008049D02*
X010093Y008049D01*
X010093Y008040D02*
X010028Y008040D01*
X010036Y008032D02*
X010093Y008032D01*
X010093Y008023D02*
X010044Y008023D01*
X010051Y008015D02*
X010093Y008015D01*
X010093Y008006D02*
X010059Y008006D01*
X010066Y007998D02*
X010093Y007998D01*
X010093Y007989D02*
X010074Y007989D01*
X010081Y007981D02*
X010093Y007981D01*
X010089Y007972D02*
X010093Y007972D01*
X010093Y007968D02*
X009901Y008184D01*
X009867Y008215D01*
X009827Y008239D01*
X009812Y008244D01*
X009797Y008247D01*
X009707Y008247D01*
X009653Y008252D01*
X009601Y008266D01*
X009553Y008290D01*
X009507Y008322D01*
X009467Y008360D01*
X009432Y008404D01*
X009395Y008470D01*
X009370Y008542D01*
X009358Y008617D01*
X009361Y008693D01*
X009369Y008734D01*
X009383Y008773D01*
X009403Y008810D01*
X009439Y008855D01*
X009483Y008891D01*
X009483Y008856D01*
X009484Y008850D01*
X009486Y008845D01*
X009498Y008830D01*
X009513Y008820D01*
X009521Y008817D01*
X009543Y008814D01*
X009566Y008819D01*
X009586Y008829D01*
X009622Y008855D01*
X009638Y008869D01*
X009862Y008869D01*
X009865Y008878D02*
X009646Y008878D01*
X009653Y008886D02*
X009664Y008905D01*
X009673Y008925D01*
X009675Y008938D01*
X009675Y008951D01*
X009668Y008972D01*
X009656Y008992D01*
X009640Y009007D01*
X009620Y009018D01*
X009600Y009023D01*
X009579Y009026D01*
X009555Y009026D01*
X009556Y009027D01*
X009573Y009040D01*
X009593Y009049D01*
X009607Y009055D01*
X009616Y009059D01*
X009650Y009067D01*
X009686Y009071D01*
X009720Y009068D01*
X009753Y009059D01*
X009784Y009044D01*
X009814Y009022D01*
X009842Y008996D01*
X009859Y008972D01*
X009869Y008945D01*
X009873Y008916D01*
X009869Y008887D01*
X009858Y008860D01*
X009811Y008791D01*
X009754Y008730D01*
X009739Y008712D01*
X009729Y008691D01*
X009724Y008668D01*
X009726Y008645D01*
X009734Y008623D01*
X009747Y008604D01*
X009765Y008589D01*
X009787Y008577D01*
X009811Y008569D01*
X009836Y008565D01*
X009865Y008566D01*
X009893Y008575D01*
X009918Y008590D01*
X009931Y008604D01*
X009940Y008621D01*
X009944Y008638D01*
X009944Y008656D01*
X009940Y008674D01*
X009936Y008681D01*
X010044Y008681D01*
X010046Y008679D02*
X010065Y008658D01*
X010081Y008629D01*
X010090Y008598D01*
X010093Y008565D01*
X010093Y007968D01*
X010093Y008066D02*
X010006Y008066D01*
X009998Y008075D02*
X010093Y008075D01*
X010093Y008083D02*
X009990Y008083D01*
X009983Y008092D02*
X010093Y008092D01*
X010093Y008100D02*
X009975Y008100D01*
X009968Y008109D02*
X010093Y008109D01*
X010093Y008117D02*
X009960Y008117D01*
X009952Y008126D02*
X010093Y008126D01*
X010093Y008134D02*
X009945Y008134D01*
X009937Y008143D02*
X010093Y008143D01*
X010093Y008151D02*
X009930Y008151D01*
X009922Y008160D02*
X010093Y008160D01*
X010093Y008169D02*
X009914Y008169D01*
X009907Y008177D02*
X010093Y008177D01*
X010093Y008186D02*
X009899Y008186D01*
X009890Y008194D02*
X010093Y008194D01*
X010093Y008203D02*
X009880Y008203D01*
X009871Y008211D02*
X010093Y008211D01*
X010093Y008220D02*
X009859Y008220D01*
X009844Y008228D02*
X010093Y008228D01*
X010093Y008237D02*
X009830Y008237D01*
X009805Y008245D02*
X010093Y008245D01*
X010093Y008254D02*
X009645Y008254D01*
X009614Y008263D02*
X010093Y008263D01*
X010093Y008271D02*
X009591Y008271D01*
X009574Y008280D02*
X010093Y008280D01*
X010093Y008288D02*
X009556Y008288D01*
X009543Y008297D02*
X010093Y008297D01*
X010093Y008305D02*
X009531Y008305D01*
X009519Y008314D02*
X010093Y008314D01*
X010093Y008322D02*
X009507Y008322D01*
X009498Y008331D02*
X010093Y008331D01*
X010093Y008339D02*
X009489Y008339D01*
X009480Y008348D02*
X010093Y008348D01*
X010093Y008356D02*
X009471Y008356D01*
X009463Y008365D02*
X010093Y008365D01*
X010093Y008374D02*
X009456Y008374D01*
X009449Y008382D02*
X010093Y008382D01*
X010093Y008391D02*
X009442Y008391D01*
X009436Y008399D02*
X010093Y008399D01*
X010093Y008408D02*
X009430Y008408D01*
X009425Y008416D02*
X010093Y008416D01*
X010093Y008425D02*
X009420Y008425D01*
X009415Y008433D02*
X010093Y008433D01*
X010093Y008442D02*
X009410Y008442D01*
X009406Y008450D02*
X010093Y008450D01*
X010093Y008459D02*
X009401Y008459D01*
X009396Y008468D02*
X010093Y008468D01*
X010093Y008476D02*
X009392Y008476D01*
X009389Y008485D02*
X010093Y008485D01*
X010093Y008493D02*
X009387Y008493D01*
X009384Y008502D02*
X010093Y008502D01*
X010093Y008510D02*
X009381Y008510D01*
X009378Y008519D02*
X010093Y008519D01*
X010093Y008527D02*
X009375Y008527D01*
X009372Y008536D02*
X010093Y008536D01*
X010093Y008544D02*
X009369Y008544D01*
X009368Y008553D02*
X010093Y008553D01*
X010093Y008562D02*
X009367Y008562D01*
X009366Y008570D02*
X009807Y008570D01*
X009784Y008579D02*
X009364Y008579D01*
X009363Y008587D02*
X009768Y008587D01*
X009757Y008596D02*
X009362Y008596D01*
X009360Y008604D02*
X009747Y008604D01*
X009741Y008613D02*
X009359Y008613D01*
X009359Y008621D02*
X009735Y008621D01*
X009732Y008630D02*
X009359Y008630D01*
X009359Y008638D02*
X009729Y008638D01*
X009726Y008647D02*
X009359Y008647D01*
X009360Y008656D02*
X009725Y008656D01*
X009725Y008664D02*
X009360Y008664D01*
X009360Y008673D02*
X009725Y008673D01*
X009727Y008681D02*
X009360Y008681D01*
X009361Y008690D02*
X009729Y008690D01*
X009732Y008698D02*
X009362Y008698D01*
X009364Y008707D02*
X009736Y008707D01*
X009741Y008715D02*
X009365Y008715D01*
X009367Y008724D02*
X009749Y008724D01*
X009756Y008732D02*
X009369Y008732D01*
X009372Y008741D02*
X009764Y008741D01*
X009772Y008749D02*
X009375Y008749D01*
X009378Y008758D02*
X009780Y008758D01*
X009789Y008767D02*
X009381Y008767D01*
X009384Y008775D02*
X009797Y008775D01*
X009805Y008784D02*
X009389Y008784D01*
X009393Y008792D02*
X009812Y008792D01*
X009818Y008801D02*
X009398Y008801D01*
X009403Y008809D02*
X009824Y008809D01*
X009830Y008818D02*
X009562Y008818D01*
X009581Y008826D02*
X009835Y008826D01*
X009841Y008835D02*
X009594Y008835D01*
X009606Y008843D02*
X009847Y008843D01*
X009853Y008852D02*
X009618Y008852D01*
X009628Y008861D02*
X009858Y008861D01*
X009869Y008886D02*
X009653Y008886D01*
X009638Y008869D01*
X009658Y008895D02*
X009870Y008895D01*
X009871Y008903D02*
X009664Y008903D01*
X009667Y008912D02*
X009872Y008912D01*
X009872Y008920D02*
X009671Y008920D01*
X009674Y008929D02*
X009871Y008929D01*
X009870Y008937D02*
X009675Y008937D01*
X009675Y008946D02*
X009869Y008946D01*
X009866Y008955D02*
X009674Y008955D01*
X009671Y008963D02*
X009862Y008963D01*
X009859Y008972D02*
X009669Y008972D01*
X009664Y008980D02*
X009853Y008980D01*
X009847Y008989D02*
X009658Y008989D01*
X009650Y008997D02*
X009840Y008997D01*
X009831Y009006D02*
X009641Y009006D01*
X009626Y009014D02*
X009822Y009014D01*
X009813Y009023D02*
X009602Y009023D01*
X009592Y009049D02*
X009774Y009049D01*
X009789Y009040D02*
X009573Y009040D01*
X009562Y009031D02*
X009801Y009031D01*
X009757Y009057D02*
X009612Y009057D01*
X009643Y009066D02*
X009730Y009066D01*
X009555Y009026D02*
X009555Y009026D01*
X009483Y008886D02*
X009477Y008886D01*
X009483Y008878D02*
X009467Y008878D01*
X009456Y008869D02*
X009483Y008869D01*
X009483Y008861D02*
X009446Y008861D01*
X009436Y008852D02*
X009483Y008852D01*
X009487Y008843D02*
X009430Y008843D01*
X009423Y008835D02*
X009494Y008835D01*
X009503Y008826D02*
X009416Y008826D01*
X009409Y008818D02*
X009518Y008818D01*
X009878Y008714D02*
X009885Y008714D01*
X009892Y008713D01*
X009898Y008710D01*
X009931Y008686D01*
X009936Y008681D01*
X009940Y008673D02*
X010052Y008673D01*
X010046Y008679D02*
X010024Y008697D01*
X009998Y008710D01*
X009971Y008717D01*
X009934Y008720D01*
X009897Y008717D01*
X009878Y008714D01*
X009887Y008715D02*
X009976Y008715D01*
X010004Y008707D02*
X009902Y008707D01*
X009914Y008698D02*
X010021Y008698D01*
X010033Y008690D02*
X009926Y008690D01*
X009942Y008664D02*
X010059Y008664D01*
X010066Y008656D02*
X009944Y008656D01*
X009944Y008647D02*
X010071Y008647D01*
X010075Y008638D02*
X009944Y008638D01*
X009942Y008630D02*
X010080Y008630D01*
X010083Y008621D02*
X009940Y008621D01*
X009936Y008613D02*
X010085Y008613D01*
X010088Y008604D02*
X009931Y008604D01*
X009923Y008596D02*
X010090Y008596D01*
X010091Y008587D02*
X009913Y008587D01*
X009899Y008579D02*
X010092Y008579D01*
X010092Y008570D02*
X009877Y008570D01*
X009634Y008032D02*
X009437Y008032D01*
X009437Y008040D02*
X009615Y008040D01*
X009593Y008049D02*
X009437Y008049D01*
X009437Y008023D02*
X009647Y008023D01*
X009661Y008015D02*
X009437Y008015D01*
X009437Y008006D02*
X009670Y008006D01*
X009679Y007998D02*
X009437Y007998D01*
X009437Y007989D02*
X009688Y007989D01*
X009696Y007981D02*
X009437Y007981D01*
X009437Y007972D02*
X009702Y007972D01*
X009707Y007964D02*
X009437Y007964D01*
X009437Y007955D02*
X009711Y007955D01*
X009715Y007946D02*
X009437Y007946D01*
X009437Y007938D02*
X009473Y007938D01*
X009502Y007938D02*
X009717Y007938D01*
X009719Y007929D02*
X009539Y007929D01*
X009549Y007921D02*
X009721Y007921D01*
X009722Y007912D02*
X009555Y007912D01*
X009559Y007904D02*
X009723Y007904D01*
X009723Y007895D02*
X009562Y007895D01*
X009563Y007887D02*
X009724Y007887D01*
X009725Y007878D02*
X009565Y007878D01*
X009565Y007870D02*
X009725Y007870D01*
X009726Y007861D02*
X009565Y007861D01*
X009565Y007852D02*
X009727Y007852D01*
X009727Y007844D02*
X009565Y007844D01*
X009565Y007835D02*
X009728Y007835D01*
X009728Y007827D02*
X009565Y007827D01*
X009880Y007818D02*
X010064Y007818D01*
X010073Y007810D02*
X009889Y007810D01*
X009898Y007801D02*
X010081Y007801D01*
X010090Y007793D02*
X009907Y007793D01*
X009915Y007784D02*
X010099Y007784D01*
X010107Y007776D02*
X009924Y007776D01*
X009933Y007767D02*
X010116Y007767D01*
X010124Y007758D02*
X009942Y007758D01*
X009950Y007750D02*
X010133Y007750D01*
X010141Y007741D02*
X009959Y007741D01*
X009968Y007733D02*
X010150Y007733D01*
X010158Y007724D02*
X009976Y007724D01*
X009985Y007716D02*
X010167Y007716D01*
X010175Y007707D02*
X009994Y007707D01*
X010003Y007699D02*
X010184Y007699D01*
X010193Y007690D02*
X010011Y007690D01*
X010020Y007682D02*
X010201Y007682D01*
X010210Y007673D02*
X010029Y007673D01*
X010038Y007664D02*
X010218Y007664D01*
X010227Y007656D02*
X010046Y007656D01*
X010055Y007647D02*
X010235Y007647D01*
X010244Y007639D02*
X010064Y007639D01*
X010073Y007630D02*
X010252Y007630D01*
X010261Y007622D02*
X010081Y007622D01*
X010090Y007613D02*
X010269Y007613D01*
X010523Y007682D02*
X010524Y007682D01*
X010530Y007683D01*
X010554Y007688D01*
X010615Y007688D01*
X010637Y007684D01*
X010658Y007677D01*
X010678Y007666D01*
X010705Y007643D01*
X010726Y007615D01*
X010741Y007583D01*
X010749Y007550D01*
X010752Y007516D01*
X010752Y007208D01*
X010916Y007208D01*
X010915Y007794D01*
X010763Y007821D01*
X010763Y007708D01*
X010759Y007706D01*
X010753Y007708D01*
X010745Y007720D01*
X010718Y007761D01*
X010705Y007776D01*
X010690Y007788D01*
X010655Y007811D01*
X010631Y007825D01*
X010604Y007833D01*
X010577Y007837D01*
X010523Y007834D01*
X010523Y007682D01*
X010523Y007690D02*
X010915Y007690D01*
X010915Y007682D02*
X010644Y007682D01*
X010665Y007673D02*
X010915Y007673D01*
X010915Y007664D02*
X010679Y007664D01*
X010690Y007656D02*
X010915Y007656D01*
X010915Y007647D02*
X010700Y007647D01*
X010708Y007639D02*
X010915Y007639D01*
X010915Y007630D02*
X010715Y007630D01*
X010721Y007622D02*
X010915Y007622D01*
X010915Y007613D02*
X010727Y007613D01*
X010731Y007605D02*
X010915Y007605D01*
X010915Y007596D02*
X010735Y007596D01*
X010739Y007588D02*
X010915Y007588D01*
X010915Y007579D02*
X010742Y007579D01*
X010744Y007571D02*
X010915Y007571D01*
X010915Y007562D02*
X010746Y007562D01*
X010748Y007553D02*
X010915Y007553D01*
X010915Y007545D02*
X010749Y007545D01*
X010750Y007536D02*
X010915Y007536D01*
X010915Y007528D02*
X010751Y007528D01*
X010751Y007519D02*
X010915Y007519D01*
X010915Y007511D02*
X010752Y007511D01*
X010752Y007502D02*
X010915Y007502D01*
X010915Y007494D02*
X010752Y007494D01*
X010752Y007485D02*
X010915Y007485D01*
X010915Y007477D02*
X010752Y007477D01*
X010752Y007468D02*
X010915Y007468D01*
X010915Y007459D02*
X010752Y007459D01*
X010752Y007451D02*
X010915Y007451D01*
X010915Y007442D02*
X010752Y007442D01*
X010752Y007434D02*
X010915Y007434D01*
X010915Y007425D02*
X010752Y007425D01*
X010752Y007417D02*
X010915Y007417D01*
X010916Y007408D02*
X010752Y007408D01*
X010752Y007400D02*
X010916Y007400D01*
X010916Y007391D02*
X010752Y007391D01*
X010752Y007383D02*
X010916Y007383D01*
X010916Y007374D02*
X010752Y007374D01*
X010752Y007365D02*
X010916Y007365D01*
X010916Y007357D02*
X010752Y007357D01*
X010752Y007348D02*
X010916Y007348D01*
X010916Y007340D02*
X010752Y007340D01*
X010752Y007331D02*
X010916Y007331D01*
X010916Y007323D02*
X010752Y007323D01*
X010752Y007314D02*
X010916Y007314D01*
X010916Y007306D02*
X010752Y007306D01*
X010752Y007297D02*
X010916Y007297D01*
X010916Y007289D02*
X010752Y007289D01*
X010752Y007280D02*
X010916Y007280D01*
X010916Y007271D02*
X010752Y007271D01*
X010752Y007263D02*
X010916Y007263D01*
X010916Y007254D02*
X010752Y007254D01*
X010752Y007246D02*
X010916Y007246D01*
X010916Y007237D02*
X010752Y007237D01*
X010752Y007229D02*
X010916Y007229D01*
X010916Y007220D02*
X010752Y007220D01*
X010752Y007212D02*
X010916Y007212D01*
X011002Y007208D02*
X011005Y007216D01*
X011019Y007267D01*
X011023Y007321D01*
X011022Y007492D01*
X011183Y007492D01*
X011183Y007459D01*
X011186Y007415D01*
X011194Y007373D01*
X011196Y007366D01*
X011200Y007355D01*
X011207Y007346D01*
X011237Y007317D01*
X011249Y007309D01*
X011263Y007304D01*
X011305Y007298D01*
X011366Y007300D01*
X011385Y007304D01*
X011403Y007312D01*
X011418Y007325D01*
X011426Y007335D01*
X011432Y007348D01*
X011594Y007348D01*
X011592Y007340D02*
X011428Y007340D01*
X011432Y007348D02*
X011435Y007361D01*
X011435Y007385D01*
X011431Y007409D01*
X011422Y007431D01*
X011413Y007444D01*
X011402Y007454D01*
X011382Y007465D01*
X011361Y007474D01*
X011339Y007478D01*
X011282Y007484D01*
X011243Y007490D01*
X011205Y007502D01*
X011197Y007506D01*
X011190Y007512D01*
X011185Y007520D01*
X011183Y007520D01*
X011183Y007496D01*
X011023Y007496D01*
X011023Y007686D01*
X011026Y007715D01*
X011037Y007742D01*
X011054Y007766D01*
X011076Y007785D01*
X011127Y007812D01*
X011183Y007829D01*
X011251Y007838D01*
X011320Y007838D01*
X011389Y007830D01*
X011437Y007817D01*
X011483Y007796D01*
X011515Y007773D01*
X011542Y007744D01*
X011562Y007711D01*
X011576Y007674D01*
X011581Y007635D01*
X011582Y007636D01*
X011417Y007636D01*
X011415Y007636D01*
X011415Y007638D01*
X011412Y007660D01*
X011405Y007680D01*
X011392Y007698D01*
X011376Y007713D01*
X011357Y007724D01*
X011334Y007731D01*
X011310Y007733D01*
X011256Y007731D01*
X011241Y007728D01*
X011226Y007723D01*
X011213Y007715D01*
X011202Y007705D01*
X011194Y007693D01*
X011188Y007680D01*
X011183Y007658D01*
X011183Y007636D01*
X011188Y007615D01*
X011190Y007610D01*
X011193Y007606D01*
X011205Y007595D01*
X011223Y007585D01*
X011242Y007578D01*
X011294Y007569D01*
X011381Y007560D01*
X011441Y007549D01*
X011500Y007530D01*
X011527Y007515D01*
X011551Y007496D01*
X011571Y007472D01*
X011588Y007438D01*
X011596Y007401D01*
X011596Y007359D01*
X011589Y007318D01*
X011574Y007279D01*
X011562Y007260D01*
X011547Y007243D01*
X011530Y007230D01*
X011480Y007206D01*
X011426Y007194D01*
X011361Y007192D01*
X011298Y007202D01*
X011257Y007216D01*
X011220Y007237D01*
X011187Y007265D01*
X011185Y007266D01*
X011182Y007267D01*
X011180Y007266D01*
X011178Y007264D01*
X011177Y007262D01*
X011168Y007221D01*
X011165Y007210D01*
X011164Y007208D01*
X011162Y007208D01*
X011161Y007208D01*
X011002Y007208D01*
X011003Y007212D02*
X011165Y007212D01*
X011168Y007220D02*
X011006Y007220D01*
X011008Y007229D02*
X011170Y007229D01*
X011171Y007237D02*
X011011Y007237D01*
X011013Y007246D02*
X011173Y007246D01*
X011175Y007254D02*
X011015Y007254D01*
X011017Y007263D02*
X011177Y007263D01*
X011189Y007263D02*
X011564Y007263D01*
X011569Y007271D02*
X011019Y007271D01*
X011020Y007280D02*
X011574Y007280D01*
X011578Y007289D02*
X011020Y007289D01*
X011021Y007297D02*
X011581Y007297D01*
X011584Y007306D02*
X011389Y007306D01*
X011405Y007314D02*
X011587Y007314D01*
X011589Y007323D02*
X011415Y007323D01*
X011423Y007331D02*
X011591Y007331D01*
X011596Y007357D02*
X011434Y007357D01*
X011435Y007365D02*
X011596Y007365D01*
X011596Y007374D02*
X011435Y007374D01*
X011435Y007383D02*
X011596Y007383D01*
X011596Y007391D02*
X011434Y007391D01*
X011433Y007400D02*
X011596Y007400D01*
X011594Y007408D02*
X011431Y007408D01*
X011428Y007417D02*
X011592Y007417D01*
X011590Y007425D02*
X011424Y007425D01*
X011420Y007434D02*
X011589Y007434D01*
X011585Y007442D02*
X011414Y007442D01*
X011405Y007451D02*
X011581Y007451D01*
X011577Y007459D02*
X011392Y007459D01*
X011376Y007468D02*
X011573Y007468D01*
X011567Y007477D02*
X011345Y007477D01*
X011274Y007485D02*
X011560Y007485D01*
X011553Y007494D02*
X011232Y007494D01*
X011204Y007502D02*
X011543Y007502D01*
X011533Y007511D02*
X011191Y007511D01*
X011183Y007511D02*
X011023Y007511D01*
X011023Y007519D02*
X011183Y007519D01*
X011185Y007519D02*
X011520Y007519D01*
X011504Y007528D02*
X011023Y007528D01*
X011023Y007536D02*
X011480Y007536D01*
X011454Y007545D02*
X011023Y007545D01*
X011023Y007553D02*
X011416Y007553D01*
X011360Y007562D02*
X011023Y007562D01*
X011023Y007571D02*
X011284Y007571D01*
X011238Y007579D02*
X011023Y007579D01*
X011023Y007588D02*
X011217Y007588D01*
X011203Y007596D02*
X011023Y007596D01*
X011023Y007605D02*
X011194Y007605D01*
X011188Y007613D02*
X011023Y007613D01*
X011023Y007622D02*
X011186Y007622D01*
X011184Y007630D02*
X011023Y007630D01*
X011023Y007639D02*
X011183Y007639D01*
X011183Y007647D02*
X011023Y007647D01*
X011023Y007656D02*
X011183Y007656D01*
X011185Y007664D02*
X011023Y007664D01*
X011023Y007673D02*
X011186Y007673D01*
X011189Y007682D02*
X011023Y007682D01*
X011023Y007690D02*
X011192Y007690D01*
X011198Y007699D02*
X011024Y007699D01*
X011025Y007707D02*
X011205Y007707D01*
X011214Y007716D02*
X011027Y007716D01*
X011030Y007724D02*
X011230Y007724D01*
X011232Y007835D02*
X011343Y007835D01*
X011400Y007827D02*
X011176Y007827D01*
X011148Y007818D02*
X011431Y007818D01*
X011452Y007810D02*
X011123Y007810D01*
X011107Y007801D02*
X011471Y007801D01*
X011487Y007793D02*
X011091Y007793D01*
X011075Y007784D02*
X011499Y007784D01*
X011512Y007776D02*
X011065Y007776D01*
X011055Y007767D02*
X011521Y007767D01*
X011529Y007758D02*
X011049Y007758D01*
X011042Y007750D02*
X011537Y007750D01*
X011544Y007741D02*
X011037Y007741D01*
X011033Y007733D02*
X011549Y007733D01*
X011554Y007724D02*
X011355Y007724D01*
X011371Y007716D02*
X011559Y007716D01*
X011564Y007707D02*
X011383Y007707D01*
X011392Y007699D02*
X011567Y007699D01*
X011570Y007690D02*
X011398Y007690D01*
X011404Y007682D02*
X011573Y007682D01*
X011576Y007673D02*
X011407Y007673D01*
X011410Y007664D02*
X011577Y007664D01*
X011578Y007656D02*
X011413Y007656D01*
X011414Y007647D02*
X011579Y007647D01*
X011580Y007639D02*
X011415Y007639D01*
X011669Y007608D02*
X011658Y007521D01*
X011663Y007434D01*
X011829Y007434D01*
X011828Y007442D02*
X011662Y007442D01*
X011663Y007434D02*
X011676Y007380D01*
X011697Y007328D01*
X011728Y007282D01*
X011754Y007254D01*
X011784Y007231D01*
X011818Y007213D01*
X011854Y007202D01*
X011902Y007194D01*
X011950Y007194D01*
X011998Y007200D01*
X012031Y007210D01*
X012061Y007227D01*
X012087Y007251D01*
X012108Y007279D01*
X012108Y007396D01*
X012105Y007399D01*
X012105Y007397D01*
X012104Y007393D01*
X012102Y007390D01*
X012100Y007387D01*
X012088Y007364D01*
X012071Y007345D01*
X012050Y007330D01*
X012022Y007318D01*
X011993Y007312D01*
X011956Y007312D01*
X011920Y007319D01*
X011890Y007333D01*
X011864Y007354D01*
X011845Y007381D01*
X011833Y007412D01*
X011821Y007489D01*
X011821Y007568D01*
X011829Y007607D01*
X011845Y007643D01*
X011869Y007675D01*
X011900Y007701D01*
X011920Y007711D01*
X011943Y007718D01*
X011966Y007720D01*
X012009Y007718D01*
X012024Y007715D01*
X012039Y007708D01*
X012068Y007685D01*
X012092Y007658D01*
X012109Y007629D01*
X012119Y007598D01*
X012124Y007565D01*
X012123Y007464D01*
X012118Y007433D01*
X012109Y007406D01*
X012109Y007404D01*
X012109Y007403D01*
X012110Y007402D01*
X012112Y007402D01*
X012117Y007402D01*
X012117Y007280D01*
X012280Y007280D01*
X012280Y007271D02*
X012117Y007271D01*
X012117Y007263D02*
X012280Y007263D01*
X012280Y007254D02*
X012117Y007254D01*
X012117Y007246D02*
X012280Y007246D01*
X012280Y007237D02*
X012117Y007237D01*
X012117Y007229D02*
X012280Y007229D01*
X012280Y007220D02*
X012117Y007220D01*
X012117Y007212D02*
X012280Y007212D01*
X012280Y007203D02*
X012117Y007203D01*
X012117Y007195D02*
X012280Y007195D01*
X012280Y007186D02*
X012117Y007186D01*
X012117Y007178D02*
X012280Y007178D01*
X012280Y007169D02*
X012117Y007169D01*
X012117Y007160D02*
X012280Y007160D01*
X012280Y007152D02*
X012117Y007152D01*
X012117Y007143D02*
X012280Y007143D01*
X012280Y007135D02*
X012117Y007135D01*
X012117Y007126D02*
X012280Y007126D01*
X012280Y007118D02*
X012117Y007118D01*
X012117Y007109D02*
X012280Y007109D01*
X012280Y007101D02*
X012117Y007101D01*
X012117Y007092D02*
X012280Y007092D01*
X012280Y007084D02*
X012117Y007084D01*
X012117Y007075D02*
X012280Y007075D01*
X012280Y007066D02*
X012117Y007066D01*
X012117Y007058D02*
X012280Y007058D01*
X012280Y007049D02*
X012117Y007049D01*
X012117Y007041D02*
X012280Y007041D01*
X012280Y007032D02*
X012117Y007032D01*
X012117Y007024D02*
X012280Y007024D01*
X012280Y007015D02*
X012117Y007015D01*
X012117Y007007D02*
X012280Y007007D01*
X012280Y006998D02*
X012117Y006998D01*
X012117Y006990D02*
X012280Y006990D01*
X012280Y006986D02*
X012280Y007793D01*
X012280Y007796D01*
X012127Y007825D01*
X012128Y007746D01*
X012125Y007743D01*
X012123Y007742D01*
X012114Y007752D01*
X012079Y007790D01*
X012065Y007802D01*
X012050Y007811D01*
X011998Y007832D01*
X011979Y007836D01*
X011901Y007837D01*
X011858Y007830D01*
X011818Y007814D01*
X011782Y007793D01*
X011750Y007767D01*
X012100Y007767D01*
X012108Y007758D02*
X011742Y007758D01*
X011735Y007750D02*
X012116Y007750D01*
X012128Y007750D02*
X012280Y007750D01*
X012280Y007758D02*
X012128Y007758D01*
X012128Y007767D02*
X012280Y007767D01*
X012280Y007776D02*
X012127Y007776D01*
X012127Y007784D02*
X012280Y007784D01*
X012280Y007793D02*
X012127Y007793D01*
X012127Y007801D02*
X012252Y007801D01*
X012206Y007810D02*
X012127Y007810D01*
X012127Y007818D02*
X012161Y007818D01*
X012092Y007776D02*
X011761Y007776D01*
X011772Y007784D02*
X012084Y007784D01*
X012076Y007793D02*
X011783Y007793D01*
X011797Y007801D02*
X012066Y007801D01*
X012052Y007810D02*
X011811Y007810D01*
X011829Y007818D02*
X012031Y007818D01*
X012010Y007827D02*
X011851Y007827D01*
X011892Y007835D02*
X011981Y007835D01*
X012019Y007716D02*
X012280Y007716D01*
X012280Y007724D02*
X011715Y007724D01*
X011719Y007732D02*
X011696Y007691D01*
X011669Y007608D01*
X011669Y007605D02*
X011828Y007605D01*
X011831Y007613D02*
X011671Y007613D01*
X011674Y007622D02*
X011835Y007622D01*
X011839Y007630D02*
X011677Y007630D01*
X011679Y007639D02*
X011843Y007639D01*
X011848Y007647D02*
X011682Y007647D01*
X011685Y007656D02*
X011854Y007656D01*
X011861Y007664D02*
X011687Y007664D01*
X011690Y007673D02*
X011867Y007673D01*
X011877Y007682D02*
X011693Y007682D01*
X011696Y007690D02*
X011887Y007690D01*
X011897Y007699D02*
X011700Y007699D01*
X011705Y007707D02*
X011912Y007707D01*
X011935Y007716D02*
X011710Y007716D01*
X011719Y007732D02*
X011750Y007767D01*
X011727Y007741D02*
X012280Y007741D01*
X012280Y007733D02*
X011720Y007733D01*
X011668Y007596D02*
X011826Y007596D01*
X011825Y007588D02*
X011667Y007588D01*
X011666Y007579D02*
X011823Y007579D01*
X011821Y007571D02*
X011665Y007571D01*
X011663Y007562D02*
X011821Y007562D01*
X011821Y007553D02*
X011662Y007553D01*
X011661Y007545D02*
X011821Y007545D01*
X011821Y007536D02*
X011660Y007536D01*
X011659Y007528D02*
X011821Y007528D01*
X011821Y007519D02*
X011658Y007519D01*
X011659Y007511D02*
X011821Y007511D01*
X011821Y007502D02*
X011659Y007502D01*
X011660Y007494D02*
X011821Y007494D01*
X011821Y007485D02*
X011660Y007485D01*
X011661Y007477D02*
X011823Y007477D01*
X011824Y007468D02*
X011661Y007468D01*
X011661Y007459D02*
X011825Y007459D01*
X011827Y007451D02*
X011662Y007451D01*
X011665Y007425D02*
X011831Y007425D01*
X011832Y007417D02*
X011667Y007417D01*
X011669Y007408D02*
X011834Y007408D01*
X011837Y007400D02*
X011671Y007400D01*
X011673Y007391D02*
X011841Y007391D01*
X011844Y007383D02*
X011675Y007383D01*
X011678Y007374D02*
X011849Y007374D01*
X011856Y007365D02*
X011682Y007365D01*
X011685Y007357D02*
X011862Y007357D01*
X011871Y007348D02*
X011689Y007348D01*
X011693Y007340D02*
X011881Y007340D01*
X011893Y007331D02*
X011696Y007331D01*
X011701Y007323D02*
X011911Y007323D01*
X011943Y007314D02*
X011707Y007314D01*
X011712Y007306D02*
X012108Y007306D01*
X012108Y007314D02*
X012004Y007314D01*
X012033Y007323D02*
X012108Y007323D01*
X012108Y007331D02*
X012052Y007331D01*
X012064Y007340D02*
X012108Y007340D01*
X012108Y007348D02*
X012074Y007348D01*
X012081Y007357D02*
X012108Y007357D01*
X012108Y007365D02*
X012088Y007365D01*
X012093Y007374D02*
X012108Y007374D01*
X012108Y007383D02*
X012098Y007383D01*
X012103Y007391D02*
X012108Y007391D01*
X012117Y007391D02*
X012280Y007391D01*
X012280Y007383D02*
X012117Y007383D01*
X012117Y007374D02*
X012280Y007374D01*
X012280Y007365D02*
X012117Y007365D01*
X012117Y007357D02*
X012280Y007357D01*
X012280Y007348D02*
X012117Y007348D01*
X012117Y007340D02*
X012280Y007340D01*
X012280Y007331D02*
X012117Y007331D01*
X012117Y007323D02*
X012280Y007323D01*
X012280Y007314D02*
X012117Y007314D01*
X012117Y007306D02*
X012280Y007306D01*
X012280Y007297D02*
X012117Y007297D01*
X012117Y007289D02*
X012280Y007289D01*
X012370Y007331D02*
X012365Y007357D01*
X012466Y007357D01*
X012461Y007357D02*
X012524Y007357D01*
X012527Y007349D02*
X012536Y007335D01*
X012548Y007323D01*
X012473Y007323D01*
X012478Y007323D02*
X012374Y007323D01*
X012370Y007331D02*
X012381Y007306D01*
X012396Y007284D01*
X012424Y007255D01*
X012458Y007231D01*
X012494Y007213D01*
X012534Y007202D01*
X012586Y007195D01*
X012664Y007195D01*
X012638Y007193D02*
X012586Y007195D01*
X012638Y007193D02*
X012739Y007200D01*
X012775Y007208D01*
X012809Y007224D01*
X012856Y007254D01*
X012876Y007271D01*
X012893Y007291D01*
X012905Y007315D01*
X012922Y007365D01*
X012926Y007388D01*
X012927Y007402D01*
X012646Y007254D01*
X012484Y007290D01*
X012440Y007421D01*
X012447Y007435D01*
X012772Y007624D01*
X012791Y007732D01*
X012642Y007777D01*
X012476Y007724D01*
X012399Y007667D01*
X012380Y007681D01*
X012388Y007703D01*
X012402Y007734D01*
X012413Y007751D01*
X012427Y007767D01*
X012611Y007767D01*
X012622Y007776D02*
X012660Y007776D01*
X012646Y007776D02*
X012866Y007776D01*
X012866Y007775D02*
X012882Y007757D01*
X012894Y007737D01*
X012908Y007694D01*
X012913Y007650D01*
X012909Y007605D01*
X012903Y007586D01*
X012893Y007568D01*
X012880Y007553D01*
X012853Y007532D01*
X012824Y007515D01*
X012792Y007503D01*
X012649Y007469D01*
X012602Y007457D01*
X012558Y007438D01*
X012544Y007428D01*
X012532Y007415D01*
X012525Y007400D01*
X012521Y007383D01*
X012522Y007366D01*
X012527Y007349D01*
X012527Y007348D02*
X012464Y007348D01*
X012469Y007348D02*
X012367Y007348D01*
X012368Y007340D02*
X012472Y007340D01*
X012467Y007340D02*
X012533Y007340D01*
X012539Y007331D02*
X012470Y007331D01*
X012475Y007331D02*
X012370Y007331D01*
X012377Y007314D02*
X012481Y007314D01*
X012476Y007314D02*
X012562Y007314D01*
X012569Y007310D02*
X012592Y007302D01*
X012617Y007299D01*
X012670Y007299D01*
X012693Y007302D01*
X012717Y007311D01*
X012739Y007325D01*
X012757Y007343D01*
X012767Y007360D01*
X012774Y007379D01*
X012775Y007400D01*
X012775Y007402D01*
X012927Y007402D01*
X012642Y007261D01*
X012487Y007296D01*
X012444Y007424D01*
X012611Y007515D01*
X012784Y007618D01*
X012805Y007738D01*
X012640Y007781D01*
X012461Y007729D01*
X012380Y007678D01*
X012377Y007650D01*
X012530Y007650D01*
X012530Y007660D01*
X012533Y007671D01*
X012539Y007686D01*
X012548Y007699D01*
X012413Y007699D01*
X012426Y007707D02*
X012557Y007707D01*
X012560Y007710D02*
X012548Y007699D01*
X012542Y007690D02*
X012399Y007690D01*
X012386Y007699D02*
X012442Y007699D01*
X012453Y007707D02*
X012390Y007707D01*
X012394Y007716D02*
X012465Y007716D01*
X012454Y007724D02*
X012585Y007724D01*
X012577Y007721D02*
X012560Y007710D01*
X012569Y007716D02*
X012440Y007716D01*
X012430Y007690D02*
X012383Y007690D01*
X012386Y007682D02*
X012537Y007682D01*
X012534Y007673D02*
X012379Y007673D01*
X012378Y007664D02*
X012531Y007664D01*
X012530Y007656D02*
X012377Y007656D01*
X012390Y007673D02*
X012407Y007673D01*
X012419Y007682D02*
X012380Y007682D01*
X012397Y007724D02*
X012477Y007724D01*
X012475Y007733D02*
X012618Y007733D01*
X012617Y007733D02*
X012596Y007729D01*
X012577Y007721D01*
X012558Y007750D02*
X012412Y007750D01*
X012407Y007741D02*
X012531Y007741D01*
X012533Y007750D02*
X012758Y007750D01*
X012759Y007741D02*
X012891Y007741D01*
X012895Y007733D02*
X012787Y007733D01*
X012789Y007724D02*
X012898Y007724D01*
X012901Y007716D02*
X012788Y007716D01*
X012786Y007707D02*
X012904Y007707D01*
X012906Y007699D02*
X012785Y007699D01*
X012783Y007690D02*
X012908Y007690D01*
X012909Y007682D02*
X012782Y007682D01*
X012780Y007673D02*
X012910Y007673D01*
X012911Y007664D02*
X012779Y007664D01*
X012777Y007656D02*
X012912Y007656D01*
X012913Y007647D02*
X012776Y007647D01*
X012774Y007639D02*
X012912Y007639D01*
X012911Y007630D02*
X012773Y007630D01*
X012768Y007622D02*
X012910Y007622D01*
X012910Y007613D02*
X012754Y007613D01*
X012762Y007605D02*
X012685Y007605D01*
X012672Y007600D02*
X012702Y007611D01*
X012730Y007628D01*
X012742Y007640D01*
X012750Y007656D01*
X012791Y007656D01*
X012792Y007664D02*
X012751Y007664D01*
X012753Y007672D02*
X012751Y007688D01*
X012744Y007703D01*
X012734Y007714D01*
X012721Y007723D01*
X012703Y007729D01*
X012685Y007733D01*
X012651Y007735D01*
X012617Y007733D01*
X012584Y007758D02*
X012419Y007758D01*
X012427Y007767D02*
X012465Y007797D01*
X012508Y007818D01*
X012561Y007832D01*
X012616Y007838D01*
X012687Y007838D01*
X012743Y007832D01*
X012797Y007816D01*
X012848Y007790D01*
X012866Y007775D01*
X012874Y007767D02*
X012674Y007767D01*
X012693Y007767D02*
X012592Y007767D01*
X012563Y007758D02*
X012726Y007758D01*
X012731Y007750D02*
X012886Y007750D01*
X012881Y007758D02*
X012703Y007758D01*
X012684Y007733D02*
X012804Y007733D01*
X012802Y007724D02*
X012717Y007724D01*
X012732Y007716D02*
X012801Y007716D01*
X012799Y007707D02*
X012740Y007707D01*
X012746Y007699D02*
X012798Y007699D01*
X012796Y007690D02*
X012750Y007690D01*
X012751Y007682D02*
X012795Y007682D01*
X012794Y007673D02*
X012753Y007673D01*
X012753Y007672D02*
X012750Y007656D01*
X012745Y007647D02*
X012789Y007647D01*
X012788Y007639D02*
X012740Y007639D01*
X012732Y007630D02*
X012786Y007630D01*
X012785Y007622D02*
X012720Y007622D01*
X012706Y007613D02*
X012776Y007613D01*
X012747Y007596D02*
X012653Y007596D01*
X012672Y007600D02*
X012592Y007584D01*
X012524Y007569D01*
X012459Y007545D01*
X012661Y007545D01*
X012651Y007553D02*
X012880Y007553D01*
X012888Y007562D02*
X012665Y007562D01*
X012676Y007553D02*
X012482Y007553D01*
X012459Y007545D02*
X012429Y007529D01*
X012402Y007509D01*
X012389Y007495D01*
X012379Y007479D01*
X012366Y007439D01*
X012362Y007398D01*
X012365Y007357D01*
X012364Y007365D02*
X012463Y007365D01*
X012458Y007365D02*
X012522Y007365D01*
X012521Y007374D02*
X012456Y007374D01*
X012461Y007374D02*
X012364Y007374D01*
X012363Y007383D02*
X012458Y007383D01*
X012453Y007383D02*
X012521Y007383D01*
X012523Y007391D02*
X012450Y007391D01*
X012455Y007391D02*
X012362Y007391D01*
X012362Y007400D02*
X012452Y007400D01*
X012447Y007400D02*
X012525Y007400D01*
X012529Y007408D02*
X012444Y007408D01*
X012449Y007408D02*
X012363Y007408D01*
X012363Y007417D02*
X012446Y007417D01*
X012441Y007417D02*
X012534Y007417D01*
X012541Y007425D02*
X012442Y007425D01*
X012446Y007425D02*
X012364Y007425D01*
X012365Y007434D02*
X012462Y007434D01*
X012460Y007442D02*
X012569Y007442D01*
X012552Y007434D02*
X012446Y007434D01*
X012478Y007442D02*
X012366Y007442D01*
X012369Y007451D02*
X012494Y007451D01*
X012489Y007459D02*
X012613Y007459D01*
X012589Y007451D02*
X012474Y007451D01*
X012504Y007468D02*
X012646Y007468D01*
X012681Y007477D02*
X012519Y007477D01*
X012525Y007468D02*
X012375Y007468D01*
X012372Y007459D02*
X012509Y007459D01*
X012533Y007485D02*
X012717Y007485D01*
X012753Y007494D02*
X012548Y007494D01*
X012556Y007485D02*
X012383Y007485D01*
X012378Y007477D02*
X012541Y007477D01*
X012563Y007502D02*
X012789Y007502D01*
X012813Y007511D02*
X012577Y007511D01*
X012588Y007502D02*
X012395Y007502D01*
X012388Y007494D02*
X012572Y007494D01*
X012592Y007519D02*
X012831Y007519D01*
X012846Y007528D02*
X012607Y007528D01*
X012618Y007519D02*
X012416Y007519D01*
X012404Y007511D02*
X012603Y007511D01*
X012621Y007536D02*
X012859Y007536D01*
X012870Y007545D02*
X012636Y007545D01*
X012647Y007536D02*
X012443Y007536D01*
X012428Y007528D02*
X012633Y007528D01*
X012680Y007571D02*
X012895Y007571D01*
X012899Y007579D02*
X012695Y007579D01*
X012704Y007571D02*
X012532Y007571D01*
X012505Y007562D02*
X012690Y007562D01*
X012710Y007588D02*
X012904Y007588D01*
X012906Y007596D02*
X012724Y007596D01*
X012733Y007588D02*
X012611Y007588D01*
X012570Y007579D02*
X012719Y007579D01*
X012739Y007605D02*
X012909Y007605D01*
X012791Y007741D02*
X012504Y007741D01*
X012504Y007733D02*
X012401Y007733D01*
X012438Y007776D02*
X012638Y007776D01*
X012591Y007835D02*
X012709Y007835D01*
X012759Y007827D02*
X012541Y007827D01*
X012509Y007818D02*
X012788Y007818D01*
X012809Y007810D02*
X012491Y007810D01*
X012474Y007801D02*
X012825Y007801D01*
X012842Y007793D02*
X012460Y007793D01*
X012449Y007784D02*
X012855Y007784D01*
X012922Y007400D02*
X012927Y007400D01*
X012923Y007400D02*
X012775Y007400D01*
X012774Y007391D02*
X012906Y007391D01*
X012905Y007391D02*
X012926Y007391D01*
X012925Y007383D02*
X012888Y007383D01*
X012890Y007383D02*
X012774Y007383D01*
X012772Y007374D02*
X012874Y007374D01*
X012871Y007374D02*
X012923Y007374D01*
X012922Y007365D02*
X012853Y007365D01*
X012858Y007365D02*
X012769Y007365D01*
X012766Y007357D02*
X012842Y007357D01*
X012836Y007357D02*
X012919Y007357D01*
X012916Y007348D02*
X012819Y007348D01*
X012825Y007348D02*
X012760Y007348D01*
X012754Y007340D02*
X012809Y007340D01*
X012802Y007340D02*
X012913Y007340D01*
X012910Y007331D02*
X012784Y007331D01*
X012793Y007331D02*
X012745Y007331D01*
X012736Y007323D02*
X012777Y007323D01*
X012767Y007323D02*
X012908Y007323D01*
X012905Y007314D02*
X012750Y007314D01*
X012744Y007306D02*
X012703Y007306D01*
X012715Y007297D02*
X012896Y007297D01*
X012900Y007306D02*
X012732Y007306D01*
X012728Y007297D02*
X012481Y007297D01*
X012486Y007297D02*
X012387Y007297D01*
X012393Y007289D02*
X012519Y007289D01*
X012528Y007280D02*
X012696Y007280D01*
X012698Y007289D02*
X012890Y007289D01*
X012884Y007280D02*
X012681Y007280D01*
X012679Y007271D02*
X012566Y007271D01*
X012557Y007280D02*
X012400Y007280D01*
X012408Y007271D02*
X012595Y007271D01*
X012605Y007263D02*
X012663Y007263D01*
X012663Y007271D02*
X012877Y007271D01*
X012867Y007263D02*
X012646Y007263D01*
X012643Y007254D02*
X012647Y007254D01*
X012632Y007263D02*
X012416Y007263D01*
X012425Y007254D02*
X012857Y007254D01*
X012843Y007246D02*
X012437Y007246D01*
X012448Y007237D02*
X012830Y007237D01*
X012817Y007229D02*
X012462Y007229D01*
X012479Y007220D02*
X012801Y007220D01*
X012783Y007212D02*
X012499Y007212D01*
X012529Y007203D02*
X012753Y007203D01*
X012712Y007289D02*
X012489Y007289D01*
X012484Y007306D02*
X012381Y007306D01*
X012479Y007306D02*
X012581Y007306D01*
X012569Y007310D02*
X012548Y007323D01*
X012722Y007314D02*
X012761Y007314D01*
X012280Y007400D02*
X012117Y007400D01*
X012110Y007408D02*
X012280Y007408D01*
X012280Y007417D02*
X012112Y007417D01*
X012115Y007425D02*
X012280Y007425D01*
X012280Y007434D02*
X012118Y007434D01*
X012119Y007442D02*
X012280Y007442D01*
X012280Y007451D02*
X012121Y007451D01*
X012122Y007459D02*
X012280Y007459D01*
X012280Y007468D02*
X012123Y007468D01*
X012123Y007477D02*
X012280Y007477D01*
X012280Y007485D02*
X012123Y007485D01*
X012123Y007494D02*
X012280Y007494D01*
X012280Y007502D02*
X012123Y007502D01*
X012123Y007511D02*
X012280Y007511D01*
X012280Y007519D02*
X012123Y007519D01*
X012123Y007528D02*
X012280Y007528D01*
X012280Y007536D02*
X012124Y007536D01*
X012124Y007545D02*
X012280Y007545D01*
X012280Y007553D02*
X012124Y007553D01*
X012124Y007562D02*
X012280Y007562D01*
X012280Y007571D02*
X012123Y007571D01*
X012122Y007579D02*
X012280Y007579D01*
X012280Y007588D02*
X012121Y007588D01*
X012120Y007596D02*
X012280Y007596D01*
X012280Y007605D02*
X012117Y007605D01*
X012114Y007613D02*
X012280Y007613D01*
X012280Y007622D02*
X012111Y007622D01*
X012108Y007630D02*
X012280Y007630D01*
X012280Y007639D02*
X012103Y007639D01*
X012098Y007647D02*
X012280Y007647D01*
X012280Y007656D02*
X012093Y007656D01*
X012086Y007664D02*
X012280Y007664D01*
X012280Y007673D02*
X012078Y007673D01*
X012071Y007682D02*
X012280Y007682D01*
X012280Y007690D02*
X012061Y007690D01*
X012050Y007699D02*
X012280Y007699D01*
X012280Y007707D02*
X012040Y007707D01*
X012108Y007297D02*
X011718Y007297D01*
X011723Y007289D02*
X012108Y007289D01*
X012108Y007280D02*
X011729Y007280D01*
X011737Y007271D02*
X012102Y007271D01*
X012096Y007263D02*
X011745Y007263D01*
X011753Y007254D02*
X012090Y007254D01*
X012082Y007246D02*
X011764Y007246D01*
X011776Y007237D02*
X012072Y007237D01*
X012063Y007229D02*
X011788Y007229D01*
X011804Y007220D02*
X012049Y007220D01*
X012034Y007212D02*
X011823Y007212D01*
X011850Y007203D02*
X012008Y007203D01*
X011957Y007195D02*
X011900Y007195D01*
X012117Y007280D02*
X012117Y006839D01*
X012280Y006986D01*
X012274Y006981D02*
X012117Y006981D01*
X012117Y006972D02*
X012265Y006972D01*
X012256Y006964D02*
X012117Y006964D01*
X012117Y006955D02*
X012246Y006955D01*
X012237Y006947D02*
X012117Y006947D01*
X012117Y006938D02*
X012227Y006938D01*
X012218Y006930D02*
X012117Y006930D01*
X012117Y006921D02*
X012208Y006921D01*
X012199Y006913D02*
X012117Y006913D01*
X012117Y006904D02*
X012189Y006904D01*
X012180Y006896D02*
X012117Y006896D01*
X012117Y006887D02*
X012170Y006887D01*
X012161Y006879D02*
X012117Y006879D01*
X012117Y006870D02*
X012151Y006870D01*
X012142Y006861D02*
X012117Y006861D01*
X012117Y006853D02*
X012132Y006853D01*
X012123Y006844D02*
X012117Y006844D01*
X011558Y007254D02*
X011199Y007254D01*
X011209Y007246D02*
X011550Y007246D01*
X011540Y007237D02*
X011219Y007237D01*
X011234Y007229D02*
X011528Y007229D01*
X011510Y007220D02*
X011249Y007220D01*
X011269Y007212D02*
X011492Y007212D01*
X011467Y007203D02*
X011294Y007203D01*
X011346Y007195D02*
X011429Y007195D01*
X011258Y007306D02*
X011022Y007306D01*
X011022Y007314D02*
X011241Y007314D01*
X011231Y007323D02*
X011023Y007323D01*
X011023Y007331D02*
X011222Y007331D01*
X011213Y007340D02*
X011023Y007340D01*
X011023Y007348D02*
X011205Y007348D01*
X011200Y007357D02*
X011023Y007357D01*
X011023Y007365D02*
X011196Y007365D01*
X011194Y007374D02*
X011023Y007374D01*
X011022Y007383D02*
X011192Y007383D01*
X011190Y007391D02*
X011022Y007391D01*
X011022Y007400D02*
X011189Y007400D01*
X011187Y007408D02*
X011022Y007408D01*
X011022Y007417D02*
X011185Y007417D01*
X011185Y007425D02*
X011022Y007425D01*
X011022Y007434D02*
X011184Y007434D01*
X011184Y007442D02*
X011022Y007442D01*
X011022Y007451D02*
X011183Y007451D01*
X011183Y007459D02*
X011022Y007459D01*
X011022Y007468D02*
X011183Y007468D01*
X011183Y007477D02*
X011022Y007477D01*
X011022Y007485D02*
X011183Y007485D01*
X011183Y007502D02*
X011023Y007502D01*
X010915Y007699D02*
X010523Y007699D01*
X010523Y007707D02*
X010755Y007707D01*
X010762Y007707D02*
X010915Y007707D01*
X010915Y007716D02*
X010763Y007716D01*
X010763Y007724D02*
X010915Y007724D01*
X010915Y007733D02*
X010763Y007733D01*
X010763Y007741D02*
X010915Y007741D01*
X010915Y007750D02*
X010763Y007750D01*
X010763Y007758D02*
X010915Y007758D01*
X010915Y007767D02*
X010763Y007767D01*
X010763Y007776D02*
X010915Y007776D01*
X010915Y007784D02*
X010763Y007784D01*
X010763Y007793D02*
X010915Y007793D01*
X010873Y007801D02*
X010763Y007801D01*
X010763Y007810D02*
X010825Y007810D01*
X010777Y007818D02*
X010763Y007818D01*
X010706Y007776D02*
X010523Y007776D01*
X010523Y007784D02*
X010695Y007784D01*
X010682Y007793D02*
X010523Y007793D01*
X010523Y007801D02*
X010669Y007801D01*
X010656Y007810D02*
X010523Y007810D01*
X010523Y007818D02*
X010642Y007818D01*
X010624Y007827D02*
X010523Y007827D01*
X010551Y007835D02*
X010589Y007835D01*
X010523Y007767D02*
X010713Y007767D01*
X010719Y007758D02*
X010523Y007758D01*
X010523Y007750D02*
X010725Y007750D01*
X010731Y007741D02*
X010523Y007741D01*
X010523Y007733D02*
X010736Y007733D01*
X010742Y007724D02*
X010523Y007724D01*
X010523Y007716D02*
X010748Y007716D01*
X009063Y007323D02*
X008811Y007323D01*
X008811Y007331D02*
X009042Y007331D01*
X009027Y007340D02*
X008811Y007340D01*
X008811Y007348D02*
X009018Y007348D01*
X009010Y007357D02*
X008811Y007357D01*
X008811Y007365D02*
X009004Y007365D01*
X008998Y007374D02*
X008811Y007374D01*
X008811Y007383D02*
X008995Y007383D01*
X008991Y007391D02*
X008811Y007391D01*
X008811Y007400D02*
X008988Y007400D01*
X008987Y007408D02*
X008811Y007408D01*
X008811Y007417D02*
X008985Y007417D01*
X008984Y007425D02*
X008811Y007425D01*
X008811Y007434D02*
X008982Y007434D01*
X008980Y007442D02*
X008811Y007442D01*
X008811Y007451D02*
X008980Y007451D01*
X008979Y007459D02*
X008811Y007459D01*
X008811Y007468D02*
X008978Y007468D01*
X008978Y007477D02*
X008811Y007477D01*
X008811Y007485D02*
X008977Y007485D01*
X008977Y007494D02*
X008811Y007494D01*
X008811Y007502D02*
X008977Y007502D01*
X008977Y007511D02*
X008811Y007511D01*
X008811Y007519D02*
X008977Y007519D01*
X008977Y007528D02*
X008811Y007528D01*
X008811Y007536D02*
X008977Y007536D01*
X008977Y007545D02*
X008811Y007545D01*
X008811Y007553D02*
X008977Y007553D01*
X008977Y007562D02*
X008811Y007562D01*
X008811Y007571D02*
X008977Y007571D01*
X008977Y007579D02*
X008811Y007579D01*
X008811Y007588D02*
X008977Y007588D01*
X008977Y007596D02*
X008811Y007596D01*
X008811Y007605D02*
X008977Y007605D01*
X008977Y007613D02*
X008811Y007613D01*
X008811Y007622D02*
X008977Y007622D01*
X008977Y007630D02*
X008811Y007630D01*
X008811Y007639D02*
X008977Y007639D01*
X008977Y007647D02*
X008811Y007647D01*
X008811Y007656D02*
X008977Y007656D01*
X008977Y007664D02*
X008811Y007664D01*
X008811Y007673D02*
X008977Y007673D01*
X008977Y007682D02*
X008811Y007682D01*
X008811Y007690D02*
X008977Y007690D01*
X008977Y007699D02*
X008811Y007699D01*
X008811Y007707D02*
X008977Y007707D01*
X008977Y007716D02*
X008811Y007716D01*
X008811Y007724D02*
X008977Y007724D01*
X008977Y007733D02*
X008811Y007733D01*
X008811Y007741D02*
X008977Y007741D01*
X008977Y007750D02*
X008811Y007750D01*
X008811Y007758D02*
X008977Y007758D01*
X008977Y007767D02*
X008811Y007767D01*
X008811Y007776D02*
X008977Y007776D01*
X008977Y007784D02*
X008811Y007784D01*
X008811Y007793D02*
X008977Y007793D01*
X008977Y007801D02*
X008811Y007801D01*
X008811Y007810D02*
X008977Y007810D01*
X008977Y007818D02*
X008811Y007818D01*
X008713Y007818D02*
X008554Y007818D01*
X008554Y007810D02*
X008713Y007810D01*
X008713Y007801D02*
X008554Y007801D01*
X008554Y007793D02*
X008713Y007793D01*
X008713Y007784D02*
X008554Y007784D01*
X008554Y007776D02*
X008713Y007776D01*
X008713Y007767D02*
X008554Y007767D01*
X008554Y007758D02*
X008713Y007758D01*
X008713Y007750D02*
X008554Y007750D01*
X008544Y007739D02*
X008547Y007737D01*
X008551Y007736D01*
X008543Y007738D02*
X008538Y007744D01*
X008148Y007711D02*
X008135Y007622D01*
X008377Y007838D02*
X008439Y007825D01*
X008493Y007795D01*
X008392Y007713D02*
X008366Y007709D01*
X008495Y007795D02*
X008529Y007760D01*
X008498Y007686D02*
X008435Y007711D01*
X008366Y007709D02*
X008320Y007671D01*
X008535Y007635D02*
X008547Y007573D01*
X008320Y007671D02*
X008297Y007588D01*
X008499Y007686D02*
X008535Y007635D01*
X008378Y007838D02*
X008299Y007837D01*
X007737Y007733D02*
X007220Y007733D01*
X007225Y007741D02*
X007732Y007741D01*
X007724Y007750D02*
X007231Y007750D01*
X007237Y007758D02*
X007715Y007758D01*
X007707Y007767D02*
X007245Y007767D01*
X007253Y007776D02*
X007699Y007776D01*
X007690Y007784D02*
X007261Y007784D01*
X007270Y007793D02*
X007678Y007793D01*
X007666Y007801D02*
X007282Y007801D01*
X007295Y007810D02*
X007654Y007810D01*
X007641Y007818D02*
X007308Y007818D01*
X007329Y007827D02*
X007622Y007827D01*
X007603Y007835D02*
X007350Y007835D01*
X007385Y007844D02*
X007581Y007844D01*
X007542Y007852D02*
X007433Y007852D01*
X006917Y007686D02*
X006874Y007721D01*
X006819Y007734D01*
X006739Y007726D02*
X006698Y007700D01*
X006582Y007784D02*
X006708Y007850D01*
X006582Y007784D02*
X006502Y007676D01*
X006474Y007544D01*
X006959Y007574D02*
X006958Y007477D01*
X007030Y007273D02*
X006928Y007215D01*
X006813Y007194D01*
X006708Y007850D02*
X006796Y007861D01*
X006802Y007736D02*
X006740Y007726D01*
X006810Y007861D02*
X006896Y007847D01*
X006976Y007812D01*
X005854Y007758D02*
X005466Y007758D01*
X005471Y007767D02*
X005846Y007767D01*
X005621Y007853D02*
X005572Y007843D01*
X008392Y007713D02*
X008436Y007711D01*
D11*
X007942Y007299D03*
M02*
